LambdaSerif-Italic.ufo
<glyph name="exclam" format="2">
  <advance width="227"/>
  <unicode hex="0021"/>
  <outline>
    <contour>
      <point x="88.0" y="40.0" type="curve" smooth="yes"/>
      <point x="94.0" y="69.0"/>
      <point x="122.0" y="93.0"/>
      <point x="151.0" y="93.0" type="curve" smooth="yes"/>
      <point x="177.0" y="93.0"/>
      <point x="196.0" y="74.0"/>
      <point x="196.0" y="49.0" type="curve" smooth="yes"/>
      <point x="196.0" y="46.0"/>
      <point x="195.0" y="43.0"/>
      <point x="195.0" y="40.0" type="curve" smooth="yes"/>
      <point x="190.0" y="11.0"/>
      <point x="162.0" y="-13.0"/>
      <point x="132.0" y="-13.0" type="curve" smooth="yes"/>
      <point x="106.0" y="-13.0"/>
      <point x="87.0" y="6.0"/>
      <point x="87.0" y="31.0" type="curve" smooth="yes"/>
      <point x="87.0" y="34.0"/>
      <point x="88.0" y="37.0"/>
    </contour>
    <contour>
      <point x="252.0" y="665.0" type="curve" smooth="yes"/>
      <point x="275.0" y="665.0"/>
      <point x="297.0" y="647.0"/>
      <point x="297.0" y="611.0" type="curve" smooth="yes"/>
      <point x="297.0" y="605.0"/>
      <point x="297.0" y="599.0"/>
      <point x="295.0" y="592.0" type="curve" smooth="yes"/>
      <point x="284.0" y="527.0"/>
      <point x="261.0" y="484.0"/>
      <point x="235.0" y="398.0" type="curve"/>
      <point x="204.0" y="291.0"/>
      <point x="191.0" y="231.0"/>
      <point x="188.0" y="217.0" type="curve" smooth="yes"/>
      <point x="185.0" y="206.0"/>
      <point x="180.0" y="197.0"/>
      <point x="170.0" y="197.0" type="curve" smooth="yes"/>
      <point x="160.0" y="197.0"/>
      <point x="158.0" y="202.0"/>
      <point x="158.0" y="208.0" type="curve" smooth="yes"/>
      <point x="158.0" y="208.0"/>
      <point x="158.0" y="209.0"/>
      <point x="158.0" y="210.0" type="curve" smooth="yes"/>
      <point x="160.0" y="230.0"/>
      <point x="170.0" y="321.0"/>
      <point x="176.0" y="398.0" type="curve" smooth="yes"/>
      <point x="178.0" y="425.0"/>
      <point x="179.0" y="447.0"/>
      <point x="179.0" y="466.0" type="curve" smooth="yes"/>
      <point x="179.0" y="482.0"/>
      <point x="178.0" y="496.0"/>
      <point x="178.0" y="510.0" type="curve" smooth="yes"/>
      <point x="178.0" y="535.0"/>
      <point x="179.0" y="559.0"/>
      <point x="185.0" y="592.0" type="curve" smooth="yes"/>
      <point x="195.0" y="646.0"/>
      <point x="230.0" y="665.0"/>
    </contour>
  </outline>
</glyph>
<glyph name="quotedbl" format="2">
  <advance width="336"/>
  <unicode hex="0022"/>
  <outline>
    <contour>
      <point x="291" y="427" type="line"/>
      <point x="291" y="427"/>
      <point x="292" y="586"/>
      <point x="294" y="595" type="curve" smooth="yes"/>
      <point x="297" y="617"/>
      <point x="324" y="645"/>
      <point x="354" y="645" type="curve" smooth="yes"/>
      <point x="376" y="645"/>
      <point x="383" y="632"/>
      <point x="383" y="619" type="curve" smooth="yes"/>
      <point x="383" y="616"/>
      <point x="383" y="614"/>
      <point x="383" y="612" type="curve" smooth="yes"/>
      <point x="380" y="596"/>
      <point x="318" y="431"/>
      <point x="318" y="431" type="curve"/>
    </contour>
    <contour>
      <point x="164" y="426" type="line"/>
      <point x="164" y="426"/>
      <point x="166" y="585"/>
      <point x="167" y="594" type="curve" smooth="yes"/>
      <point x="171" y="616"/>
      <point x="197" y="644"/>
      <point x="228" y="644" type="curve" smooth="yes"/>
      <point x="250" y="644"/>
      <point x="257" y="631"/>
      <point x="257" y="618" type="curve" smooth="yes"/>
      <point x="257" y="615"/>
      <point x="257" y="613"/>
      <point x="256" y="611" type="curve" smooth="yes"/>
      <point x="253" y="595"/>
      <point x="191" y="430"/>
      <point x="191" y="430" type="curve"/>
    </contour>
  </outline>
</glyph>
<glyph name="numbersign" format="2">
  <advance width="438"/>
  <unicode hex="0023"/>
  <outline>
    <contour>
      <point x="376.0" y="341.0" type="line"/>
      <point x="339.0" y="231.0" type="line"/>
      <point x="429.0" y="231.0" type="line"/>
      <point x="414.0" y="183.0" type="line"/>
      <point x="324.0" y="183.0" type="line"/>
      <point x="266.0" y="13.0" type="line"/>
      <point x="233.0" y="13.0" type="line"/>
      <point x="290.0" y="183.0" type="line"/>
      <point x="180.0" y="183.0" type="line"/>
      <point x="123.0" y="13.0" type="line"/>
      <point x="90.0" y="13.0" type="line"/>
      <point x="146.0" y="183.0" type="line"/>
      <point x="56.0" y="183.0" type="line"/>
      <point x="72.0" y="231.0" type="line"/>
      <point x="163.0" y="231.0" type="line"/>
      <point x="199.0" y="341.0" type="line"/>
      <point x="109.0" y="341.0" type="line"/>
      <point x="125.0" y="390.0" type="line"/>
      <point x="216.0" y="390.0" type="line"/>
      <point x="272.0" y="560.0" type="line"/>
      <point x="306.0" y="560.0" type="line"/>
      <point x="249.0" y="390.0" type="line"/>
      <point x="359.0" y="390.0" type="line"/>
      <point x="416.0" y="560.0" type="line"/>
      <point x="449.0" y="560.0" type="line"/>
      <point x="392.0" y="390.0" type="line"/>
      <point x="482.0" y="390.0" type="line"/>
      <point x="466.0" y="341.0" type="line"/>
    </contour>
    <contour>
      <point x="307.0" y="231.0" type="line"/>
      <point x="343.0" y="341.0" type="line"/>
      <point x="233.0" y="341.0" type="line"/>
      <point x="196.0" y="231.0" type="line"/>
    </contour>
  </outline>
</glyph>
<glyph name="dollar" format="2">
  <advance width="438"/>
  <unicode hex="0024"/>
  <outline>
    <contour>
      <point x="92.0" y="10.0" type="curve" smooth="yes"/>
      <point x="77.0" y="10.0"/>
      <point x="77.0" y="-1.0"/>
      <point x="56.0" y="-1.0" type="curve"/>
      <point x="63.0" y="36.0"/>
      <point x="66.0" y="90.0"/>
      <point x="69.0" y="146.0" type="curve"/>
      <point x="96.0" y="149.0" type="line"/>
      <point x="100.6" y="87.7"/>
      <point x="133.8" y="29.8"/>
      <point x="201.1" y="21.9" type="curve"/>
      <point x="248.3" y="264.3" type="line"/>
      <point x="194.0" y="290.6"/>
      <point x="110.5" y="335.9"/>
      <point x="129.0" y="434.0" type="curve" smooth="yes"/>
      <point x="145.6" y="520.5"/>
      <point x="240.8" y="564.6"/>
      <point x="308.1" y="571.1" type="curve"/>
      <point x="319.0" y="627.0" type="line"/>
      <point x="353.0" y="627.0" type="line"/>
      <point x="342.2" y="571.7" type="line"/>
      <point x="391.3" y="569.8"/>
      <point x="431.0" y="560.4"/>
      <point x="457.0" y="564.0" type="curve"/>
      <point x="450.0" y="519.0"/>
      <point x="450.0" y="470.0"/>
      <point x="449.0" y="421.0" type="curve"/>
      <point x="422.0" y="417.0" type="line"/>
      <point x="420.0" y="435.0" type="line" smooth="yes"/>
      <point x="413.6" y="500.8"/>
      <point x="390.5" y="535.7"/>
      <point x="336.3" y="541.2" type="curve"/>
      <point x="294.6" y="327.3" type="line"/>
      <point x="347.2" y="305.8"/>
      <point x="449.2" y="257.6"/>
      <point x="430.0" y="156.0" type="curve" smooth="yes"/>
      <point x="423.3" y="123.2"/>
      <point x="390.4" y="-2.6"/>
      <point x="228.5" y="-11.5" type="curve"/>
      <point x="215.0" y="-81.0" type="line"/>
      <point x="181.0" y="-81.0" type="line"/>
      <point x="194.5" y="-11.6" type="line"/>
      <point x="140.7" y="-8.5"/>
      <point x="112.2" y="10.0"/>
    </contour>
    <contour>
      <point x="235.2" y="22.4" type="line"/>
      <point x="275.8" y="28.3"/>
      <point x="337.4" y="54.1"/>
      <point x="352.0" y="127.0" type="curve" smooth="yes"/>
      <point x="367.6" y="206.8"/>
      <point x="317.2" y="235.1"/>
      <point x="279.7" y="250.9" type="curve"/>
    </contour>
    <contour>
      <point x="302.2" y="540.6" type="line"/>
      <point x="253.7" y="533.3"/>
      <point x="205.6" y="496.8"/>
      <point x="194.0" y="438.0" type="curve" smooth="yes"/>
      <point x="185.3" y="391.2"/>
      <point x="228.2" y="359.4"/>
      <point x="263.3" y="341.3" type="curve"/>
    </contour>
  </outline>
</glyph>
<glyph name="percent" format="2">
  <advance width="637"/>
  <unicode hex="0025"/>
  <outline>
    <contour>
      <point x="439" y="77" type="line" smooth="yes"/>
      <point x="439" y="25"/>
      <point x="466" y="10"/>
      <point x="484" y="10" type="curve" smooth="yes"/>
      <point x="540" y="10"/>
      <point x="575" y="102"/>
      <point x="575" y="157" type="curve" smooth="yes"/>
      <point x="575" y="209"/>
      <point x="544" y="218"/>
      <point x="530" y="218" type="curve" smooth="yes"/>
      <point x="481" y="218"/>
      <point x="439" y="134"/>
      <point x="439" y="77" type="curve" smooth="yes"/>
    </contour>
    <contour>
      <point x="388" y="91" type="line" smooth="yes"/>
      <point x="388" y="167"/>
      <point x="446" y="250"/>
      <point x="520" y="250" type="curve" smooth="yes"/>
      <point x="560" y="250"/>
      <point x="605" y="231"/>
      <point x="605" y="159" type="curve" smooth="yes"/>
      <point x="605" y="91"/>
      <point x="561" y="-19"/>
      <point x="478" y="-19" type="curve" smooth="yes"/>
      <point x="417" y="-19"/>
      <point x="388" y="39"/>
      <point x="388" y="91" type="curve" smooth="yes"/>
    </contour>
    <contour>
      <point x="436" y="515" type="line" smooth="yes"/>
      <point x="478" y="515"/>
      <point x="545" y="525"/>
      <point x="586" y="569" type="curve"/>
      <point x="619" y="548" type="line"/>
      <point x="139" y="-14" type="line"/>
      <point x="102" y="-5" type="line"/>
      <point x="530" y="497" type="line"/>
      <point x="491" y="481"/>
      <point x="456" y="478"/>
      <point x="427" y="478" type="curve" smooth="yes"/>
      <point x="403" y="478"/>
      <point x="365" y="488"/>
      <point x="346" y="499" type="curve"/>
      <point x="348" y="491"/>
      <point x="349" y="482"/>
      <point x="349" y="474" type="curve" smooth="yes"/>
      <point x="349" y="409"/>
      <point x="306" y="297"/>
      <point x="222" y="297" type="curve" smooth="yes"/>
      <point x="159" y="297"/>
      <point x="131" y="354"/>
      <point x="131" y="406" type="curve" smooth="yes"/>
      <point x="131" y="482"/>
      <point x="190" y="565"/>
      <point x="263" y="565" type="curve" smooth="yes"/>
      <point x="291" y="565"/>
      <point x="319" y="552"/>
      <point x="329" y="540" type="curve"/>
      <point x="383" y="515"/>
      <point x="418" y="515"/>
      <point x="436" y="515" type="curve" smooth="yes"/>
    </contour>
    <contour>
      <point x="182" y="392" type="line" smooth="yes"/>
      <point x="182" y="340"/>
      <point x="209" y="326"/>
      <point x="228" y="326" type="curve" smooth="yes"/>
      <point x="282" y="326"/>
      <point x="318" y="415"/>
      <point x="318" y="473" type="curve" smooth="yes"/>
      <point x="318" y="522"/>
      <point x="291" y="533"/>
      <point x="273" y="533" type="curve" smooth="yes"/>
      <point x="225" y="533"/>
      <point x="182" y="450"/>
      <point x="182" y="392" type="curve" smooth="yes"/>
    </contour>
  </outline>
</glyph>
<glyph name="ampersand" format="2">
  <advance width="705"/>
  <unicode hex="0026"/>
  <outline>
    <contour>
      <point x="434" y="610" type="curve" smooth="yes"/>
      <point x="395" y="610"/>
      <point x="340" y="565"/>
      <point x="340" y="504" type="curve" smooth="yes"/>
      <point x="340" y="482"/>
      <point x="347" y="452"/>
      <point x="360" y="412" type="curve"/>
      <point x="488" y="488"/>
      <point x="488" y="541"/>
      <point x="488" y="558" type="curve" smooth="yes"/>
      <point x="488" y="591"/>
      <point x="469" y="610"/>
    </contour>
    <contour>
      <point x="554" y="556" type="curve" smooth="yes"/>
      <point x="554" y="482"/>
      <point x="453" y="413"/>
      <point x="375" y="372" type="curve"/>
      <point x="384" y="354"/>
      <point x="389" y="333"/>
      <point x="469" y="190" type="curve"/>
      <point x="553" y="288"/>
      <point x="604" y="359"/>
      <point x="604" y="385" type="curve" smooth="yes"/>
      <point x="604" y="392"/>
      <point x="601" y="396"/>
      <point x="592" y="396" type="curve" smooth="yes"/>
      <point x="563" y="396" type="line" smooth="yes"/>
      <point x="559" y="396"/>
      <point x="559" y="400"/>
      <point x="560" y="403" type="curve" smooth="yes"/>
      <point x="563" y="420" type="line"/>
      <point x="565" y="422" type="line"/>
      <point x="565" y="422"/>
      <point x="617" y="420"/>
      <point x="651" y="420" type="curve" smooth="yes"/>
      <point x="685" y="420"/>
      <point x="739" y="422"/>
      <point x="739" y="422" type="curve"/>
      <point x="740" y="420" type="line"/>
      <point x="737" y="404" type="line" smooth="yes"/>
      <point x="736" y="398"/>
      <point x="731" y="396"/>
      <point x="727" y="396" type="curve" smooth="yes"/>
      <point x="699" y="396" type="line" smooth="yes"/>
      <point x="647" y="396"/>
      <point x="622" y="320"/>
      <point x="488" y="156" type="curve"/>
      <point x="514" y="111" type="line"/>
      <point x="537" y="67"/>
      <point x="562" y="45"/>
      <point x="579" y="45" type="curve" smooth="yes"/>
      <point x="612" y="45"/>
      <point x="638" y="62"/>
      <point x="666" y="102" type="curve"/>
      <point x="679" y="94" type="line"/>
      <point x="644" y="23"/>
      <point x="598" y="-9"/>
      <point x="563" y="-9" type="curve" smooth="yes"/>
      <point x="533" y="-9"/>
      <point x="496" y="-4"/>
      <point x="461" y="60" type="curve"/>
      <point x="438" y="98" type="line"/>
      <point x="381" y="35"/>
      <point x="318" y="-9"/>
      <point x="234" y="-9" type="curve" smooth="yes"/>
      <point x="139" y="-9"/>
      <point x="69" y="28"/>
      <point x="69" y="121" type="curve" smooth="yes"/>
      <point x="69" y="223"/>
      <point x="135" y="295"/>
      <point x="294" y="377" type="curve"/>
      <point x="275" y="424"/>
      <point x="267" y="458"/>
      <point x="267" y="488" type="curve" smooth="yes"/>
      <point x="267" y="582"/>
      <point x="353" y="644"/>
      <point x="445" y="644" type="curve" smooth="yes"/>
      <point x="509" y="644"/>
      <point x="554" y="609"/>
    </contour>
    <contour>
      <point x="311" y="340" type="curve"/>
      <point x="249" y="309"/>
      <point x="148" y="253"/>
      <point x="148" y="122" type="curve" smooth="yes"/>
      <point x="148" y="52"/>
      <point x="192" y="25"/>
      <point x="247" y="25" type="curve" smooth="yes"/>
      <point x="318" y="25"/>
      <point x="358" y="64"/>
      <point x="419" y="132" type="curve"/>
      <point x="376" y="207"/>
      <point x="317" y="319"/>
    </contour>
  </outline>
</glyph>
<glyph name="quotesingle" format="2">
  <advance width="190"/>
  <unicode hex="0027"/>
  <outline>
    <contour>
      <point x="154" y="426" type="line"/>
      <point x="154" y="426"/>
      <point x="156" y="585"/>
      <point x="158" y="594" type="curve" smooth="yes"/>
      <point x="161" y="616"/>
      <point x="188" y="644"/>
      <point x="218" y="644" type="curve" smooth="yes"/>
      <point x="240" y="644"/>
      <point x="247" y="631"/>
      <point x="247" y="618" type="curve" smooth="yes"/>
      <point x="247" y="615"/>
      <point x="247" y="613"/>
      <point x="247" y="611" type="curve" smooth="yes"/>
      <point x="244" y="595"/>
      <point x="182" y="430"/>
      <point x="182" y="430" type="curve"/>
    </contour>
  </outline>
</glyph>
<glyph name="parenleft" format="2">
  <advance width="306"/>
  <unicode hex="0028"/>
  <outline>
    <contour>
      <point x="108.0" y="0.0" type="curve"/>
      <point x="93.0" y="50.0"/>
      <point x="86.0" y="102.0"/>
      <point x="86.0" y="154.0" type="curve" smooth="yes"/>
      <point x="86.0" y="187.0"/>
      <point x="89.0" y="219.0"/>
      <point x="94.0" y="252.0" type="curve" smooth="yes"/>
      <point x="110.0" y="343.0"/>
      <point x="144.0" y="425.0"/>
      <point x="197.0" y="503.0" type="curve"/>
      <point x="227.0" y="549.0"/>
      <point x="286.0" y="632.0"/>
      <point x="387.0" y="707.0" type="curve"/>
      <point x="402.0" y="689.0" type="line"/>
      <point x="317.0" y="610.0"/>
      <point x="274.0" y="533.0"/>
      <point x="253.0" y="492.0" type="curve" smooth="yes"/>
      <point x="214.0" y="417.0"/>
      <point x="187.0" y="338.0"/>
      <point x="172.0" y="252.0" type="curve" smooth="yes"/>
      <point x="164.0" y="205.0"/>
      <point x="159.0" y="159.0"/>
      <point x="159.0" y="115.0" type="curve" smooth="yes"/>
      <point x="159.0" y="79.0"/>
      <point x="162.0" y="44.0"/>
      <point x="168.0" y="11.0" type="curve" smooth="yes"/>
      <point x="175.0" y="-32.0"/>
      <point x="191.0" y="-108.0"/>
      <point x="247.0" y="-187.0" type="curve"/>
      <point x="226.0" y="-204.0" type="line"/>
      <point x="169.0" y="-145.0"/>
      <point x="130.0" y="-80.0"/>
    </contour>
  </outline>
</glyph>
<glyph name="parenright" format="2">
  <advance width="313"/>
  <unicode hex="0029"/>
  <outline>
    <contour>
      <point x="312" y="504" type="line"/>
      <point x="327" y="454"/>
      <point x="334" y="402"/>
      <point x="334" y="350" type="curve" smooth="yes"/>
      <point x="334" y="317"/>
      <point x="331" y="285"/>
      <point x="326" y="252" type="curve"/>
      <point x="309" y="161"/>
      <point x="276" y="79"/>
      <point x="223" y="0" type="curve" smooth="yes"/>
      <point x="193" y="-45"/>
      <point x="134" y="-128"/>
      <point x="33" y="-203" type="curve"/>
      <point x="18" y="-186" type="line"/>
      <point x="103" y="-106"/>
      <point x="146" y="-29"/>
      <point x="167" y="12" type="curve" smooth="yes"/>
      <point x="206" y="87"/>
      <point x="233" y="166"/>
      <point x="248" y="252" type="curve" smooth="yes"/>
      <point x="256" y="299"/>
      <point x="261" y="345"/>
      <point x="261" y="389" type="curve" smooth="yes"/>
      <point x="261" y="425"/>
      <point x="258" y="459"/>
      <point x="252" y="493" type="curve" smooth="yes"/>
      <point x="245" y="536"/>
      <point x="229" y="612"/>
      <point x="173" y="691" type="curve"/>
      <point x="194" y="708" type="line"/>
      <point x="251" y="649"/>
      <point x="290" y="583"/>
      <point x="312" y="504" type="curve"/>
    </contour>
  </outline>
</glyph>
<glyph name="asterisk" format="2">
  <advance width="433"/>
  <unicode hex="002A"/>
  <outline>
    <contour>
      <point x="298" y="567" type="line"/>
      <point x="286" y="570"/>
      <point x="271" y="571"/>
      <point x="256" y="571" type="curve" smooth="yes"/>
      <point x="211" y="571"/>
      <point x="182" y="577"/>
      <point x="182" y="602" type="curve" smooth="yes"/>
      <point x="182" y="604"/>
      <point x="182" y="606"/>
      <point x="182" y="608" type="curve" smooth="yes"/>
      <point x="185" y="622"/>
      <point x="197" y="638"/>
      <point x="220" y="638" type="curve" smooth="yes"/>
      <point x="254" y="638"/>
      <point x="267" y="605"/>
      <point x="308" y="587" type="curve"/>
      <point x="308" y="590"/>
      <point x="308" y="594"/>
      <point x="308" y="598" type="curve" smooth="yes"/>
      <point x="308" y="626"/>
      <point x="299" y="648"/>
      <point x="299" y="668" type="curve" smooth="yes"/>
      <point x="299" y="672"/>
      <point x="300" y="675"/>
      <point x="300" y="679" type="curve" smooth="yes"/>
      <point x="304" y="700"/>
      <point x="320" y="718"/>
      <point x="338" y="718" type="curve" smooth="yes"/>
      <point x="354" y="718"/>
      <point x="365" y="709"/>
      <point x="365" y="691" type="curve" smooth="yes"/>
      <point x="365" y="688"/>
      <point x="365" y="686"/>
      <point x="365" y="683" type="curve" smooth="yes"/>
      <point x="360" y="656"/>
      <point x="336" y="616"/>
      <point x="328" y="586" type="curve"/>
      <point x="377" y="606"/>
      <point x="399" y="638"/>
      <point x="433" y="638" type="curve" smooth="yes"/>
      <point x="456" y="638"/>
      <point x="461" y="623"/>
      <point x="461" y="612" type="curve" smooth="yes"/>
      <point x="461" y="610"/>
      <point x="461" y="609"/>
      <point x="461" y="608" type="curve" smooth="yes"/>
      <point x="456" y="578"/>
      <point x="420" y="571"/>
      <point x="386" y="571" type="curve" smooth="yes"/>
      <point x="366" y="571"/>
      <point x="349" y="570"/>
      <point x="331" y="567" type="curve"/>
      <point x="355" y="533"/>
      <point x="399" y="521"/>
      <point x="399" y="488" type="curve" smooth="yes"/>
      <point x="399" y="485"/>
      <point x="399" y="483"/>
      <point x="398" y="480" type="curve" smooth="yes"/>
      <point x="395" y="462"/>
      <point x="378" y="451"/>
      <point x="364" y="451" type="curve" smooth="yes"/>
      <point x="325" y="451"/>
      <point x="329" y="516"/>
      <point x="311" y="555" type="curve"/>
      <point x="278" y="510"/>
      <point x="260" y="451"/>
      <point x="223" y="451" type="curve" smooth="yes"/>
      <point x="208" y="451"/>
      <point x="198" y="462"/>
      <point x="198" y="475" type="curve" smooth="yes"/>
      <point x="198" y="477"/>
      <point x="198" y="478"/>
      <point x="198" y="479" type="curve" smooth="yes"/>
      <point x="206" y="522"/>
      <point x="258" y="530"/>
      <point x="298" y="567" type="curve"/>
    </contour>
  </outline>
</glyph>
<glyph name="plus" format="2">
  <advance width="527"/>
  <unicode hex="002B"/>
  <outline>
    <contour>
      <point x="334.0" y="256.0" type="line"/>
      <point x="507.0" y="256.0" type="line"/>
      <point x="498.0" y="207.0" type="line"/>
      <point x="325.0" y="207.0" type="line"/>
      <point x="294.0" y="34.0" type="line"/>
      <point x="245.0" y="34.0" type="line"/>
      <point x="276.0" y="207.0" type="line"/>
      <point x="103.0" y="207.0" type="line"/>
      <point x="111.0" y="256.0" type="line"/>
      <point x="285.0" y="256.0" type="line"/>
      <point x="315.0" y="430.0" type="line"/>
      <point x="364.0" y="430.0" type="line"/>
    </contour>
  </outline>
</glyph>
<glyph name="comma" format="2">
  <advance width="219"/>
  <unicode hex="002C"/>
  <outline>
    <contour>
      <point x="62.0" y="45.0" type="curve" smooth="yes"/>
      <point x="62.0" y="76.0"/>
      <point x="91.0" y="95.0"/>
      <point x="121.0" y="95.0" type="curve" smooth="yes"/>
      <point x="152.0" y="95.0"/>
      <point x="175.0" y="71.0"/>
      <point x="175.0" y="31.0" type="curve" smooth="yes"/>
      <point x="175.0" y="-21.0"/>
      <point x="147.0" y="-111.0"/>
      <point x="31.0" y="-132.0" type="curve"/>
      <point x="23.2" y="-125.7"/>
      <point x="20.3" y="-118.0"/>
      <point x="22.5" y="-109.0" type="curve"/>
      <point x="75.5" y="-97.0"/>
      <point x="127.0" y="-50.0"/>
      <point x="127.0" y="-22.0" type="curve" smooth="yes"/>
      <point x="127.0" y="-4.0"/>
      <point x="112.0" y="0.0"/>
      <point x="96.0" y="4.0" type="curve" smooth="yes"/>
      <point x="77.0" y="9.0"/>
      <point x="62.0" y="21.0"/>
    </contour>
  </outline>
</glyph>
<glyph name="hyphen" format="2">
  <advance width="333"/>
  <unicode hex="002D"/>
  <outline>
    <contour>
      <point x="314.0" y="223.0" type="curve" smooth="yes"/>
      <point x="87.0" y="223.0" type="line" smooth="yes"/>
      <point x="80.0" y="223.0"/>
      <point x="77.0" y="232.0"/>
      <point x="77.0" y="240.0" type="curve" smooth="yes"/>
      <point x="77.0" y="256.6"/>
      <point x="99.1" y="283.0"/>
      <point x="109.0" y="283.0" type="curve" smooth="yes"/>
      <point x="338.0" y="283.0" type="line" smooth="yes"/>
      <point x="346.0" y="283.0"/>
      <point x="349.0" y="278.0"/>
      <point x="349.0" y="271.0" type="curve" smooth="yes"/>
      <point x="349.0" y="255.7"/>
      <point x="329.1" y="223.0"/>
    </contour>
  </outline>
</glyph>
<glyph name="period" format="2">
  <advance width="219"/>
  <unicode hex="002E"/>
  <outline>
    <contour>
      <point x="125" y="95" type="curve" smooth="yes"/>
      <point x="151" y="95"/>
      <point x="171" y="76"/>
      <point x="171" y="51" type="curve" smooth="yes"/>
      <point x="171" y="21"/>
      <point x="144" y="-11"/>
      <point x="109" y="-11" type="curve" smooth="yes"/>
      <point x="83" y="-11"/>
      <point x="63" y="9"/>
      <point x="63" y="35" type="curve" smooth="yes"/>
      <point x="63" y="62"/>
      <point x="89" y="95"/>
    </contour>
  </outline>
</glyph>
<glyph name="slash" format="2">
  <advance width="291"/>
  <unicode hex="002F"/>
  <outline>
    <contour>
      <point x="402.0" y="682.0" type="line"/>
      <point x="42.0" y="-21.0" type="line"/>
      <point x="0.0" y="-21.0" type="line"/>
      <point x="361.0" y="682.0" type="line"/>
    </contour>
  </outline>
</glyph>
<glyph name="zero" format="2">
  <advance width="444"/>
  <unicode hex="0030"/>
  <outline>
    <contour>
      <point x="226.0" y="-10.0" type="curve" smooth="yes"/>
      <point x="130.0" y="-10.0"/>
      <point x="95.0" y="90.0"/>
      <point x="95.0" y="192.0" type="curve" smooth="yes"/>
      <point x="95.0" y="372.0"/>
      <point x="184.0" y="525.0"/>
      <point x="267.0" y="581.0" type="curve" smooth="yes"/>
      <point x="295.0" y="600.0"/>
      <point x="324.0" y="610.0"/>
      <point x="351.0" y="610.0" type="curve" smooth="yes"/>
      <point x="451.0" y="610.0"/>
      <point x="483.0" y="513.0"/>
      <point x="483.0" y="412.0" type="curve" smooth="yes"/>
      <point x="483.0" y="288.0"/>
      <point x="436.0" y="163.0"/>
      <point x="392.0" y="99.0" type="curve" smooth="yes"/>
      <point x="337.0" y="20.0"/>
      <point x="271.0" y="-10.0"/>
    </contour>
    <contour>
      <point x="345.0" y="578.0" type="curve" smooth="yes"/>
      <point x="327.0" y="578.0"/>
      <point x="304.0" y="571.0"/>
      <point x="281.0" y="545.0" type="curve" smooth="yes"/>
      <point x="242.0" y="502.0"/>
      <point x="165.0" y="302.0"/>
      <point x="165.0" y="141.0" type="curve" smooth="yes"/>
      <point x="165.0" y="76.0"/>
      <point x="180.0" y="22.0"/>
      <point x="233.0" y="22.0" type="curve" smooth="yes"/>
      <point x="251.0" y="22.0"/>
      <point x="302.0" y="30.0"/>
      <point x="340.0" y="113.0" type="curve" smooth="yes"/>
      <point x="370.0" y="177.0"/>
      <point x="413.0" y="348.0"/>
      <point x="413.0" y="457.0" type="curve" smooth="yes"/>
      <point x="413.0" y="512.0"/>
      <point x="402.0" y="545.0"/>
      <point x="386.0" y="561.0" type="curve" smooth="yes"/>
      <point x="376.0" y="572.0"/>
      <point x="362.0" y="578.0"/>
    </contour>
  </outline>
</glyph>
<glyph name="one" format="2">
  <advance width="444"/>
  <unicode hex="0031"/>
  <outline>
    <contour>
      <point x="308.0" y="77.0" type="line" smooth="yes"/>
      <point x="303.0" y="50.0"/>
      <point x="313.0" y="33.0"/>
      <point x="355.0" y="30.0" type="curve" smooth="yes"/>
      <point x="388.0" y="28.0" type="line"/>
      <point x="391.0" y="23.0"/>
      <point x="389.0" y="3.0"/>
      <point x="385.0" y="-1.0" type="curve"/>
      <point x="335.0" y="0.0"/>
      <point x="309.0" y="0.0"/>
      <point x="261.0" y="0.0" type="curve" smooth="yes"/>
      <point x="207.0" y="0.0"/>
      <point x="174.0" y="0.0"/>
      <point x="125.0" y="-1.0" type="curve"/>
      <point x="121.0" y="8.0"/>
      <point x="123.0" y="24.0"/>
      <point x="127.0" y="28.0" type="curve"/>
      <point x="163.0" y="30.0" type="line" smooth="yes"/>
      <point x="209.0" y="33.0"/>
      <point x="230.0" y="49.0"/>
      <point x="235.0" y="77.0" type="curve" smooth="yes"/>
      <point x="307.0" y="449.0" type="line" smooth="yes"/>
      <point x="309.0" y="462.0"/>
      <point x="311.0" y="469.0"/>
      <point x="311.0" y="478.0" type="curve" smooth="yes"/>
      <point x="311.0" y="494.0"/>
      <point x="306.0" y="503.0"/>
      <point x="296.0" y="503.0" type="curve" smooth="yes"/>
      <point x="277.0" y="503.0"/>
      <point x="235.0" y="498.0"/>
      <point x="204.0" y="487.0" type="curve"/>
      <point x="199.0" y="496.0"/>
      <point x="196.0" y="505.0"/>
      <point x="196.0" y="516.0" type="curve"/>
      <point x="279.0" y="542.0"/>
      <point x="338.0" y="570.0"/>
      <point x="380.0" y="594.0" type="curve" smooth="yes"/>
      <point x="389.0" y="599.0"/>
      <point x="397.0" y="604.0"/>
      <point x="405.0" y="609.0" type="curve" smooth="yes"/>
      <point x="406.0" y="610.0"/>
      <point x="407.0" y="610.0"/>
      <point x="408.0" y="610.0" type="curve" smooth="yes"/>
      <point x="411.0" y="610.0"/>
      <point x="413.0" y="608.0"/>
      <point x="413.0" y="606.0" type="curve"/>
    </contour>
  </outline>
</glyph>
<glyph name="two" format="2">
  <advance width="444"/>
  <unicode hex="0032"/>
  <outline>
    <contour>
      <point x="244.0" y="587.0" type="curve" smooth="yes"/>
      <point x="272.0" y="601.0"/>
      <point x="305.0" y="610.0"/>
      <point x="343.0" y="610.0" type="curve" smooth="yes"/>
      <point x="407.0" y="610.0"/>
      <point x="485.0" y="582.0"/>
      <point x="485.0" y="492.0" type="curve" smooth="yes"/>
      <point x="485.0" y="406.0"/>
      <point x="403.0" y="322.0"/>
      <point x="353.0" y="279.0" type="curve" smooth="yes"/>
      <point x="239.0" y="181.0" type="line" smooth="yes"/>
      <point x="233.0" y="176.0"/>
      <point x="154.0" y="109.0"/>
      <point x="144.0" y="60.0" type="curve"/>
      <point x="312.0" y="60.0" type="line" smooth="yes"/>
      <point x="346.0" y="60.0"/>
      <point x="366.0" y="80.0"/>
      <point x="392.0" y="140.0" type="curve"/>
      <point x="402.0" y="140.0"/>
      <point x="411.0" y="137.0"/>
      <point x="418.0" y="132.0" type="curve"/>
      <point x="418.0" y="132.0"/>
      <point x="395.0" y="50.0"/>
      <point x="372.0" y="-1.0" type="curve"/>
      <point x="372.0" y="-1.0"/>
      <point x="329.0" y="0.0"/>
      <point x="299.0" y="0.0" type="curve" smooth="yes"/>
      <point x="132.0" y="0.0" type="line" smooth="yes"/>
      <point x="102.0" y="0.0"/>
      <point x="55.0" y="-1.0"/>
      <point x="55.0" y="-1.0" type="curve"/>
      <point x="58.0" y="15.0"/>
      <point x="62.0" y="31.0"/>
      <point x="69.0" y="47.0" type="curve" smooth="yes"/>
      <point x="87.0" y="88.0"/>
      <point x="122.0" y="132.0"/>
      <point x="202.0" y="202.0" type="curve" smooth="yes"/>
      <point x="287.0" y="276.0" type="line" smooth="yes"/>
      <point x="348.0" y="330.0"/>
      <point x="407.0" y="398.0"/>
      <point x="407.0" y="484.0" type="curve" smooth="yes"/>
      <point x="407.0" y="550.0"/>
      <point x="361.0" y="579.0"/>
      <point x="332.0" y="579.0" type="curve" smooth="yes"/>
      <point x="252.0" y="579.0"/>
      <point x="224.0" y="534.0"/>
      <point x="224.0" y="510.0" type="curve" smooth="yes"/>
      <point x="224.0" y="504.0"/>
      <point x="227.0" y="492.0"/>
      <point x="227.0" y="485.0" type="curve" smooth="yes"/>
      <point x="227.0" y="477.0"/>
      <point x="227.0" y="468.0"/>
      <point x="223.0" y="461.0" type="curve" smooth="yes"/>
      <point x="216.0" y="447.0"/>
      <point x="201.0" y="434.0"/>
      <point x="184.0" y="434.0" type="curve" smooth="yes"/>
      <point x="165.0" y="434.0"/>
      <point x="149.0" y="454.0"/>
      <point x="149.0" y="470.0" type="curve" smooth="yes"/>
      <point x="149.0" y="507.0"/>
      <point x="187.0" y="559.0"/>
    </contour>
  </outline>
</glyph>
<glyph name="three" format="2">
  <advance width="444"/>
  <unicode hex="0033"/>
  <outline>
    <contour>
      <point x="333" y="579" type="curve" smooth="yes"/>
      <point x="306" y="579"/>
      <point x="234" y="560"/>
      <point x="223" y="500" type="curve" smooth="yes"/>
      <point x="220" y="481"/>
      <point x="203" y="449"/>
      <point x="176" y="449" type="curve" smooth="yes"/>
      <point x="161" y="449"/>
      <point x="156" y="461"/>
      <point x="156" y="473" type="curve" smooth="yes"/>
      <point x="156" y="492"/>
      <point x="170" y="523"/>
      <point x="200" y="551" type="curve" smooth="yes"/>
      <point x="233" y="582"/>
      <point x="286" y="610"/>
      <point x="358" y="610" type="curve" smooth="yes"/>
      <point x="425" y="610"/>
      <point x="469" y="563"/>
      <point x="469" y="519" type="curve" smooth="yes"/>
      <point x="469" y="470"/>
      <point x="446" y="419"/>
      <point x="349" y="358" type="curve"/>
      <point x="404" y="348"/>
      <point x="449" y="302"/>
      <point x="449" y="228" type="curve" smooth="yes"/>
      <point x="449" y="100"/>
      <point x="332" y="-10"/>
      <point x="191" y="-10" type="curve" smooth="yes"/>
      <point x="154" y="-10"/>
      <point x="104" y="1"/>
      <point x="77" y="19" type="curve" smooth="yes"/>
      <point x="66" y="27"/>
      <point x="59" y="35"/>
      <point x="59" y="45" type="curve" smooth="yes"/>
      <point x="59" y="65"/>
      <point x="83" y="86"/>
      <point x="100" y="86" type="curve" smooth="yes"/>
      <point x="127" y="86"/>
      <point x="134" y="62"/>
      <point x="151" y="43" type="curve" smooth="yes"/>
      <point x="162" y="31"/>
      <point x="177" y="21"/>
      <point x="205" y="21" type="curve" smooth="yes"/>
      <point x="240" y="21"/>
      <point x="284" y="42"/>
      <point x="319" y="77" type="curve" smooth="yes"/>
      <point x="352" y="111"/>
      <point x="376" y="158"/>
      <point x="376" y="213" type="curve" smooth="yes"/>
      <point x="376" y="293"/>
      <point x="322" y="315"/>
      <point x="272" y="315" type="curve" smooth="yes"/>
      <point x="259" y="315"/>
      <point x="247" y="313"/>
      <point x="231" y="311" type="curve"/>
      <point x="231" y="341" type="line"/>
      <point x="308" y="351"/>
      <point x="405" y="432"/>
      <point x="405" y="504" type="curve" smooth="yes"/>
      <point x="405" y="552"/>
      <point x="372" y="579"/>
    </contour>
  </outline>
</glyph>
<glyph name="four" format="2">
  <advance width="445"/>
  <unicode hex="0034"/>
  <outline>
    <contour>
      <point x="382" y="504" type="line"/>
      <point x="296" y="383"/>
      <point x="213" y="304"/>
      <point x="122" y="213" type="curve"/>
      <point x="325" y="213" type="line"/>
    </contour>
    <contour>
      <point x="469" y="213" type="line" smooth="yes"/>
      <point x="477" y="213"/>
      <point x="482" y="210"/>
      <point x="482" y="203" type="curve" smooth="yes"/>
      <point x="482" y="189"/>
      <point x="462" y="171"/>
      <point x="448" y="171" type="curve" smooth="yes"/>
      <point x="383" y="171" type="line"/>
      <point x="365" y="77" type="line" smooth="yes"/>
      <point x="359" y="44"/>
      <point x="371" y="31"/>
      <point x="396" y="29" type="curve" smooth="yes"/>
      <point x="421" y="27" type="line"/>
      <point x="424" y="22"/>
      <point x="421" y="2"/>
      <point x="418" y="-2" type="curve"/>
      <point x="388" y="-1"/>
      <point x="354" y="0"/>
      <point x="315" y="0" type="curve" smooth="yes"/>
      <point x="273" y="0"/>
      <point x="240" y="-1"/>
      <point x="210" y="-2" type="curve"/>
      <point x="206" y="6"/>
      <point x="208" y="23"/>
      <point x="212" y="27" type="curve"/>
      <point x="238" y="29" type="line" smooth="yes"/>
      <point x="268" y="32"/>
      <point x="293" y="45"/>
      <point x="299" y="77" type="curve" smooth="yes"/>
      <point x="317" y="171" type="line"/>
      <point x="108" y="171" type="line" smooth="yes"/>
      <point x="85" y="171"/>
      <point x="72" y="190"/>
      <point x="76" y="209" type="curve"/>
      <point x="196" y="326"/>
      <point x="288" y="418"/>
      <point x="407" y="593" type="curve" smooth="yes"/>
      <point x="411" y="598"/>
      <point x="430" y="610"/>
      <point x="441" y="610" type="curve" smooth="yes"/>
      <point x="469" y="610" type="line"/>
      <point x="466" y="600"/>
      <point x="459" y="563"/>
      <point x="449" y="510" type="curve" smooth="yes"/>
      <point x="391" y="213" type="line"/>
    </contour>
  </outline>
</glyph>
<glyph name="five" format="2">
  <advance width="444"/>
  <unicode hex="0035"/>
  <outline>
    <contour>
      <point x="367.0" y="217.0" type="curve" smooth="yes"/>
      <point x="367.0" y="289.0"/>
      <point x="325.0" y="346.0"/>
      <point x="275.0" y="346.0" type="curve" smooth="yes"/>
      <point x="239.0" y="346.0"/>
      <point x="196.0" y="342.0"/>
      <point x="142.0" y="323.0" type="curve"/>
      <point x="229.0" y="605.0" type="line"/>
      <point x="262.0" y="603.0"/>
      <point x="294.0" y="601.0"/>
      <point x="329.0" y="601.0" type="curve" smooth="yes"/>
      <point x="379.0" y="601.0"/>
      <point x="439.0" y="604.0"/>
      <point x="493.0" y="612.0" type="curve"/>
      <point x="472.0" y="545.0" type="line"/>
      <point x="431.0" y="540.0"/>
      <point x="399.0" y="538.0"/>
      <point x="371.0" y="538.0" type="curve" smooth="yes"/>
      <point x="334.0" y="538.0"/>
      <point x="292.0" y="541.0"/>
      <point x="255.0" y="546.0" type="curve"/>
      <point x="201.0" y="376.0" type="line"/>
      <point x="222.0" y="384.0"/>
      <point x="260.0" y="390.0"/>
      <point x="303.0" y="390.0" type="curve" smooth="yes"/>
      <point x="390.0" y="390.0"/>
      <point x="440.0" y="315.0"/>
      <point x="440.0" y="230.0" type="curve" smooth="yes"/>
      <point x="440.0" y="102.0"/>
      <point x="333.0" y="-10.0"/>
      <point x="200.0" y="-10.0" type="curve" smooth="yes"/>
      <point x="160.0" y="-10.0"/>
      <point x="112.0" y="1.0"/>
      <point x="85.0" y="20.0" type="curve" smooth="yes"/>
      <point x="73.0" y="29.0"/>
      <point x="65.0" y="39.0"/>
      <point x="65.0" y="51.0" type="curve" smooth="yes"/>
      <point x="65.0" y="71.0"/>
      <point x="85.0" y="89.0"/>
      <point x="106.0" y="89.0" type="curve" smooth="yes"/>
      <point x="126.0" y="89.0"/>
      <point x="135.0" y="71.0"/>
      <point x="148.0" y="54.0" type="curve" smooth="yes"/>
      <point x="160.0" y="38.0"/>
      <point x="176.0" y="22.0"/>
      <point x="208.0" y="22.0" type="curve" smooth="yes"/>
      <point x="240.0" y="22.0"/>
      <point x="273.0" y="37.0"/>
      <point x="301.0" y="62.0" type="curve" smooth="yes"/>
      <point x="339.0" y="97.0"/>
      <point x="367.0" y="152.0"/>
    </contour>
  </outline>
</glyph>
<glyph name="six" format="2">
  <advance width="444"/>
  <unicode hex="0036"/>
  <outline>
    <contour>
      <point x="505" y="584" type="line"/>
      <point x="433" y="575"/>
      <point x="348" y="538"/>
      <point x="291" y="482" type="curve" smooth="yes"/>
      <point x="246" y="438"/>
      <point x="203" y="376"/>
      <point x="181" y="309" type="curve"/>
      <point x="215" y="337"/>
      <point x="269" y="360"/>
      <point x="306" y="360" type="curve" smooth="yes"/>
      <point x="431" y="360"/>
      <point x="457" y="279"/>
      <point x="457" y="215" type="curve" smooth="yes"/>
      <point x="457" y="109"/>
      <point x="360" y="-10"/>
      <point x="235" y="-10" type="curve" smooth="yes"/>
      <point x="161" y="-10"/>
      <point x="88" y="25"/>
      <point x="88" y="164" type="curve" smooth="yes"/>
      <point x="88" y="194"/>
      <point x="92" y="351"/>
      <point x="223" y="483" type="curve" smooth="yes"/>
      <point x="301" y="562"/>
      <point x="408" y="609"/>
      <point x="504" y="612" type="curve"/>
      <point x="507" y="603"/>
      <point x="507" y="594"/>
      <point x="505" y="584" type="curve"/>
    </contour>
    <contour>
      <point x="175" y="279" type="line"/>
      <point x="168" y="255"/>
      <point x="160" y="201"/>
      <point x="160" y="159" type="curve" smooth="yes"/>
      <point x="160" y="54"/>
      <point x="215" y="20"/>
      <point x="254" y="20" type="curve" smooth="yes"/>
      <point x="328" y="20"/>
      <point x="384" y="134"/>
      <point x="384" y="205" type="curve" smooth="yes"/>
      <point x="384" y="255"/>
      <point x="363" y="324"/>
      <point x="281" y="324" type="curve" smooth="yes"/>
      <point x="256" y="324"/>
      <point x="224" y="315"/>
      <point x="175" y="279" type="curve"/>
    </contour>
  </outline>
</glyph>
<glyph name="seven" format="2">
  <advance width="444"/>
  <unicode hex="0037"/>
  <outline>
    <contour>
      <point x="272.0" y="544.0" type="line" smooth="yes"/>
      <point x="220.0" y="544.0"/>
      <point x="204.0" y="531.0"/>
      <point x="177.0" y="473.0" type="curve"/>
      <point x="167.0" y="472.0"/>
      <point x="159.0" y="473.0"/>
      <point x="150.0" y="476.0" type="curve"/>
      <point x="168.0" y="526.0"/>
      <point x="181.0" y="565.0"/>
      <point x="192.0" y="611.0" type="curve" smooth="yes"/>
      <point x="192.0" y="613.0"/>
      <point x="197.0" y="614.0"/>
      <point x="201.0" y="614.0" type="curve" smooth="yes"/>
      <point x="205.0" y="614.0"/>
      <point x="209.0" y="613.0"/>
      <point x="210.0" y="611.0" type="curve" smooth="yes"/>
      <point x="212.0" y="606.0"/>
      <point x="215.0" y="601.0"/>
      <point x="242.0" y="601.0" type="curve" smooth="yes"/>
      <point x="450.0" y="601.0" type="line" smooth="yes"/>
      <point x="486.0" y="601.0"/>
      <point x="507.0" y="607.0"/>
      <point x="524.0" y="612.0" type="curve"/>
      <point x="536.0" y="600.0" type="line"/>
      <point x="377.0" y="327.0"/>
      <point x="293.0" y="160.0"/>
      <point x="206.0" y="-10.0" type="curve"/>
      <point x="140.0" y="-13.0" type="line"/>
      <point x="134.0" y="-6.0" type="line"/>
      <point x="229.0" y="148.0"/>
      <point x="343.0" y="347.0"/>
      <point x="455.0" y="544.0" type="curve"/>
    </contour>
  </outline>
</glyph>
<glyph name="eight" format="2">
  <advance width="444"/>
  <unicode hex="0038"/>
  <outline>
    <contour>
      <point x="241" y="18" type="curve" smooth="yes"/>
      <point x="324" y="18"/>
      <point x="374" y="84"/>
      <point x="374" y="170" type="curve" smooth="yes"/>
      <point x="374" y="209"/>
      <point x="353" y="245"/>
      <point x="308" y="278" type="curve" smooth="yes"/>
      <point x="277" y="301" type="line"/>
      <point x="209" y="257"/>
      <point x="139" y="200"/>
      <point x="139" y="124" type="curve" smooth="yes"/>
      <point x="139" y="48"/>
      <point x="200" y="18"/>
    </contour>
    <contour>
      <point x="428" y="399" type="curve" smooth="yes"/>
      <point x="406" y="381"/>
      <point x="378" y="362"/>
      <point x="344" y="339" type="curve"/>
      <point x="385" y="312" type="line" smooth="yes"/>
      <point x="428" y="284"/>
      <point x="443" y="242"/>
      <point x="443" y="200" type="curve" smooth="yes"/>
      <point x="443" y="82"/>
      <point x="358" y="-10"/>
      <point x="234" y="-10" type="curve" smooth="yes"/>
      <point x="149" y="-10"/>
      <point x="79" y="28"/>
      <point x="79" y="118" type="curve" smooth="yes"/>
      <point x="79" y="228"/>
      <point x="179" y="279"/>
      <point x="248" y="323" type="curve"/>
      <point x="228" y="338" type="line" smooth="yes"/>
      <point x="182" y="372"/>
      <point x="159" y="403"/>
      <point x="159" y="443" type="curve" smooth="yes"/>
      <point x="159" y="527"/>
      <point x="248" y="610"/>
      <point x="346" y="610" type="curve" smooth="yes"/>
      <point x="429" y="610"/>
      <point x="484" y="563"/>
      <point x="484" y="500" type="curve" smooth="yes"/>
      <point x="484" y="458"/>
      <point x="464" y="429"/>
    </contour>
    <contour>
      <point x="335" y="582" type="curve" smooth="yes"/>
      <point x="276" y="582"/>
      <point x="224" y="518"/>
      <point x="224" y="471" type="curve" smooth="yes"/>
      <point x="224" y="442"/>
      <point x="234" y="417"/>
      <point x="291" y="376" type="curve"/>
      <point x="314" y="360" type="line"/>
      <point x="411" y="436"/>
      <point x="423" y="467"/>
      <point x="423" y="496" type="curve" smooth="yes"/>
      <point x="423" y="533"/>
      <point x="389" y="582"/>
    </contour>
  </outline>
</glyph>
<glyph name="nine" format="2">
  <advance width="444"/>
  <unicode hex="0039"/>
  <outline>
    <contour>
      <point x="77.0" y="16.0" type="curve"/>
      <point x="149.0" y="25.0"/>
      <point x="234.0" y="62.0"/>
      <point x="291.0" y="118.0" type="curve" smooth="yes"/>
      <point x="336.0" y="162.0"/>
      <point x="379.0" y="224.0"/>
      <point x="401.0" y="291.0" type="curve"/>
      <point x="367.0" y="263.0"/>
      <point x="313.0" y="240.0"/>
      <point x="276.0" y="240.0" type="curve" smooth="yes"/>
      <point x="151.0" y="240.0"/>
      <point x="125.0" y="321.0"/>
      <point x="125.0" y="385.0" type="curve" smooth="yes"/>
      <point x="125.0" y="491.0"/>
      <point x="222.0" y="610.0"/>
      <point x="347.0" y="610.0" type="curve" smooth="yes"/>
      <point x="421.0" y="610.0"/>
      <point x="494.0" y="575.0"/>
      <point x="494.0" y="436.0" type="curve" smooth="yes"/>
      <point x="494.0" y="406.0"/>
      <point x="490.0" y="249.0"/>
      <point x="359.0" y="117.0" type="curve" smooth="yes"/>
      <point x="281.0" y="38.0"/>
      <point x="174.0" y="-9.0"/>
      <point x="78.0" y="-12.0" type="curve"/>
      <point x="75.0" y="-3.0"/>
      <point x="75.0" y="6.0"/>
    </contour>
    <contour>
      <point x="407.0" y="321.0" type="curve"/>
      <point x="414.0" y="345.0"/>
      <point x="422.0" y="399.0"/>
      <point x="422.0" y="441.0" type="curve" smooth="yes"/>
      <point x="422.0" y="546.0"/>
      <point x="367.0" y="580.0"/>
      <point x="328.0" y="580.0" type="curve" smooth="yes"/>
      <point x="256.0" y="580.0"/>
      <point x="198.0" y="466.0"/>
      <point x="198.0" y="395.0" type="curve" smooth="yes"/>
      <point x="198.0" y="345.0"/>
      <point x="219.0" y="276.0"/>
      <point x="301.0" y="276.0" type="curve" smooth="yes"/>
      <point x="326.0" y="276.0"/>
      <point x="358.0" y="285.0"/>
    </contour>
  </outline>
</glyph>
<glyph name="less" format="2">
  <advance width="487"/>
  <unicode hex="003C"/>
  <outline>
    <contour>
      <point x="164.0" y="239.0" type="line"/>
      <point x="460.0" y="123.0" type="line"/>
      <point x="452.0" y="73.0" type="line"/>
      <point x="87.0" y="215.0" type="line"/>
      <point x="95.0" y="263.0" type="line"/>
      <point x="510.0" y="404.0" type="line"/>
      <point x="501.0" y="354.0" type="line"/>
    </contour>
  </outline>
</glyph>
<glyph name="equal" format="2">
  <advance width="527"/>
  <unicode hex="003D"/>
  <outline>
    <contour>
      <point x="496" y="193" type="line"/>
      <point x="487" y="144" type="line"/>
      <point x="91" y="144" type="line"/>
      <point x="100" y="193" type="line"/>
    </contour>
    <contour>
      <point x="518" y="318" type="line"/>
      <point x="509" y="269" type="line"/>
      <point x="113" y="269" type="line"/>
      <point x="122" y="318" type="line"/>
    </contour>
  </outline>
</glyph>
<glyph name="greater" format="2">
  <advance width="487"/>
  <unicode hex="003E"/>
  <outline>
    <contour>
      <point x="407" y="236" type="line"/>
      <point x="111" y="352" type="line"/>
      <point x="120" y="402" type="line"/>
      <point x="485" y="260" type="line"/>
      <point x="477" y="212" type="line"/>
      <point x="62" y="71" type="line"/>
      <point x="70" y="121" type="line"/>
    </contour>
  </outline>
</glyph>
<glyph name="question" format="2">
  <advance width="405"/>
  <unicode hex="003F"/>
  <outline>
    <component base="period" xOffset="102"/>
    <contour>
      <point x="146" y="520" type="line"/>
      <point x="146" y="568"/>
      <point x="207" y="659"/>
      <point x="338" y="659" type="curve" smooth="yes"/>
      <point x="428" y="659"/>
      <point x="486" y="612"/>
      <point x="486" y="539" type="curve" smooth="yes"/>
      <point x="486" y="398"/>
      <point x="326" y="355"/>
      <point x="289" y="301" type="curve" smooth="yes"/>
      <point x="271" y="276"/>
      <point x="262" y="252"/>
      <point x="257" y="228" type="curve"/>
      <point x="250" y="184" type="line" smooth="yes"/>
      <point x="249" y="177"/>
      <point x="243" y="174"/>
      <point x="235" y="174" type="curve" smooth="yes"/>
      <point x="228" y="174"/>
      <point x="223" y="177"/>
      <point x="224" y="184" type="curve"/>
      <point x="232" y="230" type="line"/>
      <point x="267" y="419"/>
      <point x="408" y="390"/>
      <point x="408" y="530" type="curve" smooth="yes"/>
      <point x="408" y="584"/>
      <point x="373" y="629"/>
      <point x="323" y="629" type="curve" smooth="yes"/>
      <point x="254" y="629"/>
      <point x="219" y="593"/>
      <point x="219" y="563" type="curve" smooth="yes"/>
      <point x="219" y="557"/>
      <point x="221" y="551"/>
      <point x="224" y="546" type="curve"/>
      <point x="226" y="542"/>
      <point x="227" y="537"/>
      <point x="227" y="532" type="curve" smooth="yes"/>
      <point x="227" y="512"/>
      <point x="211" y="487"/>
      <point x="180" y="487" type="curve" smooth="yes"/>
      <point x="166" y="487"/>
      <point x="146" y="493"/>
      <point x="146" y="520" type="curve"/>
    </contour>
  </outline>
</glyph>
<glyph name="at" format="2">
  <advance width="829"/>
  <unicode hex="0040"/>
  <outline>
    <contour>
      <point x="596" y="316" type="curve" smooth="yes"/>
      <point x="604" y="354"/>
      <point x="581" y="379"/>
      <point x="548" y="379" type="curve" smooth="yes"/>
      <point x="532" y="379"/>
      <point x="491" y="370"/>
      <point x="456" y="339" type="curve" smooth="yes"/>
      <point x="397" y="288"/>
      <point x="368" y="224"/>
      <point x="355" y="162" type="curve" smooth="yes"/>
      <point x="345" y="114"/>
      <point x="350" y="70"/>
      <point x="408" y="70" type="curve" smooth="yes"/>
      <point x="440" y="70"/>
      <point x="499" y="127"/>
      <point x="542" y="200" type="curve"/>
      <point x="562" y="231"/>
      <point x="588" y="282"/>
    </contour>
    <contour>
      <point x="557" y="74" type="curve" smooth="yes"/>
      <point x="555" y="64"/>
      <point x="562" y="62"/>
      <point x="564" y="62" type="curve" smooth="yes"/>
      <point x="660" y="62"/>
      <point x="729" y="109"/>
      <point x="764" y="275" type="curve" smooth="yes"/>
      <point x="808" y="481"/>
      <point x="666" y="581"/>
      <point x="549" y="581" type="curve" smooth="yes"/>
      <point x="408" y="581"/>
      <point x="230" y="478"/>
      <point x="179" y="241" type="curve" smooth="yes"/>
      <point x="147" y="91"/>
      <point x="172" y="-125"/>
      <point x="412" y="-125" type="curve" smooth="yes"/>
      <point x="491" y="-125"/>
      <point x="554" y="-102"/>
      <point x="613" y="-59" type="curve"/>
      <point x="622" y="-77" type="line"/>
      <point x="556" y="-123"/>
      <point x="492" y="-158"/>
      <point x="387" y="-158" type="curve" smooth="yes"/>
      <point x="166" y="-158"/>
      <point x="55" y="10"/>
      <point x="101" y="223" type="curve"/>
      <point x="146" y="438"/>
      <point x="355" y="611"/>
      <point x="565" y="611" type="curve" smooth="yes"/>
      <point x="765" y="611"/>
      <point x="879" y="469"/>
      <point x="839" y="282" type="curve" smooth="yes"/>
      <point x="814" y="168"/>
      <point x="719" y="27"/>
      <point x="517" y="27" type="curve" smooth="yes"/>
      <point x="491" y="27"/>
      <point x="489" y="52"/>
      <point x="493" y="68" type="curve" smooth="yes"/>
      <point x="496" y="83"/>
      <point x="507" y="106"/>
      <point x="520" y="131" type="curve"/>
      <point x="518" y="132" type="line"/>
      <point x="461" y="58"/>
      <point x="405" y="29"/>
      <point x="373" y="29" type="curve" smooth="yes"/>
      <point x="280" y="29"/>
      <point x="277" y="113"/>
      <point x="285" y="153" type="curve" smooth="yes"/>
      <point x="315" y="296"/>
      <point x="458" y="410"/>
      <point x="557" y="410" type="curve" smooth="yes"/>
      <point x="587" y="410"/>
      <point x="615" y="393"/>
      <point x="619" y="367" type="curve"/>
      <point x="629" y="391" type="line"/>
      <point x="681" y="404" type="line"/>
      <point x="693" y="399" type="line"/>
      <point x="583" y="141" type="line" smooth="yes"/>
      <point x="572" y="114"/>
      <point x="559" y="83"/>
    </contour>
  </outline>
</glyph>
<glyph name="A" format="2">
  <advance width="667"/>
  <unicode hex="0041"/>
  <anchor x="308.0" y="-108.0" name="below"/>
  <anchor x="117.0" y="5.0" name="cedilla"/>
  <anchor x="505.0" y="850.0" name="above"/>
  <outline>
    <contour>
      <point x="307.0" y="283.0" type="curve" smooth="yes"/>
      <point x="474.0" y="283.0" type="line"/>
      <point x="433.0" y="550.0" type="line"/>
      <point x="431.0" y="550.0" type="line"/>
      <point x="286.0" y="296.0" type="line" smooth="yes"/>
      <point x="284.5" y="293.6"/>
      <point x="283.8" y="291.6"/>
      <point x="283.8" y="289.9" type="curve" smooth="yes"/>
      <point x="283.8" y="284.7"/>
      <point x="291.1" y="283.0"/>
    </contour>
    <contour>
      <point x="161.0" y="79.0" type="line" smooth="yes"/>
      <point x="156.2" y="70.7"/>
      <point x="153.8" y="62.7"/>
      <point x="153.8" y="55.9" type="curve" smooth="yes"/>
      <point x="153.8" y="41.1"/>
      <point x="165.4" y="31.1"/>
      <point x="190.0" y="29.0" type="curve" smooth="yes"/>
      <point x="217.0" y="27.0" type="line" smooth="yes"/>
      <point x="221.0" y="27.0"/>
      <point x="223.5" y="24.0"/>
      <point x="223.0" y="19.0" type="curve" smooth="yes"/>
      <point x="221.0" y="0.0" type="line"/>
      <point x="218.0" y="-2.0" type="line"/>
      <point x="183.0" y="-1.0"/>
      <point x="132.0" y="0.0"/>
      <point x="93.0" y="0.0" type="curve" smooth="yes"/>
      <point x="56.0" y="0.0"/>
      <point x="40.0" y="-1.0"/>
      <point x="4.0" y="-2.0" type="curve"/>
      <point x="3.0" y="0.0" type="line"/>
      <point x="6.0" y="19.0" type="line" smooth="yes"/>
      <point x="6.8" y="24.4"/>
      <point x="10.0" y="27.0"/>
      <point x="15.0" y="27.0" type="curve" smooth="yes"/>
      <point x="57.0" y="30.0"/>
      <point x="85.0" y="40.0"/>
      <point x="122.0" y="102.0" type="curve" smooth="yes"/>
      <point x="437.0" y="622.0" type="line" smooth="yes"/>
      <point x="453.0" y="649.0"/>
      <point x="462.0" y="658.0"/>
      <point x="476.0" y="658.0" type="curve" smooth="yes"/>
      <point x="490.0" y="658.0"/>
      <point x="493.0" y="647.0"/>
      <point x="496.0" y="628.0" type="curve" smooth="yes"/>
      <point x="588.0" y="86.0" type="line" smooth="yes"/>
      <point x="594.0" y="47.0"/>
      <point x="610.0" y="32.0"/>
      <point x="648.0" y="28.0" type="curve" smooth="yes"/>
      <point x="658.0" y="27.0" type="line" smooth="yes"/>
      <point x="663.0" y="27.0"/>
      <point x="666.5" y="24.0"/>
      <point x="666.0" y="19.0" type="curve" smooth="yes"/>
      <point x="664.0" y="0.0" type="line"/>
      <point x="662.0" y="-2.0" type="line"/>
      <point x="627.0" y="-1.0"/>
      <point x="588.0" y="0.0"/>
      <point x="549.0" y="0.0" type="curve" smooth="yes"/>
      <point x="512.0" y="0.0"/>
      <point x="458.0" y="-1.0"/>
      <point x="422.0" y="-2.0" type="curve"/>
      <point x="421.0" y="0.0" type="line"/>
      <point x="423.0" y="19.0" type="line" smooth="yes"/>
      <point x="423.6" y="24.3"/>
      <point x="427.0" y="27.0"/>
      <point x="431.0" y="27.0" type="curve" smooth="yes"/>
      <point x="459.0" y="29.0" type="line" smooth="yes"/>
      <point x="491.6" y="31.6"/>
      <point x="507.9" y="41.3"/>
      <point x="507.9" y="62.7" type="curve" smooth="yes"/>
      <point x="507.9" y="65.6"/>
      <point x="507.6" y="68.7"/>
      <point x="507.0" y="72.0" type="curve" smooth="yes"/>
      <point x="482.0" y="241.0" type="line"/>
      <point x="282.0" y="241.0" type="line" smooth="yes"/>
      <point x="259.0" y="241.0"/>
      <point x="252.0" y="237.0"/>
      <point x="245.0" y="224.0" type="curve" smooth="yes"/>
    </contour>
  </outline>
</glyph>
<glyph name="B" format="2">
  <advance width="557"/>
  <unicode hex="0042"/>
  <anchor x="238.0" y="-108.0" name="below"/>
  <anchor x="250.0" y="0.0" name="cedilla"/>
  <anchor x="447.0" y="850.0" name="above"/>
  <outline>
    <contour>
      <point x="290.0" y="570.0" type="curve" smooth="yes"/>
      <point x="250.0" y="366.0" type="line"/>
      <point x="321.0" y="366.0" type="line" smooth="yes"/>
      <point x="401.0" y="366.0"/>
      <point x="465.0" y="396.0"/>
      <point x="482.0" y="481.0" type="curve" smooth="yes"/>
      <point x="484.5" y="493.8"/>
      <point x="485.7" y="505.4"/>
      <point x="485.7" y="516.0" type="curve" smooth="yes"/>
      <point x="485.7" y="590.0"/>
      <point x="429.2" y="613.0"/>
      <point x="382.0" y="613.0" type="curve" smooth="yes"/>
      <point x="298.0" y="613.0"/>
      <point x="296.0" y="603.0"/>
    </contour>
    <contour>
      <point x="244.0" y="332.0" type="line"/>
      <point x="194.0" y="78.0" type="line" smooth="yes"/>
      <point x="193.1" y="72.8"/>
      <point x="192.5" y="68.2"/>
      <point x="192.5" y="64.0" type="curve" smooth="yes"/>
      <point x="192.5" y="41.3"/>
      <point x="208.5" y="32.0"/>
      <point x="265.0" y="32.0" type="curve" smooth="yes"/>
      <point x="411.0" y="32.0"/>
      <point x="451.0" y="92.0"/>
      <point x="466.0" y="165.0" type="curve" smooth="yes"/>
      <point x="468.4" y="177.5"/>
      <point x="469.6" y="189.8"/>
      <point x="469.6" y="201.6" type="curve" smooth="yes"/>
      <point x="469.6" y="274.9"/>
      <point x="422.8" y="332.0"/>
      <point x="310.0" y="332.0" type="curve" smooth="yes"/>
    </contour>
    <contour>
      <point x="20.0" y="19.0" type="line" smooth="yes"/>
      <point x="21.0" y="24.0"/>
      <point x="23.0" y="27.0"/>
      <point x="28.0" y="27.0" type="curve" smooth="yes"/>
      <point x="57.0" y="29.0" type="line" smooth="yes"/>
      <point x="98.0" y="32.0"/>
      <point x="108.0" y="36.0"/>
      <point x="115.0" y="71.0" type="curve" smooth="yes"/>
      <point x="213.0" y="574.0" type="line" smooth="yes"/>
      <point x="214.5" y="581.1"/>
      <point x="215.3" y="586.9"/>
      <point x="215.3" y="591.7" type="curve" smooth="yes"/>
      <point x="215.3" y="610.0"/>
      <point x="203.5" y="613.6"/>
      <point x="171.0" y="616.0" type="curve" smooth="yes"/>
      <point x="143.0" y="618.0" type="line" smooth="yes"/>
      <point x="138.0" y="618.0"/>
      <point x="137.0" y="621.0"/>
      <point x="137.0" y="625.0" type="curve" smooth="yes"/>
      <point x="141.0" y="645.0" type="line"/>
      <point x="144.0" y="647.0" type="line"/>
      <point x="189.0" y="646.0"/>
      <point x="228.0" y="645.0"/>
      <point x="265.0" y="645.0" type="curve" smooth="yes"/>
      <point x="304.0" y="645.0"/>
      <point x="348.0" y="647.0"/>
      <point x="382.0" y="647.0" type="curve" smooth="yes"/>
      <point x="528.5" y="647.0"/>
      <point x="561.9" y="588.1"/>
      <point x="561.9" y="529.9" type="curve" smooth="yes"/>
      <point x="561.9" y="517.4"/>
      <point x="560.3" y="504.9"/>
      <point x="558.0" y="493.0" type="curve" smooth="yes"/>
      <point x="548.0" y="439.0"/>
      <point x="496.0" y="387.0"/>
      <point x="443.0" y="362.0" type="curve"/>
      <point x="443.0" y="360.0" type="line"/>
      <point x="511.3" y="338.4"/>
      <point x="558.6" y="294.4"/>
      <point x="558.6" y="220.9" type="curve" smooth="yes"/>
      <point x="558.6" y="209.3"/>
      <point x="557.4" y="197.0"/>
      <point x="555.0" y="184.0" type="curve" smooth="yes"/>
      <point x="538.0" y="98.0"/>
      <point x="468.0" y="-2.0"/>
      <point x="277.0" y="-2.0" type="curve" smooth="yes"/>
      <point x="191.0" y="-2.0"/>
      <point x="178.0" y="0.0"/>
      <point x="140.0" y="0.0" type="curve" smooth="yes"/>
      <point x="102.0" y="0.0"/>
      <point x="63.0" y="-1.0"/>
      <point x="18.0" y="-2.0" type="curve"/>
      <point x="16.0" y="0.0" type="line"/>
    </contour>
  </outline>
</glyph>
<glyph name="C" format="2">
  <advance width="616"/>
  <unicode hex="0043"/>
  <anchor x="333.0" y="-110.0" name="below"/>
  <anchor x="356.0" y="-7.0" name="cedilla"/>
  <anchor x="500.0" y="850.0" name="above"/>
  <outline>
    <contour>
      <point x="338.0" y="-10.0" type="curve" smooth="yes"/>
      <point x="163.6" y="-10.0"/>
      <point x="88.8" y="107.6"/>
      <point x="88.8" y="241.4" type="curve" smooth="yes"/>
      <point x="88.8" y="265.6"/>
      <point x="91.2" y="290.3"/>
      <point x="96.0" y="315.0" type="curve" smooth="yes"/>
      <point x="134.0" y="512.0"/>
      <point x="310.0" y="658.0"/>
      <point x="469.0" y="658.0" type="curve" smooth="yes"/>
      <point x="587.0" y="658.0"/>
      <point x="616.0" y="616.0"/>
      <point x="670.0" y="613.0" type="curve"/>
      <point x="664.0" y="559.0"/>
      <point x="662.0" y="510.0"/>
      <point x="661.0" y="458.0" type="curve"/>
      <point x="632.0" y="454.0" type="line"/>
      <point x="624.0" y="540.0"/>
      <point x="584.0" y="621.0"/>
      <point x="451.0" y="621.0" type="curve" smooth="yes"/>
      <point x="375.0" y="621.0"/>
      <point x="223.0" y="537.0"/>
      <point x="183.0" y="334.0" type="curve" smooth="yes"/>
      <point x="177.6" y="305.9"/>
      <point x="174.8" y="277.4"/>
      <point x="174.8" y="249.7" type="curve" smooth="yes"/>
      <point x="174.8" y="133.4"/>
      <point x="224.7" y="31.0"/>
      <point x="345.0" y="31.0" type="curve" smooth="yes"/>
      <point x="434.0" y="31.0"/>
      <point x="506.0" y="62.0"/>
      <point x="589.0" y="140.0" type="curve"/>
      <point x="600.0" y="140.0"/>
      <point x="605.0" y="134.0"/>
      <point x="608.0" y="125.0" type="curve"/>
      <point x="526.0" y="36.0"/>
      <point x="431.0" y="-10.0"/>
    </contour>
  </outline>
</glyph>
<glyph name="F" format="2">
  <advance width="457"/>
  <unicode hex="0046"/>
  <anchor x="131.0" y="-111.0" name="below"/>
  <anchor x="145.0" y="-1.0" name="cedilla"/>
  <anchor x="406.0" y="850.0" name="above"/>
  <outline>
    <contour>
      <point x="359.0" y="323.0" type="curve" smooth="yes"/>
      <point x="237.0" y="323.0" type="line"/>
      <point x="189.0" y="74.0" type="line" smooth="yes"/>
      <point x="188.0" y="69.0"/>
      <point x="187.5" y="64.5"/>
      <point x="187.5" y="60.5" type="curve" smooth="yes"/>
      <point x="187.5" y="39.6"/>
      <point x="201.1" y="31.5"/>
      <point x="233.0" y="29.0" type="curve" smooth="yes"/>
      <point x="257.0" y="27.0" type="line" smooth="yes"/>
      <point x="262.0" y="27.0"/>
      <point x="265.0" y="24.0"/>
      <point x="264.0" y="19.0" type="curve" smooth="yes"/>
      <point x="260.0" y="0.0" type="line"/>
      <point x="258.0" y="-2.0" type="line"/>
      <point x="213.0" y="-1.0"/>
      <point x="174.0" y="0.0"/>
      <point x="135.0" y="0.0" type="curve" smooth="yes"/>
      <point x="98.0" y="0.0"/>
      <point x="59.0" y="-1.0"/>
      <point x="14.0" y="-2.0" type="curve"/>
      <point x="12.0" y="0.0" type="line"/>
      <point x="16.0" y="19.0" type="line" smooth="yes"/>
      <point x="17.0" y="24.0"/>
      <point x="20.0" y="27.0"/>
      <point x="25.0" y="27.0" type="curve" smooth="yes"/>
      <point x="51.0" y="29.0" type="line" smooth="yes"/>
      <point x="92.0" y="32.0"/>
      <point x="106.0" y="46.0"/>
      <point x="111.0" y="74.0" type="curve" smooth="yes"/>
      <point x="208.0" y="571.0" type="line" smooth="yes"/>
      <point x="209.1" y="576.5"/>
      <point x="209.6" y="581.3"/>
      <point x="209.6" y="585.6" type="curve" smooth="yes"/>
      <point x="209.6" y="605.6"/>
      <point x="197.5" y="613.5"/>
      <point x="167.0" y="616.0" type="curve" smooth="yes"/>
      <point x="139.0" y="618.0" type="line" smooth="yes"/>
      <point x="132.0" y="618.0"/>
      <point x="132.0" y="622.0"/>
      <point x="133.0" y="625.0" type="curve" smooth="yes"/>
      <point x="137.0" y="645.0" type="line"/>
      <point x="139.0" y="647.0" type="line"/>
      <point x="184.0" y="646.0"/>
      <point x="223.0" y="645.0"/>
      <point x="260.0" y="645.0" type="curve" smooth="yes"/>
      <point x="504.0" y="645.0" type="line" smooth="yes"/>
      <point x="527.0" y="645.0"/>
      <point x="532.0" y="646.0"/>
      <point x="550.0" y="649.0" type="curve" smooth="yes"/>
      <point x="552.0" y="649.0"/>
      <point x="553.0" y="648.0"/>
      <point x="553.0" y="646.0" type="curve" smooth="yes"/>
      <point x="553.0" y="638.0"/>
      <point x="548.0" y="542.0"/>
      <point x="545.0" y="501.0" type="curve"/>
      <point x="517.0" y="496.0" type="line"/>
      <point x="509.0" y="565.0"/>
      <point x="499.0" y="605.0"/>
      <point x="427.0" y="605.0" type="curve" smooth="yes"/>
      <point x="327.0" y="605.0" type="line" smooth="yes"/>
      <point x="304.0" y="605.0"/>
      <point x="290.0" y="595.0"/>
      <point x="285.0" y="571.0" type="curve" smooth="yes"/>
      <point x="245.0" y="361.0" type="line"/>
      <point x="367.0" y="361.0" type="line" smooth="yes"/>
      <point x="400.0" y="361.0"/>
      <point x="414.0" y="375.0"/>
      <point x="423.0" y="403.0" type="curve"/>
      <point x="430.0" y="428.0" type="line" smooth="yes"/>
      <point x="431.0" y="432.0"/>
      <point x="435.0" y="436.0"/>
      <point x="439.0" y="436.0" type="curve" smooth="yes"/>
      <point x="460.0" y="436.0" type="line"/>
      <point x="463.0" y="432.0" type="line"/>
      <point x="452.0" y="392.0"/>
      <point x="445.0" y="362.0"/>
      <point x="442.0" y="342.0" type="curve" smooth="yes"/>
      <point x="438.0" y="322.0"/>
      <point x="433.0" y="295.0"/>
      <point x="429.0" y="255.0" type="curve"/>
      <point x="424.0" y="252.0" type="line"/>
      <point x="403.0" y="252.0" type="line" smooth="yes"/>
      <point x="398.0" y="252.0"/>
      <point x="397.0" y="257.0"/>
      <point x="398.0" y="260.0" type="curve" smooth="yes"/>
      <point x="400.0" y="285.0" type="line" smooth="yes"/>
      <point x="400.3" y="288.0"/>
      <point x="400.5" y="290.8"/>
      <point x="400.5" y="293.4" type="curve" smooth="yes"/>
      <point x="400.5" y="315.8"/>
      <point x="388.6" y="323.0"/>
    </contour>
  </outline>
</glyph>
<glyph name="G" format="2">
  <advance width="664"/>
  <unicode hex="0047"/>
  <anchor x="345.0" y="-110.0" name="below"/>
  <anchor x="365.0" y="2.0" name="cedilla"/>
  <anchor x="513.0" y="850.0" name="above"/>
  <outline>
    <contour>
      <point x="487.0" y="658.0" type="curve" smooth="yes"/>
      <point x="604.0" y="658.0"/>
      <point x="630.0" y="613.0"/>
      <point x="688.0" y="613.0" type="curve"/>
      <point x="681.0" y="541.0"/>
      <point x="679.0" y="501.0"/>
      <point x="679.0" y="459.0" type="curve"/>
      <point x="649.0" y="453.0" type="line"/>
      <point x="641.0" y="539.0"/>
      <point x="606.0" y="621.0"/>
      <point x="467.0" y="621.0" type="curve" smooth="yes"/>
      <point x="337.0" y="621.0"/>
      <point x="211.0" y="502.0"/>
      <point x="177.0" y="327.0" type="curve" smooth="yes"/>
      <point x="173.4" y="307.8"/>
      <point x="171.5" y="287.9"/>
      <point x="171.5" y="267.8" type="curve" smooth="yes"/>
      <point x="171.5" y="149.5"/>
      <point x="235.8" y="26.0"/>
      <point x="382.0" y="26.0" type="curve" smooth="yes"/>
      <point x="434.0" y="26.0"/>
      <point x="493.0" y="42.0"/>
      <point x="532.0" y="74.0" type="curve"/>
      <point x="562.0" y="227.0" type="line" smooth="yes"/>
      <point x="562.9" y="231.8"/>
      <point x="563.4" y="236.0"/>
      <point x="563.4" y="239.8" type="curve" smooth="yes"/>
      <point x="563.4" y="260.4"/>
      <point x="549.1" y="266.5"/>
      <point x="517.0" y="269.0" type="curve" smooth="yes"/>
      <point x="493.0" y="271.0" type="line" smooth="yes"/>
      <point x="489.0" y="271.0"/>
      <point x="486.0" y="274.0"/>
      <point x="487.0" y="279.0" type="curve" smooth="yes"/>
      <point x="492.0" y="305.0" type="line"/>
      <point x="494.0" y="307.0" type="line"/>
      <point x="539.0" y="306.0"/>
      <point x="578.0" y="305.0"/>
      <point x="615.0" y="305.0" type="curve" smooth="yes"/>
      <point x="654.0" y="305.0"/>
      <point x="675.0" y="306.0"/>
      <point x="704.0" y="307.0" type="curve"/>
      <point x="706.0" y="305.0" type="line"/>
      <point x="701.0" y="279.0" type="line" smooth="yes"/>
      <point x="700.0" y="274.0"/>
      <point x="696.0" y="272.0"/>
      <point x="691.0" y="271.0" type="curve" smooth="yes"/>
      <point x="663.0" y="268.0"/>
      <point x="646.0" y="262.0"/>
      <point x="640.0" y="227.0" type="curve" smooth="yes"/>
      <point x="617.0" y="111.0" type="line" smooth="yes"/>
      <point x="615.0" y="100.0"/>
      <point x="618.0" y="92.0"/>
      <point x="627.0" y="83.0" type="curve"/>
      <point x="550.0" y="25.0"/>
      <point x="466.0" y="-10.0"/>
      <point x="353.0" y="-10.0" type="curve" smooth="yes"/>
      <point x="184.3" y="-10.0"/>
      <point x="83.6" y="100.0"/>
      <point x="83.6" y="243.2" type="curve" smooth="yes"/>
      <point x="83.6" y="263.8"/>
      <point x="85.7" y="285.2"/>
      <point x="90.0" y="307.0" type="curve" smooth="yes"/>
      <point x="133.0" y="527.0"/>
      <point x="322.0" y="658.0"/>
    </contour>
  </outline>
</glyph>
<glyph name="I" format="2">
  <advance width="280"/>
  <unicode hex="0049"/>
  <anchor x="127.0" y="-109.0" name="below"/>
  <anchor x="145.0" y="1.0" name="cedilla"/>
  <anchor x="316.0" y="850.0" name="above"/>
  <outline>
    <contour>
      <point x="213.0" y="569.0" type="line" smooth="yes"/>
      <point x="218.9" y="598.8"/>
      <point x="207.9" y="611.6"/>
      <point x="169.0" y="615.0" type="curve" smooth="yes"/>
      <point x="135.0" y="618.0" type="line"/>
      <point x="132.0" y="623.0"/>
      <point x="135.0" y="643.0"/>
      <point x="138.0" y="647.0" type="curve"/>
      <point x="182.0" y="646.0"/>
      <point x="227.0" y="645.0"/>
      <point x="265.0" y="645.0" type="curve" smooth="yes"/>
      <point x="304.0" y="645.0"/>
      <point x="340.0" y="646.0"/>
      <point x="385.0" y="647.0" type="curve"/>
      <point x="389.0" y="638.0"/>
      <point x="387.0" y="622.0"/>
      <point x="383.0" y="618.0" type="curve"/>
      <point x="352.0" y="615.0" type="line" smooth="yes"/>
      <point x="311.0" y="611.0"/>
      <point x="296.0" y="597.0"/>
      <point x="290.0" y="569.0" type="curve" smooth="yes"/>
      <point x="193.0" y="76.0" type="line" smooth="yes"/>
      <point x="187.0" y="45.5"/>
      <point x="198.1" y="33.4"/>
      <point x="237.0" y="30.0" type="curve" smooth="yes"/>
      <point x="271.0" y="27.0" type="line"/>
      <point x="274.0" y="22.0"/>
      <point x="271.0" y="2.0"/>
      <point x="268.0" y="-2.0" type="curve"/>
      <point x="224.0" y="-1.0"/>
      <point x="179.0" y="0.0"/>
      <point x="141.0" y="0.0" type="curve" smooth="yes"/>
      <point x="102.0" y="0.0"/>
      <point x="66.0" y="-1.0"/>
      <point x="21.0" y="-2.0" type="curve"/>
      <point x="17.0" y="7.0"/>
      <point x="19.0" y="23.0"/>
      <point x="23.0" y="27.0" type="curve"/>
      <point x="54.0" y="30.0" type="line" smooth="yes"/>
      <point x="94.7" y="33.9"/>
      <point x="110.4" y="47.8"/>
      <point x="116.0" y="76.0" type="curve" smooth="yes"/>
    </contour>
  </outline>
</glyph>
<glyph name="J" format="2">
  <advance width="414"/>
  <unicode hex="004A"/>
  <anchor x="392" y="850" name="above"/>
  <anchor x="109" y="-319" name="below"/>
  <outline>
    <contour>
      <point x="435" y="580" type="curve"/>
      <point x="428" y="539"/>
      <point x="407" y="386"/>
      <point x="407" y="360" type="curve" smooth="yes"/>
      <point x="407" y="338"/>
      <point x="420" y="336"/>
      <point x="453" y="333" type="curve"/>
      <point x="450" y="308" type="line"/>
      <point x="397" y="303" type="line"/>
      <point x="368" y="128" type="line" smooth="yes"/>
      <point x="328" y="-111"/>
      <point x="237" y="-200"/>
      <point x="127" y="-200" type="curve" smooth="yes"/>
      <point x="81" y="-200"/>
      <point x="31" y="-177"/>
      <point x="31" y="-141" type="curve" smooth="yes"/>
      <point x="31" y="-126"/>
      <point x="42" y="-101"/>
      <point x="69" y="-101" type="curve" smooth="yes"/>
      <point x="91" y="-101"/>
      <point x="104" y="-107"/>
      <point x="116" y="-124" type="curve" smooth="yes"/>
      <point x="129" y="-143"/>
      <point x="125" y="-165"/>
      <point x="141" y="-165" type="curve" smooth="yes"/>
      <point x="206" y="-165"/>
      <point x="255" y="-68"/>
      <point x="284" y="106" type="curve" smooth="yes"/>
      <point x="317" y="302" type="line"/>
      <point x="194" y="311" type="line"/>
      <point x="194" y="331" type="line"/>
      <point x="323" y="338" type="line"/>
      <point x="325" y="350" type="line" smooth="yes"/>
      <point x="342" y="451"/>
      <point x="354" y="495"/>
      <point x="387" y="567" type="curve"/>
      <point x="386" y="571" type="line"/>
      <point x="382" y="569"/>
      <point x="376" y="568"/>
      <point x="370" y="568" type="curve" smooth="yes"/>
      <point x="353" y="568"/>
      <point x="331" y="574"/>
      <point x="317" y="580" type="curve" smooth="yes"/>
      <point x="272" y="598"/>
      <point x="240" y="622"/>
      <point x="197" y="622" type="curve" smooth="yes"/>
      <point x="175" y="622"/>
      <point x="160" y="607"/>
      <point x="160" y="594" type="curve" smooth="yes"/>
      <point x="160" y="584"/>
      <point x="192" y="570"/>
      <point x="192" y="545" type="curve" smooth="yes"/>
      <point x="192" y="524"/>
      <point x="180" y="514"/>
      <point x="159" y="514" type="curve" smooth="yes"/>
      <point x="134" y="514"/>
      <point x="122" y="532"/>
      <point x="122" y="558" type="curve" smooth="yes"/>
      <point x="122" y="598"/>
      <point x="158" y="663"/>
      <point x="255" y="663" type="curve" smooth="yes"/>
      <point x="299" y="663"/>
      <point x="360" y="633"/>
      <point x="403" y="613" type="curve"/>
      <point x="407" y="638"/>
      <point x="426" y="677"/>
      <point x="459" y="677" type="curve" smooth="yes"/>
      <point x="480" y="677"/>
      <point x="496" y="670"/>
      <point x="496" y="649" type="curve" smooth="yes"/>
      <point x="496" y="625"/>
      <point x="462" y="598"/>
    </contour>
  </outline>
</glyph>
<glyph name="K" format="2">
  <advance width="637"/>
  <unicode hex="004B"/>
  <anchor x="292.0" y="-110.0" name="below"/>
  <anchor x="148.0" y="-1.0" name="cedilla"/>
  <anchor x="466.0" y="850.0" name="above"/>
  <outline>
    <contour>
      <point x="213.0" y="569.0" type="line" smooth="yes"/>
      <point x="218.9" y="598.8"/>
      <point x="207.9" y="611.6"/>
      <point x="169.0" y="615.0" type="curve" smooth="yes"/>
      <point x="135.0" y="618.0" type="line"/>
      <point x="132.0" y="623.0"/>
      <point x="135.0" y="643.0"/>
      <point x="138.0" y="647.0" type="curve"/>
      <point x="182.0" y="646.0"/>
      <point x="227.0" y="645.0"/>
      <point x="265.0" y="645.0" type="curve" smooth="yes"/>
      <point x="304.0" y="645.0"/>
      <point x="340.0" y="646.0"/>
      <point x="385.0" y="647.0" type="curve"/>
      <point x="389.0" y="638.0"/>
      <point x="387.0" y="622.0"/>
      <point x="383.0" y="618.0" type="curve"/>
      <point x="352.0" y="615.0" type="line" smooth="yes"/>
      <point x="311.0" y="611.0"/>
      <point x="296.0" y="597.0"/>
      <point x="290.0" y="569.0" type="curve" smooth="yes"/>
      <point x="246.3" y="347.0" type="line"/>
      <point x="283.1" y="349.1"/>
      <point x="307.1" y="364.1"/>
      <point x="331.0" y="386.0" type="curve" smooth="yes"/>
      <point x="527.0" y="562.0" type="line" smooth="yes"/>
      <point x="545.3" y="579.2"/>
      <point x="556.2" y="592.6"/>
      <point x="556.2" y="601.9" type="curve" smooth="yes"/>
      <point x="556.2" y="609.4"/>
      <point x="549.1" y="614.2"/>
      <point x="533.0" y="616.0" type="curve" smooth="yes"/>
      <point x="514.0" y="618.0" type="line" smooth="yes"/>
      <point x="510.0" y="618.0"/>
      <point x="507.0" y="621.0"/>
      <point x="508.0" y="626.0" type="curve" smooth="yes"/>
      <point x="511.0" y="645.0" type="line"/>
      <point x="514.0" y="647.0" type="line"/>
      <point x="559.0" y="646.0"/>
      <point x="586.0" y="645.0"/>
      <point x="625.0" y="645.0" type="curve" smooth="yes"/>
      <point x="663.0" y="645.0"/>
      <point x="674.0" y="646.0"/>
      <point x="719.0" y="647.0" type="curve"/>
      <point x="722.0" y="645.0" type="line"/>
      <point x="718.0" y="626.0" type="line" smooth="yes"/>
      <point x="717.0" y="621.0"/>
      <point x="711.0" y="618.0"/>
      <point x="706.0" y="618.0" type="curve" smooth="yes"/>
      <point x="666.0" y="613.0"/>
      <point x="628.0" y="607.0"/>
      <point x="574.0" y="558.0" type="curve" smooth="yes"/>
      <point x="410.0" y="407.0" type="line" smooth="yes"/>
      <point x="372.0" y="372.0"/>
      <point x="367.0" y="365.0"/>
      <point x="365.0" y="358.0" type="curve"/>
      <point x="364.0" y="350.0"/>
      <point x="365.0" y="343.0"/>
      <point x="372.0" y="333.0" type="curve" smooth="yes"/>
      <point x="532.0" y="73.0" type="line" smooth="yes"/>
      <point x="550.0" y="42.0"/>
      <point x="571.0" y="32.0"/>
      <point x="598.0" y="28.0" type="curve" smooth="yes"/>
      <point x="604.0" y="27.0" type="line" smooth="yes"/>
      <point x="608.0" y="26.0"/>
      <point x="612.0" y="24.0"/>
      <point x="611.0" y="19.0" type="curve" smooth="yes"/>
      <point x="608.0" y="0.0" type="line"/>
      <point x="604.0" y="-2.0" type="line"/>
      <point x="559.0" y="-1.0"/>
      <point x="542.0" y="0.0"/>
      <point x="505.0" y="0.0" type="curve" smooth="yes"/>
      <point x="476.0" y="0.0"/>
      <point x="457.0" y="-1.0"/>
      <point x="437.0" y="-2.0" type="curve"/>
      <point x="436.0" y="0.0" type="line"/>
      <point x="437.0" y="6.0" type="line" smooth="yes"/>
      <point x="438.9" y="14.5"/>
      <point x="440.8" y="24.3"/>
      <point x="440.8" y="34.9" type="curve" smooth="yes"/>
      <point x="440.8" y="46.8"/>
      <point x="438.4" y="59.8"/>
      <point x="431.0" y="73.0" type="curve" smooth="yes"/>
      <point x="313.0" y="271.0" type="line" smooth="yes"/>
      <point x="298.0" y="298.0"/>
      <point x="273.0" y="309.0"/>
      <point x="239.0" y="309.0" type="curve"/>
      <point x="241.3" y="321.5" type="line"/>
      <point x="193.0" y="76.0" type="line" smooth="yes"/>
      <point x="187.0" y="45.5"/>
      <point x="198.1" y="33.4"/>
      <point x="237.0" y="30.0" type="curve" smooth="yes"/>
      <point x="271.0" y="27.0" type="line"/>
      <point x="274.0" y="22.0"/>
      <point x="271.0" y="2.0"/>
      <point x="268.0" y="-2.0" type="curve"/>
      <point x="224.0" y="-1.0"/>
      <point x="179.0" y="0.0"/>
      <point x="141.0" y="0.0" type="curve" smooth="yes"/>
      <point x="102.0" y="0.0"/>
      <point x="66.0" y="-1.0"/>
      <point x="21.0" y="-2.0" type="curve"/>
      <point x="17.0" y="7.0"/>
      <point x="19.0" y="23.0"/>
      <point x="23.0" y="27.0" type="curve"/>
      <point x="54.0" y="30.0" type="line" smooth="yes"/>
      <point x="94.7" y="33.9"/>
      <point x="110.4" y="47.8"/>
      <point x="116.0" y="76.0" type="curve" smooth="yes"/>
    </contour>
  </outline>
</glyph>
<glyph name="L" format="2">
  <advance width="519"/>
  <unicode hex="004C"/>
  <anchor x="389" y="850" name="above"/>
  <anchor x="252" y="-110" name="below"/>
  <anchor x="260" y="1" name="cedilla"/>
  <outline>
    <contour>
      <point x="117" y="76" type="line" smooth="yes"/>
      <point x="213" y="569" type="line" smooth="yes"/>
      <point x="219" y="599"/>
      <point x="208" y="612"/>
      <point x="169" y="615" type="curve" smooth="yes"/>
      <point x="135" y="618" type="line"/>
      <point x="132" y="623"/>
      <point x="135" y="643"/>
      <point x="138" y="647" type="curve"/>
      <point x="182" y="646"/>
      <point x="227" y="645"/>
      <point x="265" y="645" type="curve" smooth="yes"/>
      <point x="304" y="645"/>
      <point x="340" y="646"/>
      <point x="385" y="647" type="curve"/>
      <point x="389" y="638"/>
      <point x="387" y="622"/>
      <point x="383" y="618" type="curve"/>
      <point x="352" y="615" type="line" smooth="yes"/>
      <point x="311" y="611"/>
      <point x="296" y="597"/>
      <point x="290" y="569" type="curve" smooth="yes"/>
      <point x="196" y="89" type="line" smooth="yes"/>
      <point x="195" y="84"/>
      <point x="195" y="80"/>
      <point x="195" y="76" type="curve" smooth="yes"/>
      <point x="195" y="53"/>
      <point x="208" y="39"/>
      <point x="232" y="39" type="curve" smooth="yes"/>
      <point x="342" y="39" type="line" smooth="yes"/>
      <point x="415" y="39"/>
      <point x="461" y="109"/>
      <point x="489" y="170" type="curve"/>
      <point x="499" y="172"/>
      <point x="511" y="169"/>
      <point x="517" y="163" type="curve"/>
      <point x="496" y="111"/>
      <point x="474" y="54"/>
      <point x="459" y="-2" type="curve"/>
      <point x="459" y="-2"/>
      <point x="371" y="0"/>
      <point x="345" y="0" type="curve" smooth="yes"/>
      <point x="142" y="0" type="line" smooth="yes"/>
      <point x="103" y="0"/>
      <point x="67" y="-1"/>
      <point x="22" y="-2" type="curve"/>
      <point x="18" y="7"/>
      <point x="20" y="23"/>
      <point x="24" y="27" type="curve"/>
      <point x="55" y="30" type="line" smooth="yes"/>
      <point x="96" y="34"/>
      <point x="112" y="48"/>
      <point x="117" y="76" type="curve" smooth="yes"/>
    </contour>
  </outline>
</glyph>
<glyph name="M" format="2">
  <advance width="804"/>
  <unicode hex="004D"/>
  <anchor x="363.0" y="-110.0" name="below"/>
  <anchor x="109.0" y="2.0" name="cedilla"/>
  <anchor x="557.0" y="850.0" name="above"/>
  <outline>
    <contour>
      <point x="655.0" y="87.0" type="curve" smooth="yes"/>
      <point x="715.0" y="534.0" type="line"/>
      <point x="713.0" y="534.0" type="line"/>
      <point x="394.0" y="5.0" type="line" smooth="yes"/>
      <point x="389.0" y="-3.0"/>
      <point x="384.0" y="-6.0"/>
      <point x="379.0" y="-6.0" type="curve" smooth="yes"/>
      <point x="373.0" y="-6.0"/>
      <point x="368.0" y="-2.0"/>
      <point x="366.0" y="5.0" type="curve" smooth="yes"/>
      <point x="269.0" y="524.0" type="line"/>
      <point x="267.0" y="524.0" type="line"/>
      <point x="141.0" y="86.0" type="line" smooth="yes"/>
      <point x="138.4" y="76.8"/>
      <point x="136.9" y="67.9"/>
      <point x="136.9" y="59.9" type="curve" smooth="yes"/>
      <point x="136.9" y="42.9"/>
      <point x="143.9" y="30.4"/>
      <point x="163.0" y="29.0" type="curve" smooth="yes"/>
      <point x="187.0" y="27.0" type="line" smooth="yes"/>
      <point x="192.0" y="27.0"/>
      <point x="195.3" y="24.1"/>
      <point x="195.0" y="19.0" type="curve" smooth="yes"/>
      <point x="194.0" y="0.0" type="line"/>
      <point x="191.0" y="-2.0" type="line"/>
      <point x="163.0" y="-1.0"/>
      <point x="126.0" y="0.0"/>
      <point x="103.0" y="0.0" type="curve" smooth="yes"/>
      <point x="80.0" y="0.0"/>
      <point x="47.0" y="-1.0"/>
      <point x="18.0" y="-2.0" type="curve"/>
      <point x="16.0" y="0.0" type="line"/>
      <point x="18.0" y="19.0" type="line" smooth="yes"/>
      <point x="18.5" y="24.1"/>
      <point x="22.0" y="27.0"/>
      <point x="28.0" y="27.0" type="curve" smooth="yes"/>
      <point x="54.0" y="29.0" type="line" smooth="yes"/>
      <point x="84.0" y="31.0"/>
      <point x="97.0" y="59.0"/>
      <point x="104.0" y="86.0" type="curve" smooth="yes"/>
      <point x="245.0" y="574.0" type="line" smooth="yes"/>
      <point x="247.1" y="581.8"/>
      <point x="248.4" y="588.3"/>
      <point x="248.4" y="593.7" type="curve" smooth="yes"/>
      <point x="248.4" y="608.3"/>
      <point x="239.2" y="614.3"/>
      <point x="216.0" y="616.0" type="curve" smooth="yes"/>
      <point x="189.0" y="618.0" type="line" smooth="yes"/>
      <point x="182.0" y="618.0"/>
      <point x="180.6" y="620.8"/>
      <point x="181.0" y="625.0" type="curve" smooth="yes"/>
      <point x="183.0" y="645.0" type="line"/>
      <point x="185.0" y="647.0" type="line"/>
      <point x="329.0" y="646.0" type="line"/>
      <point x="427.0" y="137.0" type="line" smooth="yes"/>
      <point x="428.0" y="128.0"/>
      <point x="429.0" y="124.0"/>
      <point x="432.0" y="124.0" type="curve" smooth="yes"/>
      <point x="434.0" y="124.0"/>
      <point x="437.0" y="128.0"/>
      <point x="443.0" y="138.0" type="curve" smooth="yes"/>
      <point x="746.0" y="647.0" type="line"/>
      <point x="872.0" y="647.0" type="line"/>
      <point x="874.0" y="645.0" type="line"/>
      <point x="872.0" y="625.0" type="line" smooth="yes"/>
      <point x="871.3" y="618.5"/>
      <point x="864.8" y="618.4"/>
      <point x="860.0" y="618.0" type="curve" smooth="yes"/>
      <point x="834.0" y="616.0" type="line" smooth="yes"/>
      <point x="805.0" y="614.0"/>
      <point x="792.0" y="600.0"/>
      <point x="789.0" y="574.0" type="curve" smooth="yes"/>
      <point x="728.0" y="87.0" type="line" smooth="yes"/>
      <point x="727.0" y="79.1"/>
      <point x="726.3" y="71.6"/>
      <point x="726.3" y="64.9" type="curve" smooth="yes"/>
      <point x="726.3" y="44.4"/>
      <point x="732.2" y="30.8"/>
      <point x="756.0" y="29.0" type="curve" smooth="yes"/>
      <point x="782.0" y="27.0" type="line" smooth="yes"/>
      <point x="788.0" y="26.5"/>
      <point x="791.5" y="24.2"/>
      <point x="791.0" y="19.0" type="curve" smooth="yes"/>
      <point x="789.0" y="0.0" type="line"/>
      <point x="787.0" y="-2.0" type="line"/>
      <point x="742.0" y="-1.0"/>
      <point x="708.0" y="0.0"/>
      <point x="679.0" y="0.0" type="curve" smooth="yes"/>
      <point x="651.0" y="0.0"/>
      <point x="622.0" y="-1.0"/>
      <point x="576.0" y="-2.0" type="curve"/>
      <point x="574.0" y="0.0" type="line"/>
      <point x="576.0" y="19.0" type="line" smooth="yes"/>
      <point x="576.5" y="24.0"/>
      <point x="581.5" y="26.7"/>
      <point x="586.0" y="27.0" type="curve" smooth="yes"/>
      <point x="612.0" y="29.0" type="line" smooth="yes"/>
      <point x="638.7" y="31.1"/>
      <point x="652.0" y="61.0"/>
    </contour>
  </outline>
</glyph>
<glyph name="N" format="2">
  <advance width="666"/>
  <unicode hex="004E"/>
  <anchor x="328.0" y="-109.0" name="below"/>
  <anchor x="127.0" y="-4.0" name="cedilla"/>
  <anchor x="476.0" y="850.0" name="above"/>
  <outline>
    <contour>
      <point x="687.0" y="557.0" type="curve" smooth="yes"/>
      <point x="583.0" y="21.0" type="line" smooth="yes"/>
      <point x="579.0" y="2.0"/>
      <point x="570.0" y="-10.0"/>
      <point x="557.0" y="-10.0" type="curve" smooth="yes"/>
      <point x="541.0" y="-10.0"/>
      <point x="530.0" y="-1.0"/>
      <point x="523.0" y="14.0" type="curve"/>
      <point x="274.0" y="455.0" type="line" smooth="yes"/>
      <point x="261.0" y="477.0"/>
      <point x="253.0" y="488.0"/>
      <point x="247.0" y="488.0" type="curve" smooth="yes"/>
      <point x="240.0" y="488.0"/>
      <point x="235.0" y="473.0"/>
      <point x="228.0" y="439.0" type="curve" smooth="yes"/>
      <point x="160.0" y="88.0" type="line" smooth="yes"/>
      <point x="158.9" y="82.7"/>
      <point x="158.4" y="77.5"/>
      <point x="158.4" y="72.6" type="curve" smooth="yes"/>
      <point x="158.4" y="49.6"/>
      <point x="170.5" y="31.4"/>
      <point x="201.0" y="29.0" type="curve" smooth="yes"/>
      <point x="226.0" y="27.0" type="line" smooth="yes"/>
      <point x="230.5" y="26.6"/>
      <point x="232.6" y="24.5"/>
      <point x="232.0" y="19.0" type="curve" smooth="yes"/>
      <point x="230.0" y="0.0" type="line"/>
      <point x="228.0" y="-2.0" type="line"/>
      <point x="183.0" y="-1.0"/>
      <point x="148.0" y="0.0"/>
      <point x="124.0" y="0.0" type="curve" smooth="yes"/>
      <point x="100.0" y="0.0"/>
      <point x="59.0" y="-1.0"/>
      <point x="14.0" y="-2.0" type="curve"/>
      <point x="12.0" y="0.0" type="line"/>
      <point x="14.0" y="18.0" type="line" smooth="yes"/>
      <point x="14.5" y="22.9"/>
      <point x="19.1" y="26.3"/>
      <point x="28.0" y="27.0" type="curve" smooth="yes"/>
      <point x="53.0" y="29.0" type="line" smooth="yes"/>
      <point x="92.5" y="32.2"/>
      <point x="111.0" y="61.0"/>
      <point x="117.0" y="88.0" type="curve" smooth="yes"/>
      <point x="207.0" y="550.0" type="line"/>
      <point x="206.0" y="576.0"/>
      <point x="185.0" y="615.0"/>
      <point x="154.0" y="618.0" type="curve" smooth="yes"/>
      <point x="147.0" y="619.0"/>
      <point x="139.5" y="621.0"/>
      <point x="140.0" y="626.0" type="curve" smooth="yes"/>
      <point x="142.0" y="645.0" type="line"/>
      <point x="145.0" y="647.0" type="line"/>
      <point x="277.0" y="647.0" type="line"/>
      <point x="520.0" y="203.0" type="line" smooth="yes"/>
      <point x="541.0" y="166.0"/>
      <point x="550.0" y="148.0"/>
      <point x="558.0" y="148.0" type="curve" smooth="yes"/>
      <point x="564.0" y="148.0"/>
      <point x="566.0" y="159.0"/>
      <point x="570.0" y="178.0" type="curve" smooth="yes"/>
      <point x="644.0" y="557.0" type="line" smooth="yes"/>
      <point x="644.9" y="562.1"/>
      <point x="645.5" y="567.3"/>
      <point x="645.5" y="572.4" type="curve" smooth="yes"/>
      <point x="645.5" y="594.1"/>
      <point x="635.4" y="613.6"/>
      <point x="603.0" y="616.0" type="curve" smooth="yes"/>
      <point x="579.0" y="618.0" type="line" smooth="yes"/>
      <point x="574.2" y="618.4"/>
      <point x="566.3" y="621.5"/>
      <point x="567.0" y="626.0" type="curve" smooth="yes"/>
      <point x="570.0" y="645.0" type="line"/>
      <point x="572.0" y="647.0" type="line"/>
      <point x="617.0" y="646.0"/>
      <point x="658.0" y="645.0"/>
      <point x="682.0" y="645.0" type="curve" smooth="yes"/>
      <point x="705.0" y="645.0"/>
      <point x="741.0" y="646.0"/>
      <point x="786.0" y="647.0" type="curve"/>
      <point x="788.0" y="645.0" type="line"/>
      <point x="786.0" y="626.0" type="line" smooth="yes"/>
      <point x="785.5" y="621.2"/>
      <point x="779.8" y="618.2"/>
      <point x="777.0" y="618.0" type="curve" smooth="yes"/>
      <point x="750.0" y="616.0" type="line" smooth="yes"/>
      <point x="712.0" y="613.0"/>
      <point x="693.0" y="587.0"/>
    </contour>
  </outline>
</glyph>
<glyph name="O" format="2">
  <advance width="668"/>
  <unicode hex="004F"/>
  <anchor x="310.0" y="-113.0" name="below"/>
  <anchor x="350.0" y="0.0" name="cedilla"/>
  <anchor x="515.0" y="850.0" name="above"/>
  <anchor x="730.0" y="606.0" name="komb_OR"/>
  <outline>
    <contour>
      <point x="436.0" y="624.0" type="curve" smooth="yes"/>
      <point x="349.0" y="624.0"/>
      <point x="227.0" y="537.0"/>
      <point x="187.0" y="327.0" type="curve" smooth="yes"/>
      <point x="181.1" y="297.2"/>
      <point x="178.3" y="269.5"/>
      <point x="178.3" y="243.7" type="curve" smooth="yes"/>
      <point x="178.3" y="103.3"/>
      <point x="259.8" y="24.0"/>
      <point x="357.0" y="24.0" type="curve" smooth="yes"/>
      <point x="467.0" y="24.0"/>
      <point x="572.0" y="131.0"/>
      <point x="607.0" y="310.0" type="curve" smooth="yes"/>
      <point x="614.0" y="346.5"/>
      <point x="617.3" y="379.9"/>
      <point x="617.3" y="410.1" type="curve" smooth="yes"/>
      <point x="617.3" y="552.0"/>
      <point x="544.0" y="624.0"/>
    </contour>
    <contour>
      <point x="699.0" y="329.0" type="curve" smooth="yes"/>
      <point x="660.0" y="129.0"/>
      <point x="515.0" y="-10.0"/>
      <point x="331.0" y="-10.0" type="curve" smooth="yes"/>
      <point x="188.3" y="-10.0"/>
      <point x="87.4" y="82.0"/>
      <point x="87.4" y="234.4" type="curve" smooth="yes"/>
      <point x="87.4" y="258.2"/>
      <point x="89.9" y="283.4"/>
      <point x="95.0" y="310.0" type="curve" smooth="yes"/>
      <point x="133.0" y="506.0"/>
      <point x="284.0" y="658.0"/>
      <point x="455.0" y="658.0" type="curve" smooth="yes"/>
      <point x="601.1" y="658.0"/>
      <point x="706.3" y="558.9"/>
      <point x="706.3" y="402.9" type="curve" smooth="yes"/>
      <point x="706.3" y="379.5"/>
      <point x="704.0" y="354.8"/>
    </contour>
  </outline>
</glyph>
<glyph name="P" format="2">
  <advance width="499"/>
  <unicode hex="0050"/>
  <anchor x="426" y="850" name="above"/>
  <anchor x="140" y="-110" name="below"/>
  <anchor x="150" y="-3" name="cedilla"/>
  <outline>
    <contour>
      <point x="291" y="574" type="curve" smooth="yes"/>
      <point x="242" y="321" type="line"/>
      <point x="252" y="318"/>
      <point x="285" y="316"/>
      <point x="309" y="316" type="curve" smooth="yes"/>
      <point x="402" y="316"/>
      <point x="462" y="360"/>
      <point x="483" y="468" type="curve" smooth="yes"/>
      <point x="487" y="488"/>
      <point x="489" y="505"/>
      <point x="489" y="520" type="curve" smooth="yes"/>
      <point x="489" y="602"/>
      <point x="435" y="620"/>
      <point x="378" y="620" type="curve" smooth="yes"/>
      <point x="309" y="620"/>
      <point x="296" y="603"/>
    </contour>
    <contour>
      <point x="115" y="71" type="curve" smooth="yes"/>
      <point x="213" y="574" type="line" smooth="yes"/>
      <point x="214" y="577"/>
      <point x="214" y="581"/>
      <point x="214" y="584" type="curve" smooth="yes"/>
      <point x="214" y="608"/>
      <point x="193" y="615"/>
      <point x="179" y="616" type="curve" smooth="yes"/>
      <point x="142" y="618" type="line" smooth="yes"/>
      <point x="138" y="618"/>
      <point x="136" y="620"/>
      <point x="137" y="624" type="curve" smooth="yes"/>
      <point x="141" y="645" type="line"/>
      <point x="144" y="647" type="line"/>
      <point x="179" y="646"/>
      <point x="228" y="645"/>
      <point x="266" y="645" type="curve" smooth="yes"/>
      <point x="305" y="645"/>
      <point x="367" y="654"/>
      <point x="392" y="654" type="curve" smooth="yes"/>
      <point x="540" y="654"/>
      <point x="574" y="577"/>
      <point x="574" y="518" type="curve" smooth="yes"/>
      <point x="574" y="506"/>
      <point x="573" y="496"/>
      <point x="571" y="486" type="curve" smooth="yes"/>
      <point x="555" y="401"/>
      <point x="482" y="282"/>
      <point x="307" y="282" type="curve" smooth="yes"/>
      <point x="273" y="282"/>
      <point x="256" y="285"/>
      <point x="236" y="292" type="curve"/>
      <point x="193" y="71" type="line" smooth="yes"/>
      <point x="192" y="66"/>
      <point x="192" y="62"/>
      <point x="192" y="58" type="curve" smooth="yes"/>
      <point x="192" y="38"/>
      <point x="206" y="31"/>
      <point x="237" y="29" type="curve" smooth="yes"/>
      <point x="272" y="27" type="line" smooth="yes"/>
      <point x="276" y="27"/>
      <point x="279" y="24"/>
      <point x="278" y="19" type="curve" smooth="yes"/>
      <point x="274" y="0" type="line"/>
      <point x="272" y="-2" type="line"/>
      <point x="227" y="-1"/>
      <point x="179" y="0"/>
      <point x="141" y="0" type="curve" smooth="yes"/>
      <point x="101" y="0"/>
      <point x="53" y="-1"/>
      <point x="18" y="-2" type="curve"/>
      <point x="16" y="0" type="line"/>
      <point x="20" y="19" type="line" smooth="yes"/>
      <point x="21" y="24"/>
      <point x="24" y="27"/>
      <point x="29" y="27" type="curve" smooth="yes"/>
      <point x="54" y="29" type="line" smooth="yes"/>
      <point x="93" y="32"/>
      <point x="110" y="43"/>
    </contour>
  </outline>
</glyph>
<glyph name="Q" format="2">
  <advance width="668"/>
  <unicode hex="0051"/>
  <anchor x="498.0" y="850.0" name="above"/>
  <anchor x="720.0" y="606.0" name="komb_OR"/>
  <outline>
    <contour>
      <point x="436.0" y="624.0" type="curve" smooth="yes"/>
      <point x="349.0" y="624.0"/>
      <point x="227.0" y="537.0"/>
      <point x="187.0" y="327.0" type="curve" smooth="yes"/>
      <point x="181.1" y="297.2"/>
      <point x="178.3" y="269.5"/>
      <point x="178.3" y="243.7" type="curve" smooth="yes"/>
      <point x="178.3" y="103.3"/>
      <point x="259.8" y="24.0"/>
      <point x="357.0" y="24.0" type="curve" smooth="yes"/>
      <point x="467.0" y="24.0"/>
      <point x="572.0" y="131.0"/>
      <point x="607.0" y="310.0" type="curve" smooth="yes"/>
      <point x="614.0" y="346.5"/>
      <point x="617.3" y="379.9"/>
      <point x="617.3" y="410.1" type="curve" smooth="yes"/>
      <point x="617.3" y="552.0"/>
      <point x="544.0" y="624.0"/>
    </contour>
    <contour>
      <point x="126.9" y="-128.4" type="curve" smooth="yes"/>
      <point x="169.5" y="-85.9"/>
      <point x="230.9" y="-39.5"/>
      <point x="294.5" y="-7.9" type="curve"/>
      <point x="171.3" y="6.6"/>
      <point x="87.4" y="95.3"/>
      <point x="87.4" y="234.4" type="curve" smooth="yes"/>
      <point x="87.4" y="258.2"/>
      <point x="89.9" y="283.4"/>
      <point x="95.0" y="310.0" type="curve" smooth="yes"/>
      <point x="133.0" y="506.0"/>
      <point x="284.0" y="658.0"/>
      <point x="455.0" y="658.0" type="curve" smooth="yes"/>
      <point x="601.1" y="658.0"/>
      <point x="706.3" y="558.9"/>
      <point x="706.3" y="402.9" type="curve" smooth="yes"/>
      <point x="706.3" y="379.5"/>
      <point x="704.0" y="354.8"/>
      <point x="699.0" y="329.0" type="curve" smooth="yes"/>
      <point x="664.9" y="154.0"/>
      <point x="549.6" y="25.7"/>
      <point x="398.0" y="-3.6" type="curve"/>
      <point x="365.4" y="-11.8"/>
      <point x="311.4" y="-32.9"/>
      <point x="253.4" y="-71.4" type="curve"/>
      <point x="260.2" y="-70.5"/>
      <point x="266.4" y="-70.0"/>
      <point x="272.0" y="-70.0" type="curve" smooth="yes"/>
      <point x="378.0" y="-70.0"/>
      <point x="440.0" y="-152.0"/>
      <point x="524.0" y="-152.0" type="curve" smooth="yes"/>
      <point x="552.0" y="-152.0"/>
      <point x="589.0" y="-142.0"/>
      <point x="615.0" y="-115.0" type="curve"/>
      <point x="629.0" y="-127.0" type="line"/>
      <point x="581.0" y="-183.0"/>
      <point x="535.0" y="-209.0"/>
      <point x="475.0" y="-209.0" type="curve" smooth="yes"/>
      <point x="350.0" y="-209.0"/>
      <point x="308.0" y="-114.0"/>
      <point x="219.0" y="-114.0" type="curve" smooth="yes"/>
      <point x="211.5" y="-114.0"/>
      <point x="198.0" y="-117.2"/>
      <point x="182.9" y="-126.2" type="curve"/>
      <point x="167.3" y="-140.4"/>
      <point x="151.9" y="-156.0"/>
      <point x="137.0" y="-173.0" type="curve"/>
      <point x="104.0" y="-153.0" type="line"/>
      <point x="110.6" y="-144.1"/>
      <point x="118.4" y="-135.9"/>
    </contour>
  </outline>
</glyph>
<glyph name="R" format="2">
  <advance width="555"/>
  <unicode hex="0052"/>
  <anchor x="248.0" y="-111.0" name="below"/>
  <anchor x="148.0" y="-1.0" name="cedilla"/>
  <anchor x="419.0" y="850.0" name="above"/>
  <outline>
    <contour>
      <point x="381.0" y="620.0" type="curve" smooth="yes"/>
      <point x="313.0" y="620.0"/>
      <point x="296.0" y="603.0"/>
      <point x="291.0" y="574.0" type="curve" smooth="yes"/>
      <point x="242.0" y="325.0" type="line"/>
      <point x="290.0" y="325.0" type="line" smooth="yes"/>
      <point x="383.0" y="325.0"/>
      <point x="461.0" y="353.0"/>
      <point x="485.0" y="478.0" type="curve" smooth="yes"/>
      <point x="488.1" y="494.1"/>
      <point x="489.6" y="508.5"/>
      <point x="489.6" y="521.3" type="curve" smooth="yes"/>
      <point x="489.6" y="602.1"/>
      <point x="431.9" y="620.0"/>
    </contour>
    <contour>
      <point x="387.0" y="654.0" type="curve" smooth="yes"/>
      <point x="447.0" y="654.0"/>
      <point x="506.0" y="649.0"/>
      <point x="543.0" y="604.0" type="curve" smooth="yes"/>
      <point x="563.6" y="578.9"/>
      <point x="574.0" y="550.1"/>
      <point x="574.0" y="516.6" type="curve" smooth="yes"/>
      <point x="574.0" y="504.7"/>
      <point x="572.6" y="492.2"/>
      <point x="570.0" y="479.0" type="curve" smooth="yes"/>
      <point x="549.0" y="374.0"/>
      <point x="453.0" y="322.0"/>
      <point x="409.0" y="308.0" type="curve"/>
      <point x="489.0" y="98.0" type="line" smooth="yes"/>
      <point x="506.0" y="55.0"/>
      <point x="523.0" y="21.0"/>
      <point x="566.0" y="21.0" type="curve"/>
      <point x="563.0" y="-3.0" type="line"/>
      <point x="552.0" y="-8.0"/>
      <point x="535.0" y="-10.0"/>
      <point x="521.0" y="-10.0" type="curve" smooth="yes"/>
      <point x="463.0" y="-10.0"/>
      <point x="430.0" y="32.0"/>
      <point x="411.0" y="79.0" type="curve" smooth="yes"/>
      <point x="343.0" y="253.0" type="line" smooth="yes"/>
      <point x="333.0" y="276.0"/>
      <point x="316.0" y="291.0"/>
      <point x="236.0" y="291.0" type="curve"/>
      <point x="193.0" y="72.0" type="line" smooth="yes"/>
      <point x="192.0" y="67.2"/>
      <point x="191.5" y="62.8"/>
      <point x="191.5" y="59.0" type="curve" smooth="yes"/>
      <point x="191.5" y="38.9"/>
      <point x="205.1" y="31.5"/>
      <point x="237.0" y="29.0" type="curve" smooth="yes"/>
      <point x="262.0" y="27.0" type="line" smooth="yes"/>
      <point x="266.0" y="27.0"/>
      <point x="269.0" y="24.0"/>
      <point x="268.0" y="19.0" type="curve" smooth="yes"/>
      <point x="265.0" y="0.0" type="line"/>
      <point x="262.0" y="-2.0" type="line"/>
      <point x="217.0" y="-1.0"/>
      <point x="178.0" y="0.0"/>
      <point x="140.0" y="0.0" type="curve" smooth="yes"/>
      <point x="102.0" y="0.0"/>
      <point x="63.0" y="-1.0"/>
      <point x="18.0" y="-2.0" type="curve"/>
      <point x="16.0" y="0.0" type="line"/>
      <point x="20.0" y="19.0" type="line" smooth="yes"/>
      <point x="21.0" y="24.0"/>
      <point x="24.0" y="27.0"/>
      <point x="29.0" y="27.0" type="curve" smooth="yes"/>
      <point x="54.0" y="29.0" type="line" smooth="yes"/>
      <point x="95.0" y="32.0"/>
      <point x="110.0" y="44.0"/>
      <point x="115.0" y="72.0" type="curve" smooth="yes"/>
      <point x="213.0" y="574.0" type="line" smooth="yes"/>
      <point x="213.6" y="577.4"/>
      <point x="213.9" y="580.6"/>
      <point x="213.9" y="583.5" type="curve" smooth="yes"/>
      <point x="213.9" y="607.8"/>
      <point x="193.3" y="615.1"/>
      <point x="179.0" y="616.0" type="curve" smooth="yes"/>
      <point x="142.0" y="618.0" type="line" smooth="yes"/>
      <point x="138.0" y="618.0"/>
      <point x="136.0" y="620.0"/>
      <point x="137.0" y="624.0" type="curve" smooth="yes"/>
      <point x="141.0" y="645.0" type="line"/>
      <point x="144.0" y="647.0" type="line"/>
      <point x="189.0" y="646.0"/>
      <point x="227.0" y="645.0"/>
      <point x="265.0" y="645.0" type="curve" smooth="yes"/>
      <point x="303.0" y="645.0"/>
      <point x="363.0" y="654.0"/>
    </contour>
  </outline>
</glyph>
<glyph name="S" format="2">
  <advance width="454"/>
  <unicode hex="0053"/>
  <anchor x="402" y="850" name="above"/>
  <anchor x="204" y="-111" name="below"/>
  <anchor x="224" y="2" name="cedilla"/>
  <outline>
    <contour>
      <point x="493" y="626" type="line"/>
      <point x="490" y="572"/>
      <point x="485" y="545"/>
      <point x="485" y="497" type="curve"/>
      <point x="454" y="499" type="line"/>
      <point x="448" y="565"/>
      <point x="435" y="624"/>
      <point x="343" y="624" type="curve" smooth="yes"/>
      <point x="280" y="624"/>
      <point x="228" y="583"/>
      <point x="216" y="522" type="curve" smooth="yes"/>
      <point x="215" y="515"/>
      <point x="214" y="508"/>
      <point x="214" y="502" type="curve" smooth="yes"/>
      <point x="214" y="433"/>
      <point x="287" y="391"/>
      <point x="320" y="376" type="curve" smooth="yes"/>
      <point x="387" y="345"/>
      <point x="456" y="300"/>
      <point x="456" y="212" type="curve" smooth="yes"/>
      <point x="456" y="200"/>
      <point x="454" y="187"/>
      <point x="452" y="174" type="curve" smooth="yes"/>
      <point x="432" y="72"/>
      <point x="326" y="-10"/>
      <point x="215" y="-10" type="curve" smooth="yes"/>
      <point x="134" y="-10"/>
      <point x="109" y="5"/>
      <point x="51" y="5" type="curve"/>
      <point x="59" y="56"/>
      <point x="61" y="89"/>
      <point x="64" y="165" type="curve"/>
      <point x="94" y="168" type="line"/>
      <point x="95" y="68"/>
      <point x="145" y="26"/>
      <point x="230" y="26" type="curve" smooth="yes"/>
      <point x="303" y="26"/>
      <point x="352" y="58"/>
      <point x="368" y="139" type="curve" smooth="yes"/>
      <point x="371" y="153"/>
      <point x="372" y="165"/>
      <point x="372" y="176" type="curve" smooth="yes"/>
      <point x="372" y="236"/>
      <point x="335" y="268"/>
      <point x="289" y="291" type="curve" smooth="yes"/>
      <point x="219" y="326"/>
      <point x="142" y="373"/>
      <point x="142" y="462" type="curve" smooth="yes"/>
      <point x="142" y="472"/>
      <point x="143" y="483"/>
      <point x="145" y="495" type="curve" smooth="yes"/>
      <point x="166" y="601"/>
      <point x="275" y="658"/>
      <point x="359" y="658" type="curve" smooth="yes"/>
      <point x="448" y="658"/>
      <point x="442" y="634"/>
      <point x="493" y="626" type="curve"/>
    </contour>
  </outline>
</glyph>
<glyph name="T" format="2">
  <advance width="544"/>
  <unicode hex="0054"/>
  <anchor x="277.0" y="-109.0" name="below"/>
  <anchor x="298.0" y="10.0" name="cedilla"/>
  <anchor x="457.0" y="850.0" name="above"/>
  <outline>
    <contour>
      <point x="229.0" y="645.0" type="curve" smooth="yes"/>
      <point x="563.0" y="645.0" type="line" smooth="yes"/>
      <point x="598.8" y="645.0"/>
      <point x="612.0" y="652.5"/>
      <point x="645.0" y="658.0" type="curve"/>
      <point x="642.5" y="618.0"/>
      <point x="645.0" y="575.0"/>
      <point x="656.0" y="518.0" type="curve"/>
      <point x="644.3" y="513.3"/>
      <point x="636.0" y="513.0"/>
      <point x="626.0" y="513.0" type="curve"/>
      <point x="609.0" y="580.0"/>
      <point x="594.0" y="606.0"/>
      <point x="542.0" y="606.0" type="curve" smooth="yes"/>
      <point x="488.0" y="606.0" type="line" smooth="yes"/>
      <point x="454.0" y="606.0"/>
      <point x="441.0" y="598.0"/>
      <point x="434.0" y="564.0" type="curve" smooth="yes"/>
      <point x="339.0" y="76.0" type="line" smooth="yes"/>
      <point x="333.1" y="45.6"/>
      <point x="344.1" y="33.4"/>
      <point x="383.0" y="30.0" type="curve" smooth="yes"/>
      <point x="417.0" y="27.0" type="line"/>
      <point x="420.0" y="22.0"/>
      <point x="417.0" y="2.0"/>
      <point x="414.0" y="-2.0" type="curve"/>
      <point x="370.0" y="-1.0"/>
      <point x="325.0" y="0.0"/>
      <point x="287.0" y="0.0" type="curve" smooth="yes"/>
      <point x="248.0" y="0.0"/>
      <point x="212.0" y="-1.0"/>
      <point x="167.0" y="-2.0" type="curve"/>
      <point x="163.0" y="7.0"/>
      <point x="165.0" y="23.0"/>
      <point x="169.0" y="27.0" type="curve"/>
      <point x="200.0" y="30.0" type="line" smooth="yes"/>
      <point x="241.0" y="34.0"/>
      <point x="256.0" y="48.0"/>
      <point x="262.0" y="76.0" type="curve" smooth="yes"/>
      <point x="357.0" y="567.0" type="line" smooth="yes"/>
      <point x="361.8" y="595.9"/>
      <point x="356.4" y="606.0"/>
      <point x="317.0" y="606.0" type="curve" smooth="yes"/>
      <point x="248.0" y="606.0" type="line" smooth="yes"/>
      <point x="195.0" y="606.0"/>
      <point x="170.0" y="586.0"/>
      <point x="141.0" y="520.5" type="curve"/>
      <point x="132.0" y="520.5"/>
      <point x="118.6" y="522.7"/>
      <point x="111.0" y="527.5" type="curve"/>
      <point x="133.0" y="580.5"/>
      <point x="145.0" y="609.0"/>
      <point x="158.0" y="658.0" type="curve"/>
      <point x="181.5" y="654.0"/>
      <point x="202.9" y="645.0"/>
    </contour>
  </outline>
</glyph>
<glyph name="U" format="2">
  <advance width="634"/>
  <unicode hex="0055"/>
  <anchor x="308.0" y="-109.0" name="below"/>
  <anchor x="328.0" y="4.0" name="cedilla"/>
  <anchor x="486.0" y="850.0" name="above"/>
  <outline>
    <contour>
      <point x="306.0" y="-10.0" type="curve" smooth="yes"/>
      <point x="230.9" y="-10.0"/>
      <point x="123.8" y="22.1"/>
      <point x="123.8" y="166.0" type="curve" smooth="yes"/>
      <point x="123.8" y="186.9"/>
      <point x="126.1" y="210.1"/>
      <point x="131.0" y="236.0" type="curve" smooth="yes"/>
      <point x="197.0" y="572.0" type="line" smooth="yes"/>
      <point x="197.9" y="576.8"/>
      <point x="198.4" y="581.1"/>
      <point x="198.4" y="584.9" type="curve" smooth="yes"/>
      <point x="198.4" y="605.9"/>
      <point x="184.3" y="613.5"/>
      <point x="153.0" y="616.0" type="curve" smooth="yes"/>
      <point x="128.0" y="618.0" type="line" smooth="yes"/>
      <point x="124.0" y="618.0"/>
      <point x="121.0" y="621.0"/>
      <point x="122.0" y="626.0" type="curve" smooth="yes"/>
      <point x="125.0" y="645.0" type="line"/>
      <point x="128.0" y="647.0" type="line"/>
      <point x="173.0" y="646.0"/>
      <point x="211.0" y="645.0"/>
      <point x="249.0" y="645.0" type="curve" smooth="yes"/>
      <point x="287.0" y="645.0"/>
      <point x="327.0" y="646.0"/>
      <point x="372.0" y="647.0" type="curve"/>
      <point x="374.0" y="645.0" type="line"/>
      <point x="370.0" y="626.0" type="line" smooth="yes"/>
      <point x="369.0" y="621.0"/>
      <point x="366.0" y="618.0"/>
      <point x="361.0" y="618.0" type="curve" smooth="yes"/>
      <point x="336.0" y="616.0" type="line" smooth="yes"/>
      <point x="296.0" y="613.0"/>
      <point x="280.0" y="600.0"/>
      <point x="274.0" y="572.0" type="curve" smooth="yes"/>
      <point x="215.0" y="269.0" type="line" smooth="yes"/>
      <point x="209.1" y="236.8"/>
      <point x="202.6" y="203.4"/>
      <point x="202.6" y="171.4" type="curve" smooth="yes"/>
      <point x="202.6" y="138.8"/>
      <point x="209.3" y="107.8"/>
      <point x="230.0" y="81.0" type="curve" smooth="yes"/>
      <point x="253.0" y="52.0"/>
      <point x="288.0" y="31.0"/>
      <point x="334.0" y="31.0" type="curve" smooth="yes"/>
      <point x="497.0" y="31.0"/>
      <point x="537.0" y="165.0"/>
      <point x="559.0" y="277.0" type="curve" smooth="yes"/>
      <point x="616.0" y="570.0" type="line" smooth="yes"/>
      <point x="617.0" y="575.2"/>
      <point x="617.5" y="579.9"/>
      <point x="617.5" y="584.1" type="curve" smooth="yes"/>
      <point x="617.5" y="604.8"/>
      <point x="604.6" y="613.5"/>
      <point x="573.0" y="616.0" type="curve" smooth="yes"/>
      <point x="547.0" y="618.0" type="line" smooth="yes"/>
      <point x="544.0" y="618.0"/>
      <point x="540.0" y="621.0"/>
      <point x="541.0" y="626.0" type="curve" smooth="yes"/>
      <point x="545.0" y="645.0" type="line"/>
      <point x="547.0" y="647.0" type="line"/>
      <point x="592.0" y="646.0"/>
      <point x="630.0" y="645.0"/>
      <point x="652.0" y="645.0" type="curve" smooth="yes"/>
      <point x="674.0" y="645.0"/>
      <point x="713.0" y="646.0"/>
      <point x="758.0" y="647.0" type="curve"/>
      <point x="760.0" y="645.0" type="line"/>
      <point x="756.0" y="626.0" type="line" smooth="yes"/>
      <point x="755.0" y="621.0"/>
      <point x="752.0" y="618.0"/>
      <point x="747.0" y="618.0" type="curve" smooth="yes"/>
      <point x="722.0" y="616.0" type="line" smooth="yes"/>
      <point x="681.0" y="613.0"/>
      <point x="665.0" y="598.0"/>
      <point x="660.0" y="570.0" type="curve" smooth="yes"/>
      <point x="606.0" y="295.0" type="line" smooth="yes"/>
      <point x="572.0" y="117.0"/>
      <point x="503.0" y="-10.0"/>
    </contour>
  </outline>
</glyph>
<glyph name="V" format="2">
  <advance width="597"/>
  <unicode hex="0056"/>
  <anchor x="481" y="850" name="above"/>
  <anchor x="263" y="-110" name="below"/>
  <anchor x="303" y="3" name="cedilla"/>
  <outline>
    <contour>
      <point x="617" y="553" type="line" smooth="yes"/>
      <point x="636" y="586"/>
      <point x="668" y="612"/>
      <point x="721" y="618" type="curve"/>
      <point x="727" y="624"/>
      <point x="727" y="641"/>
      <point x="721" y="647" type="curve"/>
      <point x="684" y="646"/>
      <point x="653" y="645"/>
      <point x="627" y="645" type="curve" smooth="yes"/>
      <point x="601" y="645"/>
      <point x="557" y="646"/>
      <point x="517" y="647" type="curve"/>
      <point x="511" y="641"/>
      <point x="511" y="624"/>
      <point x="517" y="618" type="curve"/>
      <point x="567" y="614"/>
      <point x="594" y="600"/>
      <point x="573" y="561" type="curve" smooth="yes"/>
      <point x="340" y="127" type="line" smooth="yes"/>
      <point x="338" y="125"/>
      <point x="336" y="124"/>
      <point x="333" y="127" type="curve"/>
      <point x="269" y="572" type="line" smooth="yes"/>
      <point x="264" y="605"/>
      <point x="306" y="616"/>
      <point x="341" y="618" type="curve"/>
      <point x="347" y="624"/>
      <point x="347" y="641"/>
      <point x="341" y="647" type="curve"/>
      <point x="308" y="646"/>
      <point x="259" y="645"/>
      <point x="220" y="645" type="curve" smooth="yes"/>
      <point x="180" y="645"/>
      <point x="154" y="646"/>
      <point x="114" y="647" type="curve"/>
      <point x="108" y="641"/>
      <point x="108" y="624"/>
      <point x="114" y="618" type="curve"/>
      <point x="156" y="612"/>
      <point x="180" y="612"/>
      <point x="188" y="556" type="curve" smooth="yes"/>
      <point x="269" y="11" type="line" smooth="yes"/>
      <point x="271" y="-4"/>
      <point x="277" y="-12"/>
      <point x="287" y="-12" type="curve" smooth="yes"/>
      <point x="297" y="-12"/>
      <point x="306" y="-4"/>
      <point x="314" y="11" type="curve" smooth="yes"/>
    </contour>
  </outline>
</glyph>
<glyph name="W" format="2">
  <advance width="909"/>
  <unicode hex="0057"/>
  <anchor x="439.0" y="-107.0" name="below"/>
  <anchor x="290.0" y="0.0" name="cedilla"/>
  <anchor x="610.0" y="850.0" name="above"/>
  <outline>
    <contour>
      <point x="217.0" y="546.0" type="line" smooth="yes"/>
      <point x="210.8" y="600.0"/>
      <point x="187.2" y="610.0"/>
      <point x="139.0" y="618.0" type="curve"/>
      <point x="133.0" y="624.0"/>
      <point x="133.0" y="641.0"/>
      <point x="139.0" y="647.0" type="curve"/>
      <point x="175.0" y="646.0"/>
      <point x="214.0" y="645.0"/>
      <point x="247.0" y="645.0" type="curve" smooth="yes"/>
      <point x="284.0" y="645.0"/>
      <point x="334.0" y="646.0"/>
      <point x="367.0" y="647.0" type="curve"/>
      <point x="373.0" y="641.0"/>
      <point x="373.0" y="624.0"/>
      <point x="367.0" y="618.0" type="curve"/>
      <point x="332.0" y="616.0"/>
      <point x="292.6" y="605.4"/>
      <point x="296.0" y="572.0" type="curve" smooth="yes"/>
      <point x="330.0" y="218.0" type="line"/>
      <point x="337.0" y="152.0" type="line"/>
      <point x="375.0" y="216.0" type="line"/>
      <point x="572.0" y="583.5" type="line"/>
      <point x="615.0" y="583.7" type="line"/>
      <point x="615.0" y="583.7"/>
      <point x="622.1" y="520.0"/>
      <point x="626.0" y="486.0" type="curve" smooth="yes"/>
      <point x="658.0" y="207.0" type="line"/>
      <point x="665.0" y="146.0" type="line"/>
      <point x="702.0" y="215.0" type="line"/>
      <point x="889.0" y="561.0" type="line" smooth="yes"/>
      <point x="910.5" y="599.9"/>
      <point x="875.3" y="614.0"/>
      <point x="825.0" y="618.0" type="curve"/>
      <point x="819.0" y="624.0"/>
      <point x="819.0" y="641.0"/>
      <point x="825.0" y="647.0" type="curve"/>
      <point x="865.0" y="646.0"/>
      <point x="912.0" y="645.0"/>
      <point x="938.0" y="645.0" type="curve" smooth="yes"/>
      <point x="964.0" y="645.0"/>
      <point x="1003.0" y="646.0"/>
      <point x="1036.0" y="647.0" type="curve"/>
      <point x="1042.0" y="641.0"/>
      <point x="1042.0" y="624.0"/>
      <point x="1036.0" y="618.0" type="curve"/>
      <point x="983.0" y="612.0"/>
      <point x="958.5" y="586.3"/>
      <point x="940.0" y="553.0" type="curve" smooth="yes"/>
      <point x="639.0" y="11.0" type="line" smooth="yes"/>
      <point x="629.0" y="-7.1"/>
      <point x="625.5" y="-10.0"/>
      <point x="618.0" y="-10.0" type="curve" smooth="yes"/>
      <point x="608.8" y="-10.0"/>
      <point x="603.1" y="-5.6"/>
      <point x="601.0" y="12.0" type="curve" smooth="yes"/>
      <point x="559.0" y="367.0" type="line" smooth="yes"/>
      <point x="554.9" y="401.5"/>
      <point x="552.0" y="412.5"/>
      <point x="549.5" y="434.5" type="curve" smooth="yes"/>
      <point x="549.0" y="436.8"/>
      <point x="545.5" y="437.0"/>
      <point x="544.5" y="437.0" type="curve" smooth="yes"/>
      <point x="538.3" y="425.7"/>
      <point x="522.9" y="397.2"/>
      <point x="508.0" y="370.0" type="curve" smooth="yes"/>
      <point x="312.0" y="12.0" type="line" smooth="yes"/>
      <point x="302.2" y="-5.8"/>
      <point x="299.0" y="-10.0"/>
      <point x="291.0" y="-10.0" type="curve" smooth="yes"/>
      <point x="280.5" y="-10.0"/>
      <point x="278.9" y="-4.7"/>
      <point x="277.0" y="12.0" type="curve" smooth="yes"/>
    </contour>
  </outline>
</glyph>
<glyph name="X" format="2">
  <advance width="628"/>
  <unicode hex="0058"/>
  <anchor x="287.0" y="-107.0" name="below"/>
  <anchor x="102.0" y="0.0" name="cedilla"/>
  <anchor x="482.0" y="850.0" name="above"/>
  <outline>
    <contour>
      <point x="134.0" y="625.0" type="curve" smooth="yes"/>
      <point x="138.0" y="644.0" type="line"/>
      <point x="141.0" y="647.0" type="line"/>
      <point x="179.0" y="646.0"/>
      <point x="217.0" y="645.0"/>
      <point x="240.0" y="645.0" type="curve" smooth="yes"/>
      <point x="263.0" y="645.0"/>
      <point x="312.0" y="646.0"/>
      <point x="357.0" y="647.0" type="curve"/>
      <point x="357.0" y="647.0"/>
      <point x="357.0" y="644.0"/>
      <point x="358.0" y="644.0" type="curve" smooth="yes"/>
      <point x="355.0" y="625.0" type="line" smooth="yes"/>
      <point x="354.0" y="620.0"/>
      <point x="351.0" y="618.0"/>
      <point x="349.0" y="618.0" type="curve" smooth="yes"/>
      <point x="317.0" y="616.0" type="line" smooth="yes"/>
      <point x="300.0" y="614.9"/>
      <point x="293.9" y="609.9"/>
      <point x="293.9" y="601.2" type="curve" smooth="yes"/>
      <point x="293.9" y="594.0"/>
      <point x="298.1" y="584.2"/>
      <point x="304.0" y="572.0" type="curve" smooth="yes"/>
      <point x="384.0" y="396.0" type="line" smooth="yes"/>
      <point x="388.0" y="389.0"/>
      <point x="391.0" y="385.0"/>
      <point x="393.0" y="385.0" type="curve" smooth="yes"/>
      <point x="396.0" y="385.0"/>
      <point x="401.0" y="389.0"/>
      <point x="408.0" y="397.0" type="curve" smooth="yes"/>
      <point x="566.0" y="572.0" type="line" smooth="yes"/>
      <point x="578.7" y="586.4"/>
      <point x="586.8" y="597.7"/>
      <point x="586.8" y="605.3" type="curve" smooth="yes"/>
      <point x="586.8" y="611.4"/>
      <point x="581.5" y="615.1"/>
      <point x="569.0" y="616.0" type="curve" smooth="yes"/>
      <point x="541.0" y="618.0" type="line" smooth="yes"/>
      <point x="537.0" y="618.0"/>
      <point x="534.0" y="620.0"/>
      <point x="535.0" y="625.0" type="curve" smooth="yes"/>
      <point x="539.0" y="645.0" type="line"/>
      <point x="541.0" y="647.0" type="line"/>
      <point x="580.0" y="646.0"/>
      <point x="614.0" y="645.0"/>
      <point x="636.0" y="645.0" type="curve" smooth="yes"/>
      <point x="658.0" y="645.0"/>
      <point x="691.0" y="646.0"/>
      <point x="730.0" y="647.0" type="curve"/>
      <point x="732.0" y="645.0" type="line"/>
      <point x="728.0" y="625.0" type="line" smooth="yes"/>
      <point x="728.0" y="622.0"/>
      <point x="726.0" y="618.0"/>
      <point x="718.0" y="618.0" type="curve" smooth="yes"/>
      <point x="660.0" y="616.0"/>
      <point x="633.0" y="588.0"/>
      <point x="600.0" y="552.0" type="curve" smooth="yes"/>
      <point x="440.0" y="375.0" type="line" smooth="yes"/>
      <point x="429.0" y="363.0"/>
      <point x="423.0" y="354.0"/>
      <point x="421.0" y="345.0" type="curve" smooth="yes"/>
      <point x="420.7" y="343.3"/>
      <point x="420.5" y="341.6"/>
      <point x="420.5" y="339.8" type="curve" smooth="yes"/>
      <point x="420.5" y="331.5"/>
      <point x="424.2" y="322.7"/>
      <point x="430.0" y="312.0" type="curve" smooth="yes"/>
      <point x="537.0" y="102.0" type="line" smooth="yes"/>
      <point x="556.0" y="63.0"/>
      <point x="582.0" y="30.0"/>
      <point x="624.0" y="27.0" type="curve" smooth="yes"/>
      <point x="629.0" y="27.0"/>
      <point x="630.0" y="23.0"/>
      <point x="630.0" y="20.0" type="curve" smooth="yes"/>
      <point x="626.0" y="0.0" type="line"/>
      <point x="624.0" y="-2.0" type="line"/>
      <point x="585.0" y="-1.0"/>
      <point x="545.0" y="0.0"/>
      <point x="523.0" y="0.0" type="curve" smooth="yes"/>
      <point x="501.0" y="0.0"/>
      <point x="448.0" y="-1.0"/>
      <point x="403.0" y="-2.0" type="curve"/>
      <point x="400.0" y="0.0" type="line"/>
      <point x="404.0" y="20.0" type="line" smooth="yes"/>
      <point x="405.0" y="24.0"/>
      <point x="407.0" y="27.0"/>
      <point x="411.0" y="27.0" type="curve" smooth="yes"/>
      <point x="431.0" y="29.0" type="line" smooth="yes"/>
      <point x="454.1" y="31.4"/>
      <point x="463.2" y="34.4"/>
      <point x="463.2" y="43.6" type="curve" smooth="yes"/>
      <point x="463.2" y="49.9"/>
      <point x="458.9" y="59.2"/>
      <point x="452.0" y="73.0" type="curve" smooth="yes"/>
      <point x="362.0" y="261.0" type="line" smooth="yes"/>
      <point x="358.0" y="269.0"/>
      <point x="354.0" y="272.0"/>
      <point x="350.0" y="272.0" type="curve" smooth="yes"/>
      <point x="348.0" y="272.0"/>
      <point x="341.0" y="266.0"/>
      <point x="333.0" y="258.0" type="curve" smooth="yes"/>
      <point x="171.0" y="77.0" type="line" smooth="yes"/>
      <point x="160.5" y="64.4"/>
      <point x="152.4" y="52.9"/>
      <point x="152.4" y="44.2" type="curve" smooth="yes"/>
      <point x="152.4" y="36.4"/>
      <point x="158.9" y="30.9"/>
      <point x="176.0" y="29.0" type="curve" smooth="yes"/>
      <point x="194.0" y="27.0" type="line" smooth="yes"/>
      <point x="199.0" y="26.0"/>
      <point x="199.0" y="23.0"/>
      <point x="199.0" y="20.0" type="curve" smooth="yes"/>
      <point x="195.0" y="0.0" type="line"/>
      <point x="192.0" y="-2.0" type="line"/>
      <point x="147.0" y="-1.0"/>
      <point x="122.0" y="0.0"/>
      <point x="84.0" y="0.0" type="curve" smooth="yes"/>
      <point x="56.0" y="0.0"/>
      <point x="32.0" y="-1.0"/>
      <point x="3.0" y="-2.0" type="curve"/>
      <point x="3.0" y="0.0" type="line"/>
      <point x="7.0" y="20.0" type="line" smooth="yes"/>
      <point x="8.0" y="25.0"/>
      <point x="13.0" y="27.0"/>
      <point x="19.0" y="27.0" type="curve" smooth="yes"/>
      <point x="75.0" y="30.0"/>
      <point x="117.0" y="74.0"/>
      <point x="144.0" y="104.0" type="curve" smooth="yes"/>
      <point x="312.0" y="291.0" type="line" smooth="yes"/>
      <point x="319.0" y="299.0"/>
      <point x="325.0" y="308.0"/>
      <point x="326.0" y="314.0" type="curve" smooth="yes"/>
      <point x="326.4" y="316.0"/>
      <point x="326.6" y="318.0"/>
      <point x="326.6" y="320.0" type="curve" smooth="yes"/>
      <point x="326.6" y="327.7"/>
      <point x="323.6" y="335.2"/>
      <point x="318.0" y="344.0" type="curve"/>
      <point x="220.0" y="549.0" type="line" smooth="yes"/>
      <point x="192.0" y="607.0"/>
      <point x="164.0" y="615.0"/>
      <point x="148.0" y="618.0" type="curve" smooth="yes"/>
      <point x="139.0" y="620.0"/>
      <point x="133.0" y="621.0"/>
    </contour>
  </outline>
</glyph>
<glyph name="Y" format="2">
  <advance width="552"/>
  <unicode hex="0059"/>
  <anchor x="270.0" y="-109.0" name="below"/>
  <anchor x="293.0" y="1.0" name="cedilla"/>
  <anchor x="435.0" y="850.0" name="above"/>
  <outline>
    <contour>
      <point x="336.0" y="76.0" type="line" smooth="yes"/>
      <point x="330.0" y="46.0"/>
      <point x="341.1" y="33.4"/>
      <point x="380.0" y="30.0" type="curve" smooth="yes"/>
      <point x="414.0" y="27.0" type="line"/>
      <point x="417.0" y="22.0"/>
      <point x="414.0" y="2.0"/>
      <point x="411.0" y="-2.0" type="curve"/>
      <point x="367.0" y="-1.0"/>
      <point x="322.0" y="0.0"/>
      <point x="284.0" y="0.0" type="curve" smooth="yes"/>
      <point x="245.0" y="0.0"/>
      <point x="209.0" y="-1.0"/>
      <point x="164.0" y="-2.0" type="curve"/>
      <point x="160.0" y="7.0"/>
      <point x="162.0" y="23.0"/>
      <point x="166.0" y="27.0" type="curve"/>
      <point x="197.0" y="30.0" type="line" smooth="yes"/>
      <point x="238.0" y="34.0"/>
      <point x="254.0" y="48.0"/>
      <point x="259.0" y="76.0" type="curve" smooth="yes"/>
      <point x="294.0" y="259.0" type="line" smooth="yes"/>
      <point x="296.0" y="269.2"/>
      <point x="297.3" y="278.9"/>
      <point x="297.3" y="284.0" type="curve" smooth="yes"/>
      <point x="297.3" y="288.0"/>
      <point x="296.4" y="295.5"/>
      <point x="294.0" y="302.0" type="curve" smooth="yes"/>
      <point x="202.0" y="547.0" type="line" smooth="yes"/>
      <point x="182.0" y="600.0"/>
      <point x="174.9" y="611.5"/>
      <point x="141.0" y="616.0" type="curve" smooth="yes"/>
      <point x="126.0" y="618.0" type="line"/>
      <point x="123.0" y="623.0"/>
      <point x="121.0" y="642.0"/>
      <point x="124.0" y="647.0" type="curve"/>
      <point x="152.0" y="646.0"/>
      <point x="191.0" y="645.0"/>
      <point x="228.0" y="645.0" type="curve" smooth="yes"/>
      <point x="266.0" y="645.0"/>
      <point x="296.0" y="646.0"/>
      <point x="335.0" y="647.0" type="curve"/>
      <point x="337.0" y="643.0"/>
      <point x="336.0" y="623.0"/>
      <point x="333.0" y="618.0" type="curve"/>
      <point x="300.0" y="615.0" type="line" smooth="yes"/>
      <point x="266.1" y="611.9"/>
      <point x="269.9" y="602.4"/>
      <point x="279.0" y="576.0" type="curve" smooth="yes"/>
      <point x="364.0" y="335.0" type="line"/>
      <point x="368.0" y="335.0" type="line"/>
      <point x="526.0" y="576.0" type="line" smooth="yes"/>
      <point x="546.0" y="605.0"/>
      <point x="545.0" y="612.8"/>
      <point x="521.0" y="615.0" type="curve" smooth="yes"/>
      <point x="489.0" y="618.0" type="line"/>
      <point x="487.0" y="622.0"/>
      <point x="488.0" y="643.0"/>
      <point x="491.0" y="647.0" type="curve"/>
      <point x="529.0" y="646.0"/>
      <point x="560.0" y="645.0"/>
      <point x="582.0" y="645.0" type="curve" smooth="yes"/>
      <point x="604.0" y="645.0"/>
      <point x="633.0" y="646.0"/>
      <point x="662.0" y="647.0" type="curve"/>
      <point x="665.0" y="643.0"/>
      <point x="661.0" y="623.0"/>
      <point x="658.0" y="618.0" type="curve"/>
      <point x="632.0" y="616.0" type="line" smooth="yes"/>
      <point x="597.0" y="613.0"/>
      <point x="584.0" y="595.0"/>
      <point x="563.0" y="565.0" type="curve" smooth="yes"/>
      <point x="388.0" y="310.0" type="line" smooth="yes"/>
      <point x="381.0" y="299.0"/>
      <point x="377.4" y="285.1"/>
      <point x="374.0" y="268.0" type="curve" smooth="yes"/>
    </contour>
  </outline>
</glyph>
<glyph name="Z" format="2">
  <advance width="578"/>
  <unicode hex="005A"/>
  <anchor x="267.0" y="-107.0" name="below"/>
  <anchor x="287.0" y="4.0" name="cedilla"/>
  <anchor x="450.0" y="850.0" name="above"/>
  <outline>
    <contour>
      <point x="528.0" y="-2.0" type="curve"/>
      <point x="528.0" y="-2.0"/>
      <point x="432.0" y="0.0"/>
      <point x="407.0" y="0.0" type="curve" smooth="yes"/>
      <point x="57.0" y="0.0" type="line" smooth="yes"/>
      <point x="44.6" y="0.0"/>
      <point x="40.8" y="3.9"/>
      <point x="40.8" y="11.8" type="curve" smooth="yes"/>
      <point x="40.8" y="19.7"/>
      <point x="46.8" y="30.8"/>
      <point x="54.0" y="38.0" type="curve" smooth="yes"/>
      <point x="532.0" y="579.0" type="line" smooth="yes"/>
      <point x="538.0" y="586.0"/>
      <point x="542.0" y="592.0"/>
      <point x="543.0" y="597.0" type="curve" smooth="yes"/>
      <point x="545.0" y="603.0"/>
      <point x="542.0" y="605.0"/>
      <point x="535.0" y="605.0" type="curve" smooth="yes"/>
      <point x="314.0" y="605.0" type="line" smooth="yes"/>
      <point x="242.0" y="605.0"/>
      <point x="215.0" y="555.0"/>
      <point x="181.0" y="486.0" type="curve"/>
      <point x="153.0" y="491.0" type="line"/>
      <point x="169.0" y="532.0"/>
      <point x="192.0" y="604.0"/>
      <point x="207.0" y="658.0" type="curve"/>
      <point x="242.0" y="655.0"/>
      <point x="237.0" y="645.0"/>
      <point x="282.0" y="645.0" type="curve" smooth="yes"/>
      <point x="590.0" y="645.0" type="line"/>
      <point x="620.0" y="648.0"/>
      <point x="641.0" y="655.0"/>
      <point x="653.0" y="655.0" type="curve" smooth="yes"/>
      <point x="669.0" y="655.0"/>
      <point x="673.2" y="652.6"/>
      <point x="673.2" y="647.1" type="curve" smooth="yes"/>
      <point x="673.2" y="638.3"/>
      <point x="665.4" y="620.6"/>
      <point x="639.0" y="591.0" type="curve" smooth="yes"/>
      <point x="178.0" y="72.0" type="line"/>
      <point x="172.0" y="63.0"/>
      <point x="168.0" y="57.0"/>
      <point x="167.0" y="52.0" type="curve" smooth="yes"/>
      <point x="165.0" y="43.0"/>
      <point x="172.0" y="39.0"/>
      <point x="188.0" y="39.0" type="curve" smooth="yes"/>
      <point x="412.0" y="39.0" type="line" smooth="yes"/>
      <point x="485.0" y="39.0"/>
      <point x="524.0" y="98.0"/>
      <point x="557.0" y="170.0" type="curve"/>
      <point x="586.0" y="165.0" type="line"/>
      <point x="565.0" y="113.0"/>
      <point x="543.0" y="54.0"/>
    </contour>
  </outline>
</glyph>
<glyph name="bracketleft" format="2">
  <advance width="334"/>
  <unicode hex="005B"/>
  <outline>
    <contour>
      <point x="424" y="689" type="line"/>
      <point x="417" y="646" type="line"/>
      <point x="270" y="646" type="line"/>
      <point x="129" y="-156" type="line"/>
      <point x="275" y="-156" type="line"/>
      <point x="268" y="-200" type="line"/>
      <point x="53" y="-200" type="line"/>
      <point x="209" y="689" type="line"/>
    </contour>
  </outline>
</glyph>
<glyph name="backslash" format="2">
  <advance width="321"/>
  <unicode hex="005C"/>
  <outline>
    <contour>
      <point x="178" y="698" type="line"/>
      <point x="311" y="-48" type="line"/>
      <point x="267" y="-48" type="line"/>
      <point x="134" y="698" type="line"/>
    </contour>
  </outline>
</glyph>
<glyph name="bracketright" format="2">
  <advance width="334"/>
  <unicode hex="005D"/>
  <outline>
    <contour>
      <point x="-3.0" y="-200.0" type="line"/>
      <point x="4.0" y="-156.0" type="line"/>
      <point x="151.0" y="-156.0" type="line"/>
      <point x="292.0" y="646.0" type="line"/>
      <point x="146.0" y="646.0" type="line"/>
      <point x="153.0" y="689.0" type="line"/>
      <point x="368.0" y="689.0" type="line"/>
      <point x="211.0" y="-200.0" type="line"/>
    </contour>
  </outline>
</glyph>
<glyph name="asciicircum" format="2">
  <advance width="518"/>
  <unicode hex="005E"/>
  <outline>
    <contour>
      <point x="363.0" y="593.0" type="line"/>
      <point x="217.0" y="347.0" type="line"/>
      <point x="173.0" y="347.0" type="line"/>
      <point x="353.0" y="650.0" type="line"/>
      <point x="395.0" y="650.0" type="line"/>
      <point x="467.0" y="347.0" type="line"/>
      <point x="423.0" y="347.0" type="line"/>
    </contour>
  </outline>
</glyph>
<glyph name="grave" format="2">
  <advance width="392"/>
  <unicode hex="0060"/>
  <outline>
    <contour>
      <point x="301.0" y="698.0" type="curve"/>
      <point x="349.0" y="573.0" type="line" smooth="yes"/>
      <point x="351.0" y="567.0"/>
      <point x="352.0" y="562.0"/>
      <point x="352.0" y="558.0" type="curve" smooth="yes"/>
      <point x="352.0" y="555.0"/>
      <point x="352.0" y="552.0"/>
      <point x="351.0" y="549.0" type="curve" smooth="yes"/>
      <point x="350.0" y="544.0"/>
      <point x="342.0" y="538.0"/>
      <point x="335.0" y="538.0" type="curve" smooth="yes"/>
      <point x="328.0" y="538.0"/>
      <point x="322.0" y="543.0"/>
      <point x="309.0" y="558.0" type="curve" smooth="yes"/>
      <point x="214.0" y="667.0" type="line"/>
      <point x="218.0" y="677.0" type="line"/>
      <point x="229.0" y="683.0"/>
      <point x="251.0" y="701.0"/>
      <point x="287.0" y="701.0" type="curve" smooth="yes"/>
      <point x="292.0" y="701.0"/>
      <point x="298.0" y="700.0"/>
    </contour>
  </outline>
</glyph>
<glyph name="a" format="2">
  <advance width="486"/>
  <unicode hex="0061"/>
  <anchor x="341" y="647" name="above"/>
  <anchor x="174" y="-108" name="below"/>
  <anchor x="166" y="-3" name="cedilla"/>
  <anchor x="413" y="16" name="ogonek"/>
  <outline>
    <contour>
      <point x="410" y="433" type="line"/>
      <point x="430" y="428"/>
      <point x="456" y="431"/>
      <point x="480" y="431" type="curve"/>
      <point x="411" y="120" type="line" smooth="yes"/>
      <point x="407" y="101"/>
      <point x="401" y="73"/>
      <point x="401" y="64" type="curve" smooth="yes"/>
      <point x="401" y="52"/>
      <point x="410" y="50"/>
      <point x="413" y="50" type="curve" smooth="yes"/>
      <point x="423" y="50"/>
      <point x="442" y="66"/>
      <point x="469" y="103" type="curve"/>
      <point x="482" y="103"/>
      <point x="487" y="96"/>
      <point x="492" y="87" type="curve"/>
      <point x="466" y="30"/>
      <point x="426" y="-10"/>
      <point x="364" y="-10" type="curve" smooth="yes"/>
      <point x="330" y="-10"/>
      <point x="323" y="16"/>
      <point x="323" y="35" type="curve" smooth="yes"/>
      <point x="323" y="47"/>
      <point x="326" y="67"/>
      <point x="333" y="90" type="curve" smooth="yes"/>
      <point x="346" y="132" type="line"/>
      <point x="344" y="134" type="line"/>
      <point x="284" y="45"/>
      <point x="228" y="-10"/>
      <point x="175" y="-10" type="curve" smooth="yes"/>
      <point x="91" y="-10"/>
      <point x="78" y="69"/>
      <point x="78" y="125" type="curve" smooth="yes"/>
      <point x="78" y="282"/>
      <point x="223" y="439"/>
      <point x="330" y="439" type="curve" smooth="yes"/>
      <point x="370" y="439"/>
      <point x="383" y="436"/>
      <point x="410" y="433" type="curve"/>
    </contour>
    <contour>
      <point x="360" y="219" type="line"/>
      <point x="385" y="283"/>
      <point x="395" y="389"/>
      <point x="395" y="389" type="curve"/>
      <point x="376" y="401"/>
      <point x="354" y="408"/>
      <point x="333" y="408" type="curve" smooth="yes"/>
      <point x="241" y="408"/>
      <point x="158" y="247"/>
      <point x="158" y="141" type="curve" smooth="yes"/>
      <point x="158" y="85"/>
      <point x="168" y="45"/>
      <point x="202" y="45" type="curve" smooth="yes"/>
      <point x="234" y="45"/>
      <point x="311" y="129"/>
      <point x="360" y="219" type="curve"/>
    </contour>
  </outline>
</glyph>
<glyph name="b" format="2">
  <advance width="478"/>
  <unicode hex="0062"/>
  <anchor x="214" y="-108" name="below"/>
  <outline>
    <contour>
      <point x="285" y="583" type="line" smooth="yes"/>
      <point x="230" y="336" type="line"/>
      <point x="232" y="335" type="line"/>
      <point x="267" y="376"/>
      <point x="318" y="439"/>
      <point x="387" y="439" type="curve" smooth="yes"/>
      <point x="478" y="439"/>
      <point x="492" y="388"/>
      <point x="492" y="320" type="curve" smooth="yes"/>
      <point x="492" y="218"/>
      <point x="400" y="90"/>
      <point x="309" y="27" type="curve" smooth="yes"/>
      <point x="274" y="3"/>
      <point x="235" y="-10"/>
      <point x="204" y="-10" type="curve" smooth="yes"/>
      <point x="114" y="-10"/>
      <point x="88" y="44"/>
      <point x="102" y="106" type="curve" smooth="yes"/>
      <point x="205" y="563" type="line" smooth="yes"/>
      <point x="210" y="585"/>
      <point x="212" y="602"/>
      <point x="212" y="613" type="curve" smooth="yes"/>
      <point x="212" y="635"/>
      <point x="204" y="641"/>
      <point x="191" y="641" type="curve" smooth="yes"/>
      <point x="160" y="643" type="line" smooth="yes"/>
      <point x="156" y="643"/>
      <point x="155" y="645"/>
      <point x="155" y="648" type="curve" smooth="yes"/>
      <point x="158" y="672" type="line"/>
      <point x="199" y="675"/>
      <point x="271" y="688"/>
      <point x="298" y="698" type="curve"/>
      <point x="307" y="698"/>
      <point x="310" y="695"/>
      <point x="310" y="688" type="curve"/>
      <point x="310" y="688"/>
      <point x="300" y="648"/>
      <point x="285" y="583" type="curve" smooth="yes"/>
    </contour>
    <contour>
      <point x="410" y="301" type="line" smooth="yes"/>
      <point x="410" y="369"/>
      <point x="387" y="392"/>
      <point x="357" y="392" type="curve" smooth="yes"/>
      <point x="309" y="392"/>
      <point x="264" y="331"/>
      <point x="217" y="276" type="curve"/>
      <point x="183" y="132" type="line" smooth="yes"/>
      <point x="167" y="64"/>
      <point x="173" y="25"/>
      <point x="209" y="25" type="curve" smooth="yes"/>
      <point x="285" y="25"/>
      <point x="410" y="156"/>
      <point x="410" y="301" type="curve" smooth="yes"/>
    </contour>
  </outline>
</glyph>
<glyph name="c" format="2">
  <advance width="389"/>
  <unicode hex="0063"/>
  <anchor x="343" y="645" name="above"/>
  <anchor x="163" y="-113" name="below"/>
  <anchor x="212" y="-2" name="cedilla"/>
  <anchor x="340" y="42" name="ogonek"/>
  <outline>
    <contour>
      <point x="209" y="-10" type="curve" smooth="yes"/>
      <point x="168" y="-10"/>
      <point x="134" y="9"/>
      <point x="113" y="38" type="curve" smooth="yes"/>
      <point x="90" y="71"/>
      <point x="83" y="116"/>
      <point x="83" y="149" type="curve" smooth="yes"/>
      <point x="83" y="239"/>
      <point x="116" y="316"/>
      <point x="165" y="368" type="curve" smooth="yes"/>
      <point x="206" y="413"/>
      <point x="271" y="439"/>
      <point x="311" y="439" type="curve" smooth="yes"/>
      <point x="420" y="439"/>
      <point x="423" y="382"/>
      <point x="423" y="343" type="curve" smooth="yes"/>
      <point x="423" y="318"/>
      <point x="398" y="298"/>
      <point x="371" y="298" type="curve" smooth="yes"/>
      <point x="354" y="298"/>
      <point x="344" y="314"/>
      <point x="344" y="330" type="curve" smooth="yes"/>
      <point x="344" y="336"/>
      <point x="346" y="347"/>
      <point x="349" y="351" type="curve" smooth="yes"/>
      <point x="352" y="356"/>
      <point x="354" y="364"/>
      <point x="354" y="370" type="curve" smooth="yes"/>
      <point x="354" y="403"/>
      <point x="326" y="408"/>
      <point x="312" y="408" type="curve" smooth="yes"/>
      <point x="235" y="408"/>
      <point x="165" y="320"/>
      <point x="165" y="171" type="curve" smooth="yes"/>
      <point x="165" y="111"/>
      <point x="175" y="91"/>
      <point x="190" y="72" type="curve" smooth="yes"/>
      <point x="204" y="53"/>
      <point x="223" y="49"/>
      <point x="240" y="49" type="curve" smooth="yes"/>
      <point x="293" y="49"/>
      <point x="333" y="82"/>
      <point x="372" y="126" type="curve"/>
      <point x="381" y="126"/>
      <point x="391" y="118"/>
      <point x="394" y="108" type="curve"/>
      <point x="346" y="42"/>
      <point x="281" y="-10"/>
    </contour>
  </outline>
</glyph>
<glyph name="d" format="2">
  <advance width="489"/>
  <unicode hex="0064"/>
  <anchor x="221.0" y="-107.0" name="below"/>
  <anchor x="312.0" y="20.0" name="ogonek"/>
  <anchor x="218.0" y="645.0" name="above"/>
  <outline>
    <contour>
      <point x="345.0" y="194.0" type="curve" smooth="yes"/>
      <point x="374.0" y="247.0"/>
      <point x="391.0" y="293.0"/>
      <point x="391.0" y="316.0" type="curve" smooth="yes"/>
      <point x="391.0" y="351.0"/>
      <point x="366.0" y="403.0"/>
      <point x="328.0" y="403.0" type="curve" smooth="yes"/>
      <point x="236.0" y="403.0"/>
      <point x="161.0" y="256.0"/>
      <point x="161.0" y="150.0" type="curve" smooth="yes"/>
      <point x="161.0" y="94.0"/>
      <point x="168.0" y="36.0"/>
      <point x="200.0" y="36.0" type="curve" smooth="yes"/>
      <point x="239.0" y="36.0"/>
      <point x="296.0" y="104.0"/>
    </contour>
    <contour>
      <point x="345.0" y="116.0" type="line"/>
      <point x="342.0" y="118.0" type="line"/>
      <point x="282.0" y="30.0"/>
      <point x="235.0" y="-10.0"/>
      <point x="183.0" y="-10.0" type="curve" smooth="yes"/>
      <point x="95.0" y="-10.0"/>
      <point x="81.0" y="79.0"/>
      <point x="81.0" y="134.0" type="curve" smooth="yes"/>
      <point x="81.0" y="291.0"/>
      <point x="218.0" y="439.0"/>
      <point x="325.0" y="439.0" type="curve" smooth="yes"/>
      <point x="363.0" y="439.0"/>
      <point x="392.0" y="414.0"/>
      <point x="404.0" y="384.0" type="curve"/>
      <point x="405.0" y="384.0" type="line"/>
      <point x="442.0" y="563.0" type="line" smooth="yes"/>
      <point x="446.5" y="584.9"/>
      <point x="449.0" y="602.0"/>
      <point x="449.0" y="613.0" type="curve" smooth="yes"/>
      <point x="449.0" y="635.0"/>
      <point x="441.0" y="641.0"/>
      <point x="428.0" y="641.0" type="curve" smooth="yes"/>
      <point x="397.0" y="643.0" type="line" smooth="yes"/>
      <point x="393.0" y="643.0"/>
      <point x="392.0" y="645.0"/>
      <point x="392.0" y="648.0" type="curve" smooth="yes"/>
      <point x="395.0" y="672.0" type="line"/>
      <point x="436.0" y="675.0"/>
      <point x="508.0" y="688.0"/>
      <point x="535.0" y="698.0" type="curve"/>
      <point x="544.0" y="698.0"/>
      <point x="547.0" y="695.0"/>
      <point x="547.0" y="688.0" type="curve"/>
      <point x="547.0" y="688.0"/>
      <point x="537.0" y="648.0"/>
      <point x="522.0" y="583.0" type="curve" smooth="yes"/>
      <point x="416.0" y="120.0" type="line" smooth="yes"/>
      <point x="412.0" y="101.0"/>
      <point x="406.0" y="73.0"/>
      <point x="406.0" y="64.0" type="curve" smooth="yes"/>
      <point x="406.0" y="52.0"/>
      <point x="415.0" y="50.0"/>
      <point x="418.0" y="50.0" type="curve" smooth="yes"/>
      <point x="428.0" y="50.0"/>
      <point x="447.0" y="66.0"/>
      <point x="474.0" y="103.0" type="curve"/>
      <point x="487.0" y="103.0"/>
      <point x="491.8" y="95.5"/>
      <point x="497.0" y="87.0" type="curve"/>
      <point x="471.0" y="30.0"/>
      <point x="431.0" y="-10.0"/>
      <point x="369.0" y="-10.0" type="curve" smooth="yes"/>
      <point x="335.0" y="-10.0"/>
      <point x="328.0" y="16.0"/>
      <point x="328.0" y="35.0" type="curve" smooth="yes"/>
      <point x="328.0" y="47.0"/>
      <point x="332.0" y="66.0"/>
      <point x="338.0" y="90.0" type="curve" smooth="yes"/>
    </contour>
  </outline>
</glyph>
<glyph name="e" format="2">
  <advance width="401"/>
  <unicode hex="0065"/>
  <anchor x="158.0" y="-108.0" name="below"/>
  <anchor x="344.3" y="41.0" name="ogonek"/>
  <anchor x="332.2" y="645.0" name="above"/>
  <outline>
    <contour>
      <point x="355.0" y="370.0" type="curve" smooth="yes"/>
      <point x="355.0" y="399.0"/>
      <point x="342.0" y="408.0"/>
      <point x="306.0" y="408.0" type="curve" smooth="yes"/>
      <point x="264.1" y="408.0"/>
      <point x="209.1" y="378.5"/>
      <point x="173.8" y="237.4" type="curve"/>
      <point x="249.8" y="247.2"/>
      <point x="355.0" y="280.3"/>
    </contour>
    <contour>
      <point x="167.0" y="199.0" type="curve"/>
      <point x="166.0" y="191.0"/>
      <point x="166.0" y="170.0"/>
      <point x="166.0" y="165.0" type="curve" smooth="yes"/>
      <point x="166.0" y="74.0"/>
      <point x="197.0" y="50.0"/>
      <point x="242.0" y="50.0" type="curve" smooth="yes"/>
      <point x="290.0" y="50.0"/>
      <point x="313.0" y="59.0"/>
      <point x="370.0" y="117.0" type="curve"/>
      <point x="382.0" y="117.0"/>
      <point x="388.0" y="112.0"/>
      <point x="393.0" y="101.0" type="curve"/>
      <point x="334.0" y="25.0"/>
      <point x="273.0" y="-10.0"/>
      <point x="206.0" y="-10.0" type="curve" smooth="yes"/>
      <point x="123.0" y="-10.0"/>
      <point x="83.0" y="57.0"/>
      <point x="83.0" y="142.0" type="curve" smooth="yes"/>
      <point x="83.0" y="269.0"/>
      <point x="155.0" y="439.0"/>
      <point x="329.0" y="439.0" type="curve" smooth="yes"/>
      <point x="401.0" y="439.0"/>
      <point x="424.0" y="390.0"/>
      <point x="424.0" y="365.0" type="curve" smooth="yes"/>
      <point x="424.0" y="327.0"/>
      <point x="428.0" y="250.0"/>
    </contour>
  </outline>
</glyph>
<glyph name="f" format="2">
  <advance width="314"/>
  <unicode hex="0066"/>
  <anchor x="410.0" y="750.0" name="right"/>
  <anchor x="222.0" y="-111.0" name="below"/>
  <outline>
    <contour>
      <point x="188.0" y="390.0" type="curve"/>
      <point x="106.0" y="390.0" type="line" smooth="yes"/>
      <point x="103.0" y="390.0"/>
      <point x="100.0" y="390.0"/>
      <point x="100.0" y="392.0" type="curve" smooth="yes"/>
      <point x="100.0" y="394.0"/>
      <point x="103.0" y="406.0"/>
      <point x="104.0" y="409.0" type="curve" smooth="yes"/>
      <point x="106.0" y="417.0"/>
      <point x="113.0" y="425.0"/>
      <point x="132.0" y="426.0" type="curve" smooth="yes"/>
      <point x="198.0" y="429.0" type="line"/>
      <point x="216.0" y="515.6"/>
      <point x="242.3" y="593.0"/>
      <point x="277.0" y="634.0" type="curve" smooth="yes"/>
      <point x="318.5" y="683.0"/>
      <point x="380.4" y="698.0"/>
      <point x="408.0" y="698.0" type="curve" smooth="yes"/>
      <point x="479.0" y="698.0"/>
      <point x="523.4" y="663.8"/>
      <point x="523.4" y="623.5" type="curve" smooth="yes"/>
      <point x="523.4" y="614.0"/>
      <point x="515.9" y="589.6"/>
      <point x="485.2" y="589.6" type="curve" smooth="yes"/>
      <point x="451.3" y="589.6"/>
      <point x="442.8" y="617.1"/>
      <point x="438.6" y="639.4" type="curve" smooth="yes"/>
      <point x="434.4" y="659.5"/>
      <point x="423.0" y="665.0"/>
      <point x="400.0" y="665.0" type="curve" smooth="yes"/>
      <point x="383.0" y="665.0"/>
      <point x="342.0" y="647.0"/>
      <point x="317.0" y="585.0" type="curve"/>
      <point x="305.0" y="558.0"/>
      <point x="294.4" y="524.3"/>
      <point x="287.0" y="486.0" type="curve" smooth="yes"/>
      <point x="276.0" y="429.0" type="line"/>
      <point x="386.0" y="429.0" type="line" smooth="yes"/>
      <point x="391.0" y="429.0"/>
      <point x="393.0" y="427.0"/>
      <point x="393.0" y="424.0" type="curve" smooth="yes"/>
      <point x="393.0" y="423.0"/>
      <point x="388.0" y="402.0"/>
      <point x="388.0" y="402.0" type="curve" smooth="yes"/>
      <point x="386.0" y="394.0"/>
      <point x="371.0" y="390.0"/>
      <point x="362.0" y="390.0" type="curve" smooth="yes"/>
      <point x="269.0" y="390.0" type="line"/>
      <point x="266.0" y="373.0" type="line" smooth="yes"/>
      <point x="251.2" y="289.1"/>
      <point x="234.9" y="208.2"/>
      <point x="218.9" y="130.0" type="curve" smooth="yes"/>
      <point x="180.0" y="-60.0"/>
      <point x="157.9" y="-136.2"/>
      <point x="130.0" y="-175.0" type="curve" smooth="yes"/>
      <point x="99.0" y="-218.0"/>
      <point x="55.0" y="-238.0"/>
      <point x="14.0" y="-238.0" type="curve" smooth="yes"/>
      <point x="-54.0" y="-238.0"/>
      <point x="-78.4" y="-214.3"/>
      <point x="-78.4" y="-192.0" type="curve" smooth="yes"/>
      <point x="-78.4" y="-175.0"/>
      <point x="-68.9" y="-156.0"/>
      <point x="-41.3" y="-156.0" type="curve" smooth="yes"/>
      <point x="-19.3" y="-156.0"/>
      <point x="0.2" y="-174.7"/>
      <point x="8.8" y="-188.5" type="curve" smooth="yes"/>
      <point x="14.6" y="-197.7"/>
      <point x="19.4" y="-205.0"/>
      <point x="33.0" y="-205.0" type="curve" smooth="yes"/>
      <point x="48.0" y="-205.0"/>
      <point x="67.5" y="-192.4"/>
      <point x="78.6" y="-175.0" type="curve" smooth="yes"/>
      <point x="115.3" y="-117.6"/>
      <point x="134.0" y="43.4"/>
      <point x="147.0" y="141.0" type="curve" smooth="yes"/>
      <point x="157.0" y="216.0"/>
      <point x="168.0" y="276.0"/>
    </contour>
  </outline>
</glyph>
<glyph name="g" format="2">
  <advance width="477"/>
  <unicode hex="0067"/>
  <anchor x="197.0" y="-319.0" name="below"/>
  <anchor x="360.0" y="645.0" name="above"/>
  <outline>
    <contour>
      <point x="161.0" y="-3.0" type="curve"/>
      <point x="136.0" y="-21.0"/>
      <point x="74.0" y="-65.0"/>
      <point x="74.0" y="-113.0" type="curve" smooth="yes"/>
      <point x="74.0" y="-168.0"/>
      <point x="128.0" y="-205.0"/>
      <point x="240.0" y="-205.0" type="curve" smooth="yes"/>
      <point x="328.0" y="-205.0"/>
      <point x="362.0" y="-165.0"/>
      <point x="362.0" y="-127.0" type="curve" smooth="yes"/>
      <point x="362.0" y="-92.0"/>
      <point x="338.0" y="-70.0"/>
      <point x="282.0" y="-44.0" type="curve" smooth="yes"/>
      <point x="249.0" y="-29.0"/>
      <point x="179.0" y="-7.0"/>
    </contour>
    <contour>
      <point x="415.0" y="291.0" type="curve" smooth="yes"/>
      <point x="415.0" y="192.0"/>
      <point x="350.0" y="132.0"/>
      <point x="263.0" y="132.0" type="curve" smooth="yes"/>
      <point x="235.0" y="132.0"/>
      <point x="211.0" y="139.0"/>
      <point x="195.0" y="149.0" type="curve"/>
      <point x="186.0" y="132.0"/>
      <point x="172.0" y="108.0"/>
      <point x="172.0" y="88.0" type="curve" smooth="yes"/>
      <point x="172.0" y="40.0"/>
      <point x="245.0" y="38.0"/>
      <point x="325.0" y="14.0" type="curve" smooth="yes"/>
      <point x="379.0" y="-2.0"/>
      <point x="427.0" y="-35.0"/>
      <point x="427.0" y="-100.0" type="curve" smooth="yes"/>
      <point x="427.0" y="-199.0"/>
      <point x="336.0" y="-238.0"/>
      <point x="199.0" y="-238.0" type="curve" smooth="yes"/>
      <point x="118.0" y="-238.0"/>
      <point x="7.0" y="-217.0"/>
      <point x="7.0" y="-136.0" type="curve" smooth="yes"/>
      <point x="7.0" y="-76.0"/>
      <point x="89.0" y="-21.0"/>
      <point x="142.0" y="8.0" type="curve"/>
      <point x="116.0" y="23.0"/>
      <point x="116.0" y="46.0"/>
      <point x="116.0" y="56.0" type="curve" smooth="yes"/>
      <point x="116.0" y="91.0"/>
      <point x="145.0" y="139.0"/>
      <point x="170.0" y="165.0" type="curve"/>
      <point x="143.0" y="197.0"/>
      <point x="124.0" y="239.0"/>
      <point x="124.0" y="283.0" type="curve" smooth="yes"/>
      <point x="124.0" y="363.0"/>
      <point x="168.0" y="439.0"/>
      <point x="280.0" y="439.0" type="curve" smooth="yes"/>
      <point x="324.3" y="439.0"/>
      <point x="356.0" y="423.0"/>
      <point x="378.0" y="397.0" type="curve"/>
      <point x="413.0" y="429.0"/>
      <point x="451.0" y="439.0"/>
      <point x="477.0" y="439.0" type="curve" smooth="yes"/>
      <point x="500.0" y="439.0"/>
      <point x="516.0" y="423.0"/>
      <point x="516.0" y="405.0" type="curve" smooth="yes"/>
      <point x="516.0" y="386.0"/>
      <point x="503.0" y="372.0"/>
      <point x="485.0" y="372.0" type="curve" smooth="yes"/>
      <point x="468.9" y="372.0"/>
      <point x="462.0" y="381.0"/>
      <point x="457.0" y="389.0" type="curve" smooth="yes"/>
      <point x="454.0" y="394.0"/>
      <point x="451.0" y="399.0"/>
      <point x="442.0" y="399.0" type="curve" smooth="yes"/>
      <point x="435.0" y="399.0"/>
      <point x="410.0" y="388.0"/>
      <point x="395.0" y="374.0" type="curve"/>
      <point x="409.0" y="354.0"/>
      <point x="415.0" y="318.0"/>
    </contour>
    <contour>
      <point x="341.0" y="291.0" type="curve" smooth="yes"/>
      <point x="341.0" y="359.0"/>
      <point x="319.0" y="409.0"/>
      <point x="276.0" y="409.0" type="curve" smooth="yes"/>
      <point x="210.0" y="409.0"/>
      <point x="198.0" y="354.0"/>
      <point x="198.0" y="282.0" type="curve" smooth="yes"/>
      <point x="198.0" y="234.0"/>
      <point x="207.0" y="162.0"/>
      <point x="268.0" y="162.0" type="curve" smooth="yes"/>
      <point x="328.0" y="162.0"/>
      <point x="341.0" y="229.0"/>
    </contour>
  </outline>
</glyph>
<glyph name="h" format="2">
  <advance width="519"/>
  <unicode hex="0068"/>
  <anchor x="128.0" y="9.0" name="cedilla"/>
  <anchor x="229.0" y="-111.0" name="below"/>
  <anchor x="421.0" y="10.0" name="ogonek"/>
  <anchor x="409.0" y="645.0" name="above"/>
  <outline>
    <contour>
      <point x="175.9" y="72.0" type="line" smooth="yes"/>
      <point x="167.0" y="34.0"/>
      <point x="168.0" y="-10.0"/>
      <point x="130.0" y="-10.0" type="curve" smooth="yes"/>
      <point x="98.2" y="-10.0"/>
      <point x="89.1" y="0.5"/>
      <point x="89.1" y="17.2" type="curve" smooth="yes"/>
      <point x="89.1" y="27.0"/>
      <point x="97.0" y="52.0"/>
      <point x="101.8" y="72.0" type="curve" smooth="yes"/>
      <point x="211.0" y="563.0" type="line" smooth="yes"/>
      <point x="215.9" y="584.8"/>
      <point x="218.0" y="602.0"/>
      <point x="218.0" y="613.0" type="curve" smooth="yes"/>
      <point x="218.0" y="635.0"/>
      <point x="210.0" y="641.0"/>
      <point x="197.0" y="641.0" type="curve" smooth="yes"/>
      <point x="166.0" y="643.0" type="line" smooth="yes"/>
      <point x="162.0" y="643.0"/>
      <point x="161.0" y="645.0"/>
      <point x="161.0" y="648.0" type="curve" smooth="yes"/>
      <point x="164.0" y="672.0" type="line"/>
      <point x="205.0" y="675.0"/>
      <point x="277.0" y="688.0"/>
      <point x="304.0" y="698.0" type="curve"/>
      <point x="313.0" y="698.0"/>
      <point x="316.0" y="695.0"/>
      <point x="316.0" y="688.0" type="curve"/>
      <point x="316.0" y="688.0"/>
      <point x="305.5" y="647.9"/>
      <point x="291.0" y="583.0" type="curve" smooth="yes"/>
      <point x="230.3" y="311.5" type="line"/>
      <point x="321.5" y="418.2"/>
      <point x="374.2" y="439.0"/>
      <point x="426.0" y="439.0" type="curve" smooth="yes"/>
      <point x="465.0" y="439.0"/>
      <point x="492.0" y="419.0"/>
      <point x="492.0" y="359.0" type="curve" smooth="yes"/>
      <point x="492.0" y="341.0"/>
      <point x="487.0" y="318.0"/>
      <point x="479.0" y="283.0" type="curve" smooth="yes"/>
      <point x="441.0" y="124.0" type="line" smooth="yes"/>
      <point x="435.0" y="98.0"/>
      <point x="430.0" y="76.0"/>
      <point x="430.0" y="67.0" type="curve" smooth="yes"/>
      <point x="430.0" y="55.0"/>
      <point x="432.9" y="50.0"/>
      <point x="440.0" y="50.0" type="curve" smooth="yes"/>
      <point x="450.0" y="50.0"/>
      <point x="479.0" y="70.0"/>
      <point x="505.0" y="100.0" type="curve"/>
      <point x="519.0" y="100.0"/>
      <point x="525.0" y="92.0"/>
      <point x="528.0" y="83.0" type="curve"/>
      <point x="482.0" y="24.0"/>
      <point x="437.0" y="-10.0"/>
      <point x="389.0" y="-10.0" type="curve" smooth="yes"/>
      <point x="359.0" y="-10.0"/>
      <point x="348.0" y="4.0"/>
      <point x="348.0" y="23.0" type="curve" smooth="yes"/>
      <point x="348.0" y="42.0"/>
      <point x="357.0" y="83.0"/>
      <point x="365.0" y="115.0" type="curve" smooth="yes"/>
      <point x="403.0" y="275.0" type="line" smooth="yes"/>
      <point x="411.0" y="309.0"/>
      <point x="413.0" y="328.0"/>
      <point x="413.0" y="342.0" type="curve" smooth="yes"/>
      <point x="413.0" y="373.0"/>
      <point x="399.0" y="379.0"/>
      <point x="378.0" y="379.0" type="curve" smooth="yes"/>
      <point x="342.0" y="379.0"/>
      <point x="277.0" y="320.0"/>
      <point x="214.0" y="238.0" type="curve"/>
    </contour>
  </outline>
</glyph>
<glyph name="k" format="2">
  <advance width="486"/>
  <unicode hex="006B"/>
  <anchor x="405" y="646" name="above"/>
  <anchor x="223" y="-107" name="below"/>
  <anchor x="125" y="9" name="cedilla"/>
  <outline>
    <contour>
      <point x="89" y="72" type="curve" smooth="yes"/>
      <point x="199" y="563" type="line" smooth="yes"/>
      <point x="204" y="585"/>
      <point x="206" y="602"/>
      <point x="206" y="613" type="curve" smooth="yes"/>
      <point x="206" y="635"/>
      <point x="198" y="641"/>
      <point x="185" y="641" type="curve" smooth="yes"/>
      <point x="154" y="643" type="line" smooth="yes"/>
      <point x="150" y="643"/>
      <point x="149" y="645"/>
      <point x="149" y="648" type="curve" smooth="yes"/>
      <point x="152" y="672" type="line"/>
      <point x="193" y="675"/>
      <point x="265" y="688"/>
      <point x="292" y="698" type="curve"/>
      <point x="301" y="698"/>
      <point x="304" y="695"/>
      <point x="304" y="688" type="curve"/>
      <point x="304" y="688"/>
      <point x="294" y="648"/>
      <point x="279" y="583" type="curve" smooth="yes"/>
      <point x="207" y="272" type="line"/>
      <point x="228" y="272"/>
      <point x="249" y="288"/>
      <point x="266" y="303" type="curve" smooth="yes"/>
      <point x="306" y="337" type="line"/>
      <point x="378" y="401"/>
      <point x="439" y="439"/>
      <point x="471" y="439" type="curve" smooth="yes"/>
      <point x="498" y="439"/>
      <point x="520" y="432"/>
      <point x="520" y="404" type="curve" smooth="yes"/>
      <point x="520" y="373"/>
      <point x="488" y="354"/>
      <point x="474" y="354" type="curve" smooth="yes"/>
      <point x="440" y="354"/>
      <point x="444" y="368"/>
      <point x="418" y="368" type="curve" smooth="yes"/>
      <point x="398" y="368"/>
      <point x="371" y="350"/>
      <point x="322" y="306" type="curve" smooth="yes"/>
      <point x="270" y="260" type="line"/>
      <point x="270" y="256" type="line"/>
      <point x="303" y="247"/>
      <point x="309" y="233"/>
      <point x="325" y="202" type="curve" smooth="yes"/>
      <point x="339" y="174"/>
      <point x="352" y="135"/>
      <point x="380" y="80" type="curve" smooth="yes"/>
      <point x="390" y="60"/>
      <point x="397" y="42"/>
      <point x="416" y="42" type="curve" smooth="yes"/>
      <point x="427" y="42"/>
      <point x="448" y="61"/>
      <point x="468" y="90" type="curve"/>
      <point x="479" y="90"/>
      <point x="483" y="85"/>
      <point x="490" y="77" type="curve"/>
      <point x="458" y="21"/>
      <point x="423" y="-10"/>
      <point x="389" y="-10" type="curve" smooth="yes"/>
      <point x="348" y="-10"/>
      <point x="323" y="21"/>
      <point x="290" y="93" type="curve" smooth="yes"/>
      <point x="270" y="138"/>
      <point x="259" y="189"/>
      <point x="241" y="221" type="curve" smooth="yes"/>
      <point x="236" y="230"/>
      <point x="229" y="237"/>
      <point x="221" y="237" type="curve" smooth="yes"/>
      <point x="214" y="237"/>
      <point x="207" y="237"/>
      <point x="199" y="234" type="curve"/>
      <point x="163" y="72" type="line" smooth="yes"/>
      <point x="155" y="35"/>
      <point x="155" y="-10"/>
      <point x="117" y="-10" type="curve" smooth="yes"/>
      <point x="85" y="-10"/>
      <point x="76" y="0"/>
      <point x="76" y="17" type="curve" smooth="yes"/>
      <point x="76" y="27"/>
      <point x="84" y="52"/>
    </contour>
  </outline>
</glyph>
<glyph name="l" format="2">
  <advance width="266"/>
  <unicode hex="006C"/>
  <anchor x="115" y="-107" name="below"/>
  <anchor x="131" y="10" name="cedilla"/>
  <outline>
    <contour>
      <point x="286" y="583" type="line" smooth="yes"/>
      <point x="184" y="127" type="line" smooth="yes"/>
      <point x="175" y="87"/>
      <point x="172" y="72"/>
      <point x="172" y="64" type="curve" smooth="yes"/>
      <point x="172" y="56"/>
      <point x="176" y="50"/>
      <point x="184" y="50" type="curve" smooth="yes"/>
      <point x="196" y="50"/>
      <point x="228" y="72"/>
      <point x="258" y="108" type="curve"/>
      <point x="271" y="108"/>
      <point x="276" y="101"/>
      <point x="280" y="91" type="curve"/>
      <point x="234" y="16"/>
      <point x="180" y="-10"/>
      <point x="135" y="-10" type="curve" smooth="yes"/>
      <point x="98" y="-10"/>
      <point x="93" y="15"/>
      <point x="93" y="34" type="curve" smooth="yes"/>
      <point x="93" y="53"/>
      <point x="100" y="87"/>
      <point x="107" y="119" type="curve" smooth="yes"/>
      <point x="206" y="563" type="line" smooth="yes"/>
      <point x="211" y="585"/>
      <point x="213" y="602"/>
      <point x="213" y="613" type="curve" smooth="yes"/>
      <point x="213" y="635"/>
      <point x="205" y="641"/>
      <point x="192" y="641" type="curve" smooth="yes"/>
      <point x="161" y="643" type="line" smooth="yes"/>
      <point x="157" y="643"/>
      <point x="156" y="645"/>
      <point x="156" y="648" type="curve" smooth="yes"/>
      <point x="159" y="672" type="line"/>
      <point x="200" y="675"/>
      <point x="272" y="688"/>
      <point x="299" y="698" type="curve"/>
      <point x="308" y="698"/>
      <point x="311" y="695"/>
      <point x="311" y="688" type="curve"/>
      <point x="311" y="688"/>
      <point x="300" y="648"/>
      <point x="286" y="583" type="curve" smooth="yes"/>
    </contour>
  </outline>
</glyph>
<glyph name="m" format="2">
  <advance width="783"/>
  <unicode hex="006D"/>
  <anchor x="382.0" y="-105.0" name="below"/>
  <anchor x="157.0" y="9.0" name="cedilla"/>
  <anchor x="522.0" y="645.0" name="above"/>
  <outline>
    <contour>
      <point x="182.0" y="321.0" type="line" smooth="yes"/>
      <point x="188.0" y="349.0"/>
      <point x="191.0" y="362.9"/>
      <point x="191.0" y="372.0" type="curve" smooth="yes"/>
      <point x="191.0" y="382.0"/>
      <point x="185.0" y="391.0"/>
      <point x="173.0" y="392.0" type="curve" smooth="yes"/>
      <point x="133.0" y="395.0" type="line"/>
      <point x="127.0" y="404.0"/>
      <point x="125.3" y="415.0"/>
      <point x="132.0" y="423.0" type="curve"/>
      <point x="179.0" y="429.0"/>
      <point x="224.0" y="436.0"/>
      <point x="256.0" y="436.0" type="curve" smooth="yes"/>
      <point x="269.2" y="436.0"/>
      <point x="276.5" y="428.6"/>
      <point x="276.5" y="414.9" type="curve" smooth="yes"/>
      <point x="276.5" y="397.8"/>
      <point x="264.0" y="359.0"/>
      <point x="254.3" y="320.2" type="curve" smooth="yes"/>
      <point x="252.0" y="311.0" type="line"/>
      <point x="254.0" y="310.0" type="line"/>
      <point x="313.0" y="386.0"/>
      <point x="378.0" y="439.0"/>
      <point x="450.0" y="439.0" type="curve" smooth="yes"/>
      <point x="478.0" y="439.0"/>
      <point x="508.0" y="422.0"/>
      <point x="508.0" y="352.0" type="curve" smooth="yes"/>
      <point x="508.0" y="339.0"/>
      <point x="507.0" y="321.0"/>
      <point x="504.0" y="305.0" type="curve"/>
      <point x="562.0" y="378.0"/>
      <point x="617.0" y="439.0"/>
      <point x="688.0" y="439.0" type="curve" smooth="yes"/>
      <point x="719.0" y="439.0"/>
      <point x="749.0" y="415.0"/>
      <point x="749.0" y="352.0" type="curve" smooth="yes"/>
      <point x="749.0" y="333.0"/>
      <point x="745.0" y="302.0"/>
      <point x="739.0" y="279.0" type="curve" smooth="yes"/>
      <point x="692.0" y="101.0" type="line" smooth="yes"/>
      <point x="689.0" y="89.7"/>
      <point x="686.9" y="64.6"/>
      <point x="686.9" y="61.0" type="curve" smooth="yes"/>
      <point x="686.9" y="56.0"/>
      <point x="688.6" y="50.0"/>
      <point x="694.0" y="50.0" type="curve" smooth="yes"/>
      <point x="712.0" y="50.0"/>
      <point x="740.0" y="77.0"/>
      <point x="764.0" y="115.0" type="curve"/>
      <point x="777.0" y="115.0"/>
      <point x="784.0" y="110.0"/>
      <point x="786.0" y="101.0" type="curve"/>
      <point x="752.0" y="19.0"/>
      <point x="697.0" y="-10.0"/>
      <point x="638.0" y="-10.0" type="curve" smooth="yes"/>
      <point x="624.0" y="-10.0"/>
      <point x="606.3" y="3.4"/>
      <point x="606.3" y="23.4" type="curve" smooth="yes"/>
      <point x="606.3" y="32.0"/>
      <point x="613.8" y="72.8"/>
      <point x="624.0" y="114.0" type="curve" smooth="yes"/>
      <point x="663.0" y="271.0" type="line" smooth="yes"/>
      <point x="671.0" y="302.0"/>
      <point x="672.0" y="331.0"/>
      <point x="672.0" y="342.0" type="curve" smooth="yes"/>
      <point x="672.0" y="372.0"/>
      <point x="662.0" y="379.0"/>
      <point x="643.0" y="379.0" type="curve" smooth="yes"/>
      <point x="611.0" y="379.0"/>
      <point x="572.0" y="348.0"/>
      <point x="487.0" y="229.0" type="curve"/>
      <point x="448.9" y="72.0" type="line" smooth="yes"/>
      <point x="440.0" y="34.0"/>
      <point x="441.0" y="-10.0"/>
      <point x="403.0" y="-10.0" type="curve" smooth="yes"/>
      <point x="371.2" y="-10.0"/>
      <point x="362.1" y="0.5"/>
      <point x="362.1" y="17.2" type="curve" smooth="yes"/>
      <point x="362.1" y="27.0"/>
      <point x="370.0" y="51.9"/>
      <point x="374.8" y="72.0" type="curve" smooth="yes"/>
      <point x="423.0" y="275.0" type="line" smooth="yes"/>
      <point x="430.0" y="306.0"/>
      <point x="431.0" y="330.0"/>
      <point x="431.0" y="342.0" type="curve" smooth="yes"/>
      <point x="431.0" y="372.0"/>
      <point x="425.0" y="379.0"/>
      <point x="405.0" y="379.0" type="curve" smooth="yes"/>
      <point x="373.0" y="379.0"/>
      <point x="317.0" y="346.0"/>
      <point x="239.0" y="233.0" type="curve"/>
      <point x="198.9" y="72.0" type="line" smooth="yes"/>
      <point x="189.0" y="34.0"/>
      <point x="191.0" y="-10.0"/>
      <point x="153.0" y="-10.0" type="curve" smooth="yes"/>
      <point x="121.2" y="-10.0"/>
      <point x="112.1" y="0.5"/>
      <point x="112.1" y="17.2" type="curve" smooth="yes"/>
      <point x="112.1" y="27.0"/>
      <point x="120.0" y="52.0"/>
      <point x="124.8" y="72.0" type="curve" smooth="yes"/>
    </contour>
  </outline>
</glyph>
<glyph name="n" format="2">
  <advance width="518"/>
  <unicode hex="006E"/>
  <anchor x="394" y="646" name="above"/>
  <anchor x="235" y="-111" name="below"/>
  <anchor x="128" y="9" name="cedilla"/>
  <outline>
    <contour>
      <point x="433" y="124" type="line" smooth="yes"/>
      <point x="427" y="98"/>
      <point x="422" y="76"/>
      <point x="422" y="67" type="curve" smooth="yes"/>
      <point x="422" y="55"/>
      <point x="425" y="50"/>
      <point x="432" y="50" type="curve" smooth="yes"/>
      <point x="442" y="50"/>
      <point x="471" y="70"/>
      <point x="497" y="100" type="curve"/>
      <point x="511" y="100"/>
      <point x="517" y="92"/>
      <point x="520" y="83" type="curve"/>
      <point x="474" y="24"/>
      <point x="426" y="-10"/>
      <point x="378" y="-10" type="curve" smooth="yes"/>
      <point x="348" y="-10"/>
      <point x="337" y="4"/>
      <point x="337" y="23" type="curve" smooth="yes"/>
      <point x="337" y="42"/>
      <point x="346" y="83"/>
      <point x="354" y="115" type="curve" smooth="yes"/>
      <point x="392" y="275" type="line" smooth="yes"/>
      <point x="399" y="303"/>
      <point x="405" y="331"/>
      <point x="405" y="343" type="curve" smooth="yes"/>
      <point x="405" y="374"/>
      <point x="391" y="379"/>
      <point x="370" y="379" type="curve" smooth="yes"/>
      <point x="334" y="379"/>
      <point x="279" y="320"/>
      <point x="216" y="238" type="curve"/>
      <point x="178" y="72" type="line" smooth="yes"/>
      <point x="169" y="34"/>
      <point x="170" y="-10"/>
      <point x="132" y="-10" type="curve" smooth="yes"/>
      <point x="100" y="-10"/>
      <point x="89" y="0"/>
      <point x="89" y="17" type="curve" smooth="yes"/>
      <point x="89" y="27"/>
      <point x="97" y="52"/>
      <point x="102" y="72" type="curve" smooth="yes"/>
      <point x="158" y="321" type="line" smooth="yes"/>
      <point x="164" y="349"/>
      <point x="167" y="364"/>
      <point x="167" y="372" type="curve" smooth="yes"/>
      <point x="167" y="382"/>
      <point x="161" y="391"/>
      <point x="149" y="392" type="curve" smooth="yes"/>
      <point x="109" y="395" type="line"/>
      <point x="103" y="404"/>
      <point x="101" y="415"/>
      <point x="108" y="423" type="curve"/>
      <point x="155" y="430"/>
      <point x="202" y="436"/>
      <point x="234" y="436" type="curve" smooth="yes"/>
      <point x="247" y="436"/>
      <point x="254" y="429"/>
      <point x="254" y="415" type="curve" smooth="yes"/>
      <point x="254" y="400"/>
      <point x="246" y="357"/>
      <point x="233" y="320" type="curve" smooth="yes"/>
      <point x="230" y="311" type="line"/>
      <point x="231" y="310" type="line"/>
      <point x="323" y="418"/>
      <point x="366" y="439"/>
      <point x="418" y="439" type="curve" smooth="yes"/>
      <point x="457" y="439"/>
      <point x="484" y="419"/>
      <point x="484" y="359" type="curve" smooth="yes"/>
      <point x="484" y="341"/>
      <point x="479" y="318"/>
      <point x="471" y="283" type="curve" smooth="yes"/>
    </contour>
  </outline>
</glyph>
<glyph name="o" format="2">
  <advance width="447"/>
  <unicode hex="006F"/>
  <anchor x="359" y="645" name="above"/>
  <anchor x="186" y="-107" name="below"/>
  <anchor x="230" y="-3" name="cedilla"/>
  <anchor x="491" y="396" name="komb_OR"/>
  <anchor x="371" y="44" name="ogonek"/>
  <outline>
    <contour>
      <point x="161" y="170" type="line" smooth="yes"/>
      <point x="161" y="65"/>
      <point x="204" y="27"/>
      <point x="233" y="27" type="curve" smooth="yes"/>
      <point x="270" y="27"/>
      <point x="311" y="45"/>
      <point x="339" y="88" type="curve" smooth="yes"/>
      <point x="376" y="144"/>
      <point x="382" y="230"/>
      <point x="382" y="270" type="curve" smooth="yes"/>
      <point x="382" y="300"/>
      <point x="379" y="337"/>
      <point x="366" y="362" type="curve" smooth="yes"/>
      <point x="352" y="390"/>
      <point x="336" y="406"/>
      <point x="306" y="406" type="curve" smooth="yes"/>
      <point x="200" y="406"/>
      <point x="161" y="260"/>
      <point x="161" y="170" type="curve" smooth="yes"/>
    </contour>
    <contour>
      <point x="78" y="162" type="line" smooth="yes"/>
      <point x="78" y="282"/>
      <point x="157" y="439"/>
      <point x="324" y="439" type="curve" smooth="yes"/>
      <point x="447" y="439"/>
      <point x="465" y="349"/>
      <point x="465" y="277" type="curve" smooth="yes"/>
      <point x="465" y="159"/>
      <point x="397" y="53"/>
      <point x="310" y="9" type="curve" smooth="yes"/>
      <point x="281" y="-6"/>
      <point x="250" y="-10"/>
      <point x="218" y="-10" type="curve" smooth="yes"/>
      <point x="91" y="-10"/>
      <point x="78" y="109"/>
      <point x="78" y="162" type="curve" smooth="yes"/>
    </contour>
  </outline>
</glyph>
<glyph name="p" format="2">
  <advance width="489"/>
  <unicode hex="0070"/>
  <anchor x="411" y="646" name="above"/>
  <anchor x="248" y="-110" name="below"/>
  <outline>
    <contour>
      <point x="266" y="404" type="line"/>
      <point x="293" y="420"/>
      <point x="330" y="439"/>
      <point x="381" y="439" type="curve" smooth="yes"/>
      <point x="481" y="439"/>
      <point x="509" y="373"/>
      <point x="509" y="289" type="curve" smooth="yes"/>
      <point x="509" y="217"/>
      <point x="482" y="149"/>
      <point x="428" y="83" type="curve" smooth="yes"/>
      <point x="384" y="30"/>
      <point x="326" y="-10"/>
      <point x="255" y="-10" type="curve" smooth="yes"/>
      <point x="226" y="-10"/>
      <point x="197" y="7"/>
      <point x="182" y="23" type="curve"/>
      <point x="138" y="-161" type="line" smooth="yes"/>
      <point x="130" y="-195"/>
      <point x="156" y="-200"/>
      <point x="171" y="-202" type="curve" smooth="yes"/>
      <point x="190" y="-205" type="line" smooth="yes"/>
      <point x="194" y="-206"/>
      <point x="196" y="-208"/>
      <point x="196" y="-213" type="curve" smooth="yes"/>
      <point x="196" y="-233" type="line"/>
      <point x="194" y="-235" type="line"/>
      <point x="194" y="-235"/>
      <point x="126" y="-233"/>
      <point x="87" y="-233" type="curve" smooth="yes"/>
      <point x="51" y="-233"/>
      <point x="-17" y="-238"/>
      <point x="-17" y="-238" type="curve"/>
      <point x="-19" y="-236" type="line"/>
      <point x="-19" y="-217" type="line" smooth="yes"/>
      <point x="-19" y="-211"/>
      <point x="-14" y="-210"/>
      <point x="-9" y="-209" type="curve" smooth="yes"/>
      <point x="10" y="-206" type="line" smooth="yes"/>
      <point x="42" y="-201"/>
      <point x="57" y="-189"/>
      <point x="63" y="-161" type="curve" smooth="yes"/>
      <point x="166" y="298" type="line"/>
      <point x="138" y="275"/>
      <point x="116" y="257"/>
      <point x="94" y="228" type="curve"/>
      <point x="76" y="228"/>
      <point x="67" y="235"/>
      <point x="63" y="249" type="curve"/>
      <point x="91" y="284"/>
      <point x="128" y="314"/>
      <point x="178" y="350" type="curve"/>
      <point x="191" y="409" type="line" smooth="yes"/>
      <point x="199" y="447"/>
      <point x="199" y="491"/>
      <point x="237" y="491" type="curve" smooth="yes"/>
      <point x="269" y="491"/>
      <point x="279" y="481"/>
      <point x="279" y="464" type="curve" smooth="yes"/>
      <point x="279" y="452"/>
      <point x="270" y="422"/>
      <point x="266" y="404" type="curve"/>
    </contour>
    <contour>
      <point x="427" y="273" type="line" smooth="yes"/>
      <point x="427" y="322"/>
      <point x="417" y="393"/>
      <point x="349" y="393" type="curve" smooth="yes"/>
      <point x="311" y="393"/>
      <point x="282" y="375"/>
      <point x="257" y="359" type="curve"/>
      <point x="191" y="67" type="line"/>
      <point x="212" y="38"/>
      <point x="239" y="25"/>
      <point x="265" y="25" type="curve" smooth="yes"/>
      <point x="303" y="25"/>
      <point x="343" y="55"/>
      <point x="369" y="96" type="curve" smooth="yes"/>
      <point x="407" y="155"/>
      <point x="427" y="224"/>
      <point x="427" y="273" type="curve" smooth="yes"/>
    </contour>
  </outline>
</glyph>
<glyph name="q" format="2">
  <advance width="491"/>
  <unicode hex="0071"/>
  <anchor x="169.0" y="-110.0" name="below"/>
  <anchor x="369.2" y="645.0" name="above"/>
  <outline>
    <contour>
      <point x="405.0" y="330.0" type="curve" smooth="yes"/>
      <point x="405.0" y="371.0"/>
      <point x="380.0" y="403.0"/>
      <point x="344.0" y="403.0" type="curve" smooth="yes"/>
      <point x="242.0" y="403.0"/>
      <point x="165.0" y="278.0"/>
      <point x="165.0" y="158.0" type="curve" smooth="yes"/>
      <point x="165.0" y="102.0"/>
      <point x="179.7" y="32.0"/>
      <point x="219.0" y="32.0" type="curve" smooth="yes"/>
      <point x="256.0" y="32.0"/>
      <point x="344.0" y="115.0"/>
      <point x="367.0" y="180.0" type="curve" smooth="yes"/>
      <point x="386.0" y="236.0"/>
      <point x="405.0" y="314.0"/>
    </contour>
    <contour>
      <point x="295.0" y="-161.0" type="curve" smooth="yes"/>
      <point x="361.0" y="99.0" type="line"/>
      <point x="358.0" y="100.0" type="line"/>
      <point x="296.0" y="14.0"/>
      <point x="247.0" y="-10.0"/>
      <point x="198.0" y="-10.0" type="curve" smooth="yes"/>
      <point x="104.0" y="-10.0"/>
      <point x="81.0" y="72.0"/>
      <point x="81.0" y="147.0" type="curve" smooth="yes"/>
      <point x="81.0" y="319.0"/>
      <point x="234.0" y="439.0"/>
      <point x="340.0" y="439.0" type="curve" smooth="yes"/>
      <point x="381.0" y="439.0"/>
      <point x="413.0" y="418.0"/>
      <point x="436.0" y="386.0" type="curve"/>
      <point x="465.0" y="427.0" type="line" smooth="yes"/>
      <point x="476.1" y="442.7"/>
      <point x="489.0" y="446.0"/>
      <point x="496.0" y="446.0" type="curve" smooth="yes"/>
      <point x="499.0" y="446.0"/>
      <point x="507.0" y="444.0"/>
      <point x="507.0" y="436.0" type="curve" smooth="yes"/>
      <point x="507.0" y="431.0"/>
      <point x="506.1" y="425.9"/>
      <point x="505.0" y="421.0" type="curve" smooth="yes"/>
      <point x="371.0" y="-161.0" type="line" smooth="yes"/>
      <point x="363.2" y="-195.0"/>
      <point x="388.8" y="-199.6"/>
      <point x="404.0" y="-202.0" type="curve" smooth="yes"/>
      <point x="423.0" y="-205.0" type="line" smooth="yes"/>
      <point x="427.0" y="-205.6"/>
      <point x="429.0" y="-208.0"/>
      <point x="429.0" y="-213.0" type="curve" smooth="yes"/>
      <point x="429.0" y="-233.0" type="line"/>
      <point x="427.0" y="-235.0" type="line"/>
      <point x="427.0" y="-235.0"/>
      <point x="359.0" y="-233.0"/>
      <point x="320.0" y="-233.0" type="curve" smooth="yes"/>
      <point x="284.0" y="-233.0"/>
      <point x="215.0" y="-238.0"/>
      <point x="215.0" y="-238.0" type="curve"/>
      <point x="213.0" y="-236.0" type="line"/>
      <point x="213.0" y="-217.0" type="line" smooth="yes"/>
      <point x="213.0" y="-211.0"/>
      <point x="218.1" y="-209.8"/>
      <point x="223.0" y="-209.0" type="curve" smooth="yes"/>
      <point x="242.0" y="-206.0" type="line" smooth="yes"/>
      <point x="274.3" y="-200.9"/>
      <point x="288.0" y="-188.8"/>
    </contour>
  </outline>
</glyph>
<glyph name="r" format="2">
  <advance width="357"/>
  <unicode hex="0072"/>
  <anchor x="312" y="646" name="above"/>
  <anchor x="113" y="-110" name="below"/>
  <anchor x="134" y="7" name="cedilla"/>
  <outline>
    <contour>
      <point x="221" y="285" type="line"/>
      <point x="225" y="284" type="line"/>
      <point x="269" y="377"/>
      <point x="327" y="439"/>
      <point x="377" y="439" type="curve" smooth="yes"/>
      <point x="414" y="439"/>
      <point x="429" y="413"/>
      <point x="429" y="392" type="curve" smooth="yes"/>
      <point x="429" y="365"/>
      <point x="411" y="336"/>
      <point x="384" y="336" type="curve" smooth="yes"/>
      <point x="370" y="336"/>
      <point x="357" y="349"/>
      <point x="350" y="357" type="curve" smooth="yes"/>
      <point x="344" y="364"/>
      <point x="339" y="369"/>
      <point x="329" y="369" type="curve" smooth="yes"/>
      <point x="306" y="369"/>
      <point x="250" y="276"/>
      <point x="202" y="189" type="curve"/>
      <point x="173" y="72" type="line" smooth="yes"/>
      <point x="163" y="33"/>
      <point x="162" y="-10"/>
      <point x="127" y="-10" type="curve" smooth="yes"/>
      <point x="98" y="-10"/>
      <point x="89" y="0"/>
      <point x="89" y="17" type="curve" smooth="yes"/>
      <point x="89" y="33"/>
      <point x="97" y="50"/>
      <point x="102" y="72" type="curve" smooth="yes"/>
      <point x="157" y="321" type="line" smooth="yes"/>
      <point x="164" y="349"/>
      <point x="164" y="363"/>
      <point x="164" y="372" type="curve" smooth="yes"/>
      <point x="164" y="382"/>
      <point x="158" y="391"/>
      <point x="146" y="392" type="curve" smooth="yes"/>
      <point x="106" y="395" type="line"/>
      <point x="100" y="404"/>
      <point x="98" y="415"/>
      <point x="105" y="423" type="curve"/>
      <point x="152" y="429"/>
      <point x="193" y="436"/>
      <point x="225" y="436" type="curve" smooth="yes"/>
      <point x="238" y="436"/>
      <point x="246" y="426"/>
      <point x="246" y="411" type="curve" smooth="yes"/>
      <point x="246" y="394"/>
      <point x="238" y="359"/>
      <point x="229" y="320" type="curve" smooth="yes"/>
    </contour>
  </outline>
</glyph>
<glyph name="s" format="2">
  <advance width="353"/>
  <unicode hex="0073"/>
  <anchor x="169.0" y="-111.0" name="below"/>
  <anchor x="185.0" y="-1.0" name="cedilla"/>
  <anchor x="276.0" y="13.0" name="ogonek"/>
  <anchor x="327.0" y="645.0" name="above"/>
  <outline>
    <contour>
      <point x="174.0" y="-10.0" type="curve" smooth="yes"/>
      <point x="105.0" y="-6.0"/>
      <point x="59.0" y="31.0"/>
      <point x="59.0" y="68.0" type="curve" smooth="yes"/>
      <point x="59.0" y="79.0"/>
      <point x="67.0" y="103.0"/>
      <point x="96.0" y="103.0" type="curve" smooth="yes"/>
      <point x="126.0" y="103.0"/>
      <point x="140.0" y="73.0"/>
      <point x="143.0" y="50.0" type="curve" smooth="yes"/>
      <point x="146.0" y="28.0"/>
      <point x="160.0" y="23.0"/>
      <point x="186.0" y="23.0" type="curve" smooth="yes"/>
      <point x="231.0" y="23.0"/>
      <point x="271.0" y="42.0"/>
      <point x="271.0" y="97.0" type="curve" smooth="yes"/>
      <point x="271.0" y="118.0"/>
      <point x="263.0" y="151.0"/>
      <point x="210.0" y="187.0" type="curve" smooth="yes"/>
      <point x="145.0" y="231.0"/>
      <point x="123.0" y="274.0"/>
      <point x="123.0" y="314.0" type="curve" smooth="yes"/>
      <point x="123.0" y="375.0"/>
      <point x="176.0" y="439.0"/>
      <point x="263.0" y="439.0" type="curve" smooth="yes"/>
      <point x="325.0" y="439.0"/>
      <point x="377.0" y="395.0"/>
      <point x="377.0" y="359.0" type="curve" smooth="yes"/>
      <point x="377.0" y="343.0"/>
      <point x="369.0" y="325.0"/>
      <point x="341.0" y="325.0" type="curve" smooth="yes"/>
      <point x="315.0" y="325.0"/>
      <point x="298.0" y="353.0"/>
      <point x="295.0" y="377.0" type="curve" smooth="yes"/>
      <point x="292.0" y="398.0"/>
      <point x="275.0" y="406.0"/>
      <point x="250.0" y="406.0" type="curve" smooth="yes"/>
      <point x="207.0" y="406.0"/>
      <point x="187.0" y="370.0"/>
      <point x="187.0" y="335.0" type="curve" smooth="yes"/>
      <point x="187.0" y="310.0"/>
      <point x="197.0" y="292.0"/>
      <point x="227.0" y="272.0" type="curve" smooth="yes"/>
      <point x="319.0" y="211.0"/>
      <point x="346.0" y="165.0"/>
      <point x="346.0" y="118.0" type="curve" smooth="yes"/>
      <point x="346.0" y="44.0"/>
      <point x="287.0" y="-10.0"/>
      <point x="189.0" y="-10.0" type="curve" smooth="yes"/>
      <point x="184.0" y="-10.0"/>
      <point x="179.0" y="-10.0"/>
    </contour>
  </outline>
</glyph>
<glyph name="t" format="2">
  <advance width="307"/>
  <unicode hex="0074"/>
  <anchor x="133.0" y="-107.0" name="below"/>
  <anchor x="149.0" y="-3.0" name="cedilla"/>
  <anchor x="211.0" y="15.0" name="ogonek"/>
  <outline>
    <contour>
      <point x="186.0" y="429.0" type="line"/>
      <point x="199.0" y="479.0" type="line" smooth="yes"/>
      <point x="208.6" y="516.0"/>
      <point x="207.0" y="561.0"/>
      <point x="243.0" y="561.0" type="curve" smooth="yes"/>
      <point x="275.0" y="561.0"/>
      <point x="283.0" y="551.0"/>
      <point x="283.0" y="534.0" type="curve" smooth="yes"/>
      <point x="283.0" y="522.0"/>
      <point x="274.2" y="492.7"/>
      <point x="270.0" y="474.0" type="curve" smooth="yes"/>
      <point x="260.0" y="429.0" type="line"/>
      <point x="359.0" y="429.0" type="line"/>
      <point x="370.0" y="421.0"/>
      <point x="361.0" y="395.0"/>
      <point x="349.0" y="390.0" type="curve"/>
      <point x="251.0" y="390.0" type="line"/>
      <point x="192.0" y="127.0" type="line" smooth="yes"/>
      <point x="184.4" y="93.1"/>
      <point x="181.0" y="73.0"/>
      <point x="181.0" y="64.0" type="curve" smooth="yes"/>
      <point x="181.0" y="52.0"/>
      <point x="191.0" y="50.0"/>
      <point x="194.0" y="50.0" type="curve" smooth="yes"/>
      <point x="210.0" y="50.0"/>
      <point x="228.0" y="60.0"/>
      <point x="274.0" y="112.0" type="curve"/>
      <point x="286.0" y="112.0"/>
      <point x="293.0" y="106.0"/>
      <point x="296.0" y="93.0" type="curve"/>
      <point x="261.5" y="31.0"/>
      <point x="195.5" y="-10.0"/>
      <point x="151.0" y="-10.0" type="curve" smooth="yes"/>
      <point x="120.0" y="-10.0"/>
      <point x="102.0" y="0.0"/>
      <point x="102.0" y="36.0" type="curve" smooth="yes"/>
      <point x="102.0" y="55.0"/>
      <point x="108.7" y="85.6"/>
      <point x="116.0" y="118.0" type="curve" smooth="yes"/>
      <point x="177.0" y="390.0" type="line"/>
      <point x="107.0" y="390.0" type="line" smooth="yes"/>
      <point x="104.0" y="390.0"/>
      <point x="101.0" y="390.0"/>
      <point x="101.0" y="392.0" type="curve" smooth="yes"/>
      <point x="101.0" y="394.0"/>
      <point x="104.0" y="406.0"/>
      <point x="105.0" y="409.0" type="curve" smooth="yes"/>
      <point x="107.0" y="417.0"/>
      <point x="114.0" y="425.0"/>
      <point x="133.0" y="426.0" type="curve" smooth="yes"/>
    </contour>
  </outline>
</glyph>
<glyph name="u" format="2">
  <advance width="521"/>
  <unicode hex="0075"/>
  <anchor x="226.4" y="-111.0" name="below"/>
  <anchor x="213.0" y="0.0" name="cedilla"/>
  <anchor x="438.4" y="7.0" name="ogonek"/>
  <anchor x="386.4" y="646.0" name="above"/>
  <outline>
    <contour>
      <point x="506.0" y="352.0" type="curve" smooth="yes"/>
      <point x="450.0" y="124.0" type="line" smooth="yes"/>
      <point x="444.0" y="98.0"/>
      <point x="439.0" y="76.0"/>
      <point x="439.0" y="67.0" type="curve" smooth="yes"/>
      <point x="439.0" y="55.0"/>
      <point x="442.0" y="50.0"/>
      <point x="449.0" y="50.0" type="curve" smooth="yes"/>
      <point x="459.0" y="50.0"/>
      <point x="488.0" y="70.0"/>
      <point x="514.0" y="100.0" type="curve"/>
      <point x="528.0" y="100.0"/>
      <point x="534.0" y="92.0"/>
      <point x="537.0" y="83.0" type="curve"/>
      <point x="491.0" y="24.0"/>
      <point x="446.0" y="-10.0"/>
      <point x="398.0" y="-10.0" type="curve" smooth="yes"/>
      <point x="368.0" y="-10.0"/>
      <point x="361.0" y="4.0"/>
      <point x="361.0" y="23.0" type="curve" smooth="yes"/>
      <point x="361.0" y="42.0"/>
      <point x="369.0" y="83.0"/>
      <point x="378.0" y="115.0" type="curve" smooth="yes"/>
      <point x="389.0" y="154.0" type="line"/>
      <point x="386.0" y="156.0" type="line"/>
      <point x="315.0" y="52.0"/>
      <point x="265.0" y="-10.0"/>
      <point x="187.0" y="-10.0" type="curve" smooth="yes"/>
      <point x="152.0" y="-10.0"/>
      <point x="120.0" y="13.0"/>
      <point x="120.0" y="70.0" type="curve" smooth="yes"/>
      <point x="120.0" y="89.0"/>
      <point x="123.0" y="111.0"/>
      <point x="130.0" y="137.0" type="curve" smooth="yes"/>
      <point x="174.0" y="305.0" type="line" smooth="yes"/>
      <point x="181.0" y="331.0"/>
      <point x="187.0" y="353.0"/>
      <point x="187.0" y="362.0" type="curve" smooth="yes"/>
      <point x="187.0" y="374.0"/>
      <point x="184.0" y="379.0"/>
      <point x="177.0" y="379.0" type="curve" smooth="yes"/>
      <point x="167.0" y="379.0"/>
      <point x="134.0" y="359.0"/>
      <point x="108.0" y="329.0" type="curve"/>
      <point x="94.0" y="329.0"/>
      <point x="88.0" y="337.0"/>
      <point x="85.0" y="346.0" type="curve"/>
      <point x="131.0" y="405.0"/>
      <point x="188.0" y="439.0"/>
      <point x="236.0" y="439.0" type="curve" smooth="yes"/>
      <point x="266.0" y="439.0"/>
      <point x="272.0" y="425.0"/>
      <point x="272.0" y="406.0" type="curve" smooth="yes"/>
      <point x="272.0" y="387.0"/>
      <point x="259.0" y="346.0"/>
      <point x="251.0" y="314.0" type="curve" smooth="yes"/>
      <point x="208.0" y="151.0" type="line" smooth="yes"/>
      <point x="201.0" y="124.0"/>
      <point x="199.0" y="103.0"/>
      <point x="199.0" y="87.0" type="curve" smooth="yes"/>
      <point x="199.0" y="60.0"/>
      <point x="211.0" y="50.0"/>
      <point x="229.0" y="50.0" type="curve" smooth="yes"/>
      <point x="279.0" y="50.0"/>
      <point x="328.0" y="121.0"/>
      <point x="402.0" y="247.0" type="curve"/>
      <point x="431.0" y="357.0" type="line" smooth="yes"/>
      <point x="441.0" y="395.0"/>
      <point x="439.0" y="439.0"/>
      <point x="477.0" y="439.0" type="curve" smooth="yes"/>
      <point x="509.0" y="439.0"/>
      <point x="519.0" y="429.0"/>
      <point x="519.0" y="412.0" type="curve" smooth="yes"/>
      <point x="519.0" y="400.0"/>
      <point x="509.6" y="369.9"/>
    </contour>
  </outline>
</glyph>
<glyph name="v" format="2">
  <advance width="472"/>
  <unicode hex="0076"/>
  <outline>
    <contour>
      <point x="305" y="76" type="line"/>
      <point x="309" y="74" type="line"/>
      <point x="323" y="85"/>
      <point x="359" y="132"/>
      <point x="372" y="148" type="curve" smooth="yes"/>
      <point x="410" y="200"/>
      <point x="447" y="278"/>
      <point x="447" y="322" type="curve" smooth="yes"/>
      <point x="447" y="338"/>
      <point x="441" y="359"/>
      <point x="426" y="382" type="curve" smooth="yes"/>
      <point x="423" y="386"/>
      <point x="420" y="396"/>
      <point x="420" y="402" type="curve" smooth="yes"/>
      <point x="420" y="426"/>
      <point x="438" y="439"/>
      <point x="467" y="439" type="curve" smooth="yes"/>
      <point x="506" y="439"/>
      <point x="519" y="420"/>
      <point x="519" y="392" type="curve" smooth="yes"/>
      <point x="519" y="356"/>
      <point x="507" y="320"/>
      <point x="492" y="285" type="curve" smooth="yes"/>
      <point x="464" y="219"/>
      <point x="418" y="158"/>
      <point x="396" y="128" type="curve" smooth="yes"/>
      <point x="382" y="107"/>
      <point x="344" y="59"/>
      <point x="313" y="24" type="curve" smooth="yes"/>
      <point x="294" y="4"/>
      <point x="280" y="-12"/>
      <point x="270" y="-12" type="curve" smooth="yes"/>
      <point x="256" y="-12"/>
      <point x="246" y="8"/>
      <point x="238" y="52" type="curve" smooth="yes"/>
      <point x="196" y="296" type="line" smooth="yes"/>
      <point x="188" y="340"/>
      <point x="182" y="357"/>
      <point x="173" y="357" type="curve" smooth="yes"/>
      <point x="154" y="357"/>
      <point x="131" y="336"/>
      <point x="103" y="309" type="curve"/>
      <point x="92" y="310"/>
      <point x="84" y="316"/>
      <point x="82" y="327" type="curve"/>
      <point x="117" y="380"/>
      <point x="174" y="439"/>
      <point x="208" y="439" type="curve" smooth="yes"/>
      <point x="245" y="439"/>
      <point x="257" y="402"/>
      <point x="271" y="309" type="curve" smooth="yes"/>
    </contour>
  </outline>
</glyph>
<glyph name="w" format="2">
  <advance width="688"/>
  <unicode hex="0077"/>
  <anchor x="355.0" y="-110.0" name="below"/>
  <anchor x="348.0" y="646.0" name="above"/>
  <anchor x="722.0" y="580.0" name="right"/>
  <outline>
    <contour>
      <point x="265.0" y="-12.0" type="curve" smooth="yes"/>
      <point x="256.0" y="-12.0"/>
      <point x="246.7" y="1.6"/>
      <point x="238.0" y="52.0" type="curve" smooth="yes"/>
      <point x="196.0" y="296.0" type="line" smooth="yes"/>
      <point x="188.4" y="340.3"/>
      <point x="182.5" y="357.0"/>
      <point x="173.0" y="357.0" type="curve" smooth="yes"/>
      <point x="154.0" y="357.0"/>
      <point x="131.0" y="335.7"/>
      <point x="103.0" y="308.7" type="curve"/>
      <point x="91.8" y="310.2"/>
      <point x="84.4" y="316.5"/>
      <point x="81.7" y="326.8" type="curve"/>
      <point x="116.7" y="380.1"/>
      <point x="174.5" y="439.0"/>
      <point x="208.0" y="439.0" type="curve" smooth="yes"/>
      <point x="245.0" y="439.0"/>
      <point x="256.2" y="401.9"/>
      <point x="271.0" y="309.0" type="curve" smooth="yes"/>
      <point x="305.0" y="96.0" type="line"/>
      <point x="307.5" y="94.5" type="line"/>
      <point x="331.0" y="130.5"/>
      <point x="396.4" y="249.5"/>
      <point x="438.0" y="346.0" type="curve"/>
      <point x="454.0" y="354.0"/>
      <point x="470.5" y="357.5"/>
      <point x="487.0" y="358.0" type="curve"/>
      <point x="494.0" y="340.5"/>
      <point x="502.7" y="307.1"/>
      <point x="511.9" y="269.0" type="curve" smooth="yes"/>
      <point x="524.9" y="214.9"/>
      <point x="538.3" y="148.4"/>
      <point x="546.8" y="96.0" type="curve"/>
      <point x="554.4" y="94.0" type="line"/>
      <point x="567.5" y="108.4"/>
      <point x="583.6" y="127.6"/>
      <point x="599.1" y="148.5" type="curve" smooth="yes"/>
      <point x="637.1" y="199.9"/>
      <point x="663.0" y="276.5"/>
      <point x="663.0" y="321.5" type="curve" smooth="yes"/>
      <point x="663.0" y="337.9"/>
      <point x="657.2" y="358.6"/>
      <point x="642.0" y="381.5" type="curve" smooth="yes"/>
      <point x="638.7" y="386.4"/>
      <point x="636.5" y="395.8"/>
      <point x="636.5" y="402.0" type="curve" smooth="yes"/>
      <point x="636.5" y="426.3"/>
      <point x="653.7" y="439.0"/>
      <point x="683.0" y="439.0" type="curve" smooth="yes"/>
      <point x="721.5" y="439.0"/>
      <point x="735.4" y="420.0"/>
      <point x="735.4" y="391.6" type="curve" smooth="yes"/>
      <point x="735.4" y="356.4"/>
      <point x="723.2" y="319.8"/>
      <point x="708.3" y="285.0" type="curve" smooth="yes"/>
      <point x="680.1" y="218.9"/>
      <point x="644.8" y="157.4"/>
      <point x="623.0" y="126.5" type="curve" smooth="yes"/>
      <point x="608.6" y="106.1"/>
      <point x="576.9" y="61.1"/>
      <point x="548.0" y="25.0" type="curve" smooth="yes"/>
      <point x="528.0" y="0.0"/>
      <point x="513.5" y="-12.0"/>
      <point x="502.0" y="-12.0" type="curve" smooth="yes"/>
      <point x="493.3" y="-12.0"/>
      <point x="486.0" y="-2.0"/>
      <point x="479.0" y="46.3" type="curve" smooth="yes"/>
      <point x="469.3" y="113.1"/>
      <point x="454.0" y="194.0"/>
      <point x="439.5" y="258.0" type="curve"/>
      <point x="433.5" y="257.0" type="line"/>
      <point x="398.9" y="181.9"/>
      <point x="343.8" y="85.5"/>
      <point x="306.6" y="27.0" type="curve" smooth="yes"/>
      <point x="290.9" y="2.3"/>
      <point x="272.7" y="-12.0"/>
    </contour>
  </outline>
</glyph>
<glyph name="x" format="2">
  <advance width="475"/>
  <unicode hex="0078"/>
  <anchor x="366" y="646" name="above"/>
  <anchor x="224" y="-110" name="below"/>
  <anchor x="84" y="8" name="cedilla"/>
  <outline>
    <contour>
      <point x="215" y="309" type="line" smooth="yes"/>
      <point x="209" y="326"/>
      <point x="202" y="343"/>
      <point x="198" y="351" type="curve" smooth="yes"/>
      <point x="192" y="360"/>
      <point x="182" y="362"/>
      <point x="170" y="362" type="curve" smooth="yes"/>
      <point x="149" y="362"/>
      <point x="116" y="346"/>
      <point x="104" y="341" type="curve"/>
      <point x="96" y="348"/>
      <point x="92" y="361"/>
      <point x="91" y="372" type="curve"/>
      <point x="126" y="398"/>
      <point x="200" y="439"/>
      <point x="223" y="439" type="curve" smooth="yes"/>
      <point x="248" y="439"/>
      <point x="259" y="419"/>
      <point x="276" y="367" type="curve" smooth="yes"/>
      <point x="304" y="279" type="line"/>
      <point x="354" y="351" type="line" smooth="yes"/>
      <point x="403" y="422"/>
      <point x="436" y="439"/>
      <point x="486" y="439" type="curve" smooth="yes"/>
      <point x="509" y="439"/>
      <point x="536" y="424"/>
      <point x="536" y="399" type="curve" smooth="yes"/>
      <point x="536" y="376"/>
      <point x="518" y="356"/>
      <point x="504" y="356" type="curve" smooth="yes"/>
      <point x="494" y="356"/>
      <point x="478" y="360"/>
      <point x="471" y="366" type="curve" smooth="yes"/>
      <point x="462" y="373"/>
      <point x="449" y="376"/>
      <point x="441" y="376" type="curve" smooth="yes"/>
      <point x="434" y="376"/>
      <point x="410" y="372"/>
      <point x="394" y="349" type="curve" smooth="yes"/>
      <point x="318" y="237" type="line"/>
      <point x="372" y="76" type="line" smooth="yes"/>
      <point x="380" y="52"/>
      <point x="387" y="39"/>
      <point x="396" y="39" type="curve" smooth="yes"/>
      <point x="407" y="39"/>
      <point x="420" y="47"/>
      <point x="446" y="80" type="curve"/>
      <point x="457" y="78"/>
      <point x="466" y="70"/>
      <point x="470" y="61" type="curve"/>
      <point x="439" y="9"/>
      <point x="395" y="-10"/>
      <point x="360" y="-10" type="curve" smooth="yes"/>
      <point x="326" y="-10"/>
      <point x="316" y="6"/>
      <point x="303" y="46" type="curve" smooth="yes"/>
      <point x="264" y="168" type="line"/>
      <point x="195" y="68" type="line" smooth="yes"/>
      <point x="151" y="5"/>
      <point x="127" y="-10"/>
      <point x="93" y="-10" type="curve" smooth="yes"/>
      <point x="70" y="-10"/>
      <point x="35" y="2"/>
      <point x="35" y="28" type="curve" smooth="yes"/>
      <point x="35" y="50"/>
      <point x="51" y="66"/>
      <point x="73" y="66" type="curve" smooth="yes"/>
      <point x="83" y="66"/>
      <point x="93" y="64"/>
      <point x="102" y="60" type="curve" smooth="yes"/>
      <point x="110" y="56"/>
      <point x="121" y="54"/>
      <point x="129" y="54" type="curve" smooth="yes"/>
      <point x="136" y="54"/>
      <point x="147" y="58"/>
      <point x="157" y="73" type="curve" smooth="yes"/>
      <point x="250" y="210" type="line"/>
    </contour>
  </outline>
</glyph>
